SplineFontDB: 3.0
FontName: Exo-Black
FullName: Exo Black
FamilyName: Exo
Weight: Black
Copyright: Copyright (c) 2011 Natanael Gama (exo@ndiscovered.com), with Reserved Font Name "Exo"
UComments: "2010-2-8: Created." 
Version: 1.00
ItalicAngle: 0
UnderlinePosition: -100
UnderlineWidth: 50
Ascent: 800
Descent: 200
sfntRevision: 0x00010000
LayerCount: 2
Layer: 0 0 "Back"  1
Layer: 1 0 "Fore"  0
XUID: [1021 348 1054973004 1200425]
FSType: 8
OS2Version: 0
OS2_WeightWidthSlopeOnly: 0
OS2_UseTypoMetrics: 1
CreationTime: 1265665101
ModificationTime: 1325018786
PfmFamily: 33
TTFWeight: 900
TTFWidth: 5
LineGap: 90
VLineGap: 0
OS2TypoAscent: 0
OS2TypoAOffset: 1
OS2TypoDescent: 0
OS2TypoDOffset: 1
OS2TypoLinegap: 90
OS2WinAscent: 0
OS2WinAOffset: 1
OS2WinDescent: 0
OS2WinDOffset: 1
HheadAscent: 0
HheadAOffset: 1
HheadDescent: 0
HheadDOffset: 1
OS2Vendor: 'PfEd'
Lookup: 4 0 0 "'ordn' Ordinals lookup 21"  {"'ordn' Ordinals lookup 21-1"  } ['ordn' ('DFLT' <'dflt' > 'grek' <'dflt' > 'latn' <'dflt' > ) ]
Lookup: 1 0 0 "'smcp' Lowercase to Small Capitals lookup 16"  {"'smcp' Lowercase to Small Capitals lookup 16-1" ("smcp" ) } ['smcp' ('DFLT' <'dflt' > 'grek' <'dflt' > 'latn' <'FRA ' 'dflt' > ) ]
Lookup: 1 0 0 "'c2sc' Capitals to Small Capitals in Latin lookup 17"  {"'c2sc' Capitals to Small Capitals in Latin lookup 17 subtable" ("smcp" ) } ['c2sc' ('latn' <'dflt' > ) ]
Lookup: 4 0 0 "'dlig' Discretionary Ligatures lookup 14"  {"'dlig' Discretionary Ligatures lookup 14-1"  } ['dlig' ('DFLT' <'dflt' > 'grek' <'dflt' > 'latn' <'dflt' > ) ]
Lookup: 4 0 1 "'liga' Standard Ligatures lookup 15"  {"'liga' Standard Ligatures lookup 15-1"  } ['liga' ('DFLT' <'dflt' > 'grek' <'dflt' > 'latn' <'FRA ' 'dflt' > ) ]
Lookup: 1 0 0 "'frac' Diagonal Fractions lookup 13"  {"'frac' Diagonal Fractions lookup 13-1"  } ['frac' ('DFLT' <'dflt' > 'grek' <'dflt' > 'latn' <'FRA ' 'dflt' > ) ]

StartChar: a
Encoding: 97 97 0
Width: 519
VWidth: 0
Flags: W
HStem: 0 21G<321.926 492> 399 142<86.1168 293.762>
VStem: 298 194<141.045 231 339.56 389.872>
LayerCount: 2
Fore
SplineSet
22 143 m 10
 22 184 l 2
 22 259 57 340 196 340 c 2
 196 340 298 339 298 340 c 0
 298 340 299 346 298 347 c 2
 298 400 276 399 236 399 c 3
 211 399 40 388 40 388 c 9
 40 501 l 17
 109 534 169 541 268 541 c 1
 408 541 492 506 492 357 c 2
 492 0 l 9
 336 0 l 25
 298 54 l 17
 289 33 259 -9 186 -6 c 0
 60 -1 22 87 22 143 c 10
216 175 m 2
 216 134 239 138 258 138 c 0
 299 138 298 171 298 171 c 9
 298 231 l 17
 246 226 l 2
 214 223 216 197 216 181 c 2
 216 175 l 2
EndSplineSet
Validated: 33
AlternateSubs2: "'salt' Access All Alternates in Latin lookup 4-1" a.salt
Substitution2: "'smcp' Lowercase to Small Capitals lookup 16-1" a.smcp
EndChar

StartChar: z
Encoding: 122 122 1
Width: 489
VWidth: 0
Flags: W
HStem: 1 154<292 473> 377 154<17 229>
LayerCount: 2
Fore
SplineSet
17 377 m 17
 17 531 l 25
 473 531 l 25
 473 377 l 25
 292 155 l 21
 473 155 l 17
 474 154 473 1 473 1 c 25
 32 1 l 25
 32 153 l 25
 229 377 l 17
 17 377 l 17
EndSplineSet
Validated: 33
Substitution2: "'smcp' Lowercase to Small Capitals lookup 16-1" z.smcp
EndChar

StartChar: e
Encoding: 101 101 2
Width: 525
VWidth: 0
Flags: W
HStem: -5 143<135.5 476.049> 195 123<222 307.781> 401 134<228.034 307.119>
VStem: 28 194<147.719 195 318 396.212> 309 194<320.547 397.959>
LayerCount: 2
Fore
SplineSet
28 268 m 0
 28 489 88 535 260 535 c 3
 437 535 503 513 503 337 c 0
 503 228 442 195 346 195 c 2
 222 195 l 1
 222 123 269 138 343 138 c 3
 415 138 418 138 493 149 c 1
 493 23 l 17
 423 -9 286 -5 203 -5 c 0
 68 -5 28 84 28 268 c 0
222 318 m 1
 280 318 l 2
 297 318 309 331 309 350 c 0
 309 386 308 401 274 401 c 3
 232 401 220 394 222 318 c 1
EndSplineSet
Validated: 33
Substitution2: "'smcp' Lowercase to Small Capitals lookup 16-1" e.smcp
EndChar

StartChar: o
Encoding: 111 111 3
Width: 554
VWidth: 0
Flags: W
HStem: -5 144<232.566 322.851> 392 144<228.501 321.26>
VStem: 28 194<147.182 386.593> 332 194<144.659 385.078>
LayerCount: 2
Fore
SplineSet
28 258 m 7
 28 475 93 536 277 536 c 7
 463 536 526 469 526 258 c 7
 526 61 468 -5 277 -5 c 7
 90 -5 28 68 28 258 c 7
222 258 m 7
 222 153 226 139 277 139 c 7
 332 139 332 147 332 258 c 7
 332 373 333 392 277 392 c 7
 218 392 222 372 222 258 c 7
EndSplineSet
Validated: 33
Substitution2: "'smcp' Lowercase to Small Capitals lookup 16-1" o.smcp
EndChar

StartChar: c
Encoding: 99 99 5
Width: 490
VWidth: 0
Flags: W
HStem: -5 144<153.5 438.605> 392 144<152 418.938>
VStem: 28 194<154.718 376.781>
LayerCount: 2
Fore
SplineSet
28 266 m 4
 28 474 101 536 203 536 c 7
 255 536 359 541 461 500 c 5
 461 386 l 5
 461 386 401 392 312 392 c 7
 244 392 222 394 222 264 c 7
 222 142 240 139 312 139 c 3
 404 139 468 147 468 147 c 1
 468 33 l 17
 393 -20 286 -4 203 -5 c 0
 104 -5 28 58 28 266 c 4
EndSplineSet
Validated: 33
Substitution2: "'smcp' Lowercase to Small Capitals lookup 16-1" c.smcp
EndChar

StartChar: d
Encoding: 100 100 6
Width: 559
VWidth: 0
Flags: W
HStem: -6 157<156.722 284.78> 400 139<128 314.36> 765 20G<332 526>
VStem: 28 194<160.073 391.269> 332 194<156.992 395.142 509 785>
LayerCount: 2
Fore
SplineSet
28 263 m 4
 28 460 56 539 200 539 c 7
 245 539 296 528 332 509 c 5
 332 785 l 5
 526 785 l 5
 526 0 l 5
 360 0 l 5
 331 49 l 21
 292 16 259 -6 200 -6 c 7
 81 -6 28 62 28 263 c 4
222 273 m 4
 222 164 237 151 266 151 c 7
 297 151 321 156 331 173 c 5
 331 385 l 5
 321 396 291 400 266 400 c 5
 238 400 222 386 222 273 c 4
EndSplineSet
Validated: 1
AlternateSubs2: "'salt' Access All Alternates in Latin lookup 4-1" d.salt
Substitution2: "'smcp' Lowercase to Small Capitals lookup 16-1" d.smcp
EndChar

StartChar: A
Encoding: 65 65 7
Width: 711
VWidth: 0
Flags: W
HStem: 0 21G<25 230.562 499.281 705> 128 165<310 424> 712 20G<247.743 489.066>
DStem2: 25 0 224 0 0.298572 0.954387<59.4158 194.117 364.728 570.001>
LayerCount: 2
Fore
SplineSet
25 0 m 1
 254 732 l 1
 483 732 l 1
 705 0 l 1
 506 0 l 1
 463 128 l 1
 266 128 l 1
 224 0 l 1
 25 0 l 1
310 293 m 1
 424 293 l 1
 371 489 l 1
 310 293 l 1
EndSplineSet
Validated: 1
Substitution2: "'c2sc' Capitals to Small Capitals in Latin lookup 17 subtable" a.smcp
EndChar

StartChar: p
Encoding: 112 112 8
Width: 559
VWidth: 0
Flags: W
HStem: -8 139<245.64 432> 380 157<275.22 403.278>
VStem: 34 194<-270 22 135.858 374.008> 338 194<139.626 372.35>
LayerCount: 2
Fore
SplineSet
34 -270 m 1
 34 531 l 1
 200 531 l 1
 229 482 l 21
 268 515 301 537 360 537 c 7
 479 537 532 458 532 268 c 4
 532 100 504 -8 360 -8 c 7
 315 -8 264 3 228 22 c 5
 228 -270 l 1
 34 -270 l 1
229 146 m 5
 239 135 269 131 294 131 c 5
 322 131 338 145 338 258 c 4
 338 367 323 380 294 380 c 7
 263 380 239 375 229 358 c 5
 229 146 l 5
EndSplineSet
Validated: 1
AlternateSubs2: "'salt' Access All Alternates in Latin lookup 4-1" p.salt
Substitution2: "'smcp' Lowercase to Small Capitals lookup 16-1" p.smcp
EndChar

StartChar: b
Encoding: 98 98 9
Width: 559
VWidth: 0
Flags: W
HStem: -6 157<275.22 403.278> 400 139<245.64 432> 765 20G<34 228>
VStem: 34 194<156.992 395.142 509 785> 338 194<158.069 392.802>
LayerCount: 2
Fore
SplineSet
34 0 m 1
 34 785 l 1
 228 785 l 1
 228 509 l 1
 264 528 315 539 360 539 c 3
 504 539 532 452 532 263 c 4
 532 70 479 -6 360 -6 c 3
 301 -6 268 16 229 49 c 9
 200 0 l 1
 34 0 l 1
229 173 m 1
 239 156 263 151 294 151 c 3
 323 151 338 164 338 273 c 0
 338 386 322 400 294 400 c 1
 269 400 239 396 229 385 c 1
 229 173 l 1
EndSplineSet
Validated: 1
AlternateSubs2: "'salt' Access All Alternates in Latin lookup 4-1" b.salt
Substitution2: "'smcp' Lowercase to Small Capitals lookup 16-1" b.smcp
EndChar

StartChar: q
Encoding: 113 113 10
Width: 555
VWidth: 0
Flags: W
HStem: -10 140<154.5 311.078> 403 134<239.119 324.101>
VStem: 28 194<142.317 387.422> 328 194<-270 29 133.875 403>
LayerCount: 2
Fore
SplineSet
28 268 m 7
 28 468 106 537 231 537 c 7
 337 537 468 523 522 501 c 5
 522 -270 l 21
 328 -270 l 13
 328 29 l 5
 306 0 276 -10 231 -10 c 7
 78 -10 28 76 28 268 c 7
222 275 m 7
 222 163 227 130 279 130 c 7
 299 130 316 134 328 149 c 5
 328 403 l 6
 281 403 l 6
 223 403 222 335 222 275 c 7
EndSplineSet
Validated: 1
Substitution2: "'smcp' Lowercase to Small Capitals lookup 16-1" q.smcp
EndChar

StartChar: n
Encoding: 110 110 11
Width: 555
VWidth: 0
Flags: W
HStem: 0 21G<34 228 334 528> 396 144<278.736 443> 511 20G<34 208.308>
VStem: 34 194<0 384.621> 334 194<0 390.498>
LayerCount: 2
Fore
SplineSet
34 0 m 1xd8
 34 531 l 1
 196 531 l 1xb8
 228 479 l 1
 261 510 293 540 374 540 c 3
 512 540 528 452 528 340 c 2
 528 0 l 9
 334 0 l 17
 334 344 l 2
 334 386 323 396 301 396 c 3
 264 396 240 386 228 359 c 1
 228 0 l 1
 34 0 l 1xd8
EndSplineSet
Validated: 1
AlternateSubs2: "'salt' Access All Alternates in Latin lookup 4-1" n.salt
Substitution2: "'smcp' Lowercase to Small Capitals lookup 16-1" n.smcp
EndChar

StartChar: i
Encoding: 105 105 12
Width: 252
VWidth: 0
Flags: W
HStem: 0 21G<29 223> 511 20G<29 223> 581 165<28.1465 223.854>
VStem: 29 194<0 531 581.026 745.968>
LayerCount: 2
Fore
SplineSet
28 604 m 2
 28 721 l 2
 28 736 36 746 52 746 c 2
 202 746 l 2
 217 746 224 735 224 721 c 2
 224 604 l 2
 224 589 216 581 202 581 c 2
 52 581 l 2
 38 581 28 590 28 604 c 2
29 0 m 1
 29 531 l 1
 223 531 l 1
 223 0 l 1
 29 0 l 1
EndSplineSet
Validated: 1
Substitution2: "'smcp' Lowercase to Small Capitals lookup 16-1" i.smcp
EndChar

StartChar: h
Encoding: 104 104 13
Width: 555
VWidth: 0
Flags: W
HStem: 0 21G<34 228 334 528> 396 144<277.137 443> 762 20G<34 227>
VStem: 34 194<0 384.621 479 782> 334 194<0 390.498>
LayerCount: 2
Fore
SplineSet
34 0 m 1
 34 782 l 1
 227 782 l 1
 227 479 l 5
 257 508 293 540 374 540 c 3
 512 540 528 452 528 340 c 2
 528 0 l 9
 334 0 l 17
 334 344 l 2
 334 386 323 396 301 396 c 3
 264 396 240 386 228 359 c 1
 228 0 l 1
 34 0 l 1
EndSplineSet
Validated: 1
Substitution2: "'smcp' Lowercase to Small Capitals lookup 16-1" h.smcp
EndChar

StartChar: u
Encoding: 117 117 14
Width: 555
VWidth: 0
Flags: W
HStem: -9 144<113 271.67> 0 21G<347.692 522> 511 20G<28 222 328 522>
VStem: 28 194<140.502 531> 328 194<146.379 531>
LayerCount: 2
Fore
SplineSet
28 191 m 6xb8
 28 531 l 13
 222 531 l 21
 222 187 l 6
 222 145 233 135 255 135 c 7xb8
 292 135 316 145 328 172 c 5
 328 531 l 5
 522 531 l 5
 522 0 l 5
 360 0 l 5x78
 328 52 l 5
 282 23 263 -9 182 -9 c 7
 44 -9 28 79 28 191 c 6xb8
EndSplineSet
Validated: 1
AlternateSubs2: "'salt' Access All Alternates in Latin lookup 4-1" u.salt
Substitution2: "'smcp' Lowercase to Small Capitals lookup 16-1" u.smcp
EndChar

StartChar: r
Encoding: 114 114 15
Width: 410
VWidth: 0
Flags: W
HStem: 0 21G<34 228> 345 186<267.16 390>
VStem: 34 194<0 334.321>
LayerCount: 2
Fore
SplineSet
34 0 m 1
 34 531 l 1
 206 531 l 1
 228 464 l 1
 245 500 290 536 343 536 c 27
 361 536 374 536 390 531 c 1
 390 345 l 1
 374 345 342 345 311 345 c 27
 271 345 228 345 228 285 c 1
 228 0 l 1
 34 0 l 1
EndSplineSet
Validated: 1
AlternateSubs2: "'salt' Access All Alternates in Latin lookup 4-1" r.salt
Substitution2: "'smcp' Lowercase to Small Capitals lookup 16-1" r.smcp
EndChar

StartChar: m
Encoding: 109 109 16
Width: 857
VWidth: 0
Flags: W
HStem: 0 21G<34 228 334 528 636 830> 396 144<277.614 409 574.297 745> 511 20G<34 208.308>
VStem: 34 194<0 384.621> 334 194<0 385.73> 636 194<0 390.498>
LayerCount: 2
Fore
SplineSet
34 0 m 1xdc
 34 531 l 1
 196 531 l 1xbc
 228 479 l 1
 264 512 293 540 374 540 c 0
 444 540 483 517 504 479 c 1
 548 507 599 540 676 540 c 0
 814 540 830 452 830 340 c 2
 830 0 l 1
 636 0 l 1
 636 344 l 2
 636 386 625 396 603 396 c 0
 570 396 541 388 527 366 c 1
 527 358 528 349 528 340 c 2
 528 0 l 1
 334 0 l 1
 334 344 l 2
 334 386 323 396 301 396 c 0
 264 396 240 386 228 359 c 1
 228 0 l 1
 34 0 l 1xdc
EndSplineSet
Validated: 1
AlternateSubs2: "'salt' Access All Alternates in Latin lookup 4-1" m.salt
Substitution2: "'smcp' Lowercase to Small Capitals lookup 16-1" m.smcp
EndChar

StartChar: f
Encoding: 102 102 17
Width: 407
VWidth: 0
Flags: W
HStem: 0 21G<83 277> 397 134<277 375> 652 134<279.932 390.502>
VStem: 83 194<0 397 531 646.454>
LayerCount: 2
Fore
SplineSet
11 397 m 5
 11 514 l 5
 83 531 l 5
 83 630 l 6
 83 751 147 786 267 786 c 4
 316 786 357 782 396 762 c 5
 396 651 l 5
 395 651 323 652 323 652 c 6
 273 653 277 632 277 570 c 6
 277 531 l 5
 375 531 l 5
 375 397 l 5
 277 397 l 13
 277 0 l 21
 83 0 l 5
 83 397 l 5
 11 397 l 5
EndSplineSet
Validated: 33
AlternateSubs2: "'salt' Access All Alternates in Latin lookup 4-1" f.salt
Substitution2: "'smcp' Lowercase to Small Capitals lookup 16-1" f.smcp
EndChar

StartChar: l
Encoding: 108 108 18
Width: 325
VWidth: 0
Flags: W
HStem: 0 113<263.974 314> 763 20G<34 228>
VStem: 34 194<146.013 783>
LayerCount: 2
Fore
SplineSet
34 189 m 2
 34 783 l 1
 228 783 l 1
 228 229 l 6
 228 160 243 146 265 134 c 6
 265 134 307 113 314 113 c 5
 314 0 l 5
 176 0 l 6
 81 0 34 48 34 189 c 2
EndSplineSet
Validated: 1
Substitution2: "'smcp' Lowercase to Small Capitals lookup 16-1" l.smcp
EndChar

StartChar: j
Encoding: 106 106 19
Width: 264
VWidth: 0
Flags: W
HStem: 511 20G<36 230> 581 165<34.1465 230.837>
VStem: 36 194<-211.716 531 581 746>
LayerCount: 2
Fore
SplineSet
34 604 m 2
 34 721 l 2
 34 736 42 746 58 746 c 2
 208 746 l 2
 223 746 231 735 231 721 c 2
 231 604 l 2
 231 589 222 581 208 581 c 2
 58 581 l 2
 44 581 34 590 34 604 c 2
36 -270 m 1
 36 531 l 1
 230 531 l 1
 230 -4 l 2
 231 -90 229 -192 184 -270 c 1
 36 -270 l 1
EndSplineSet
Validated: 33
Substitution2: "'smcp' Lowercase to Small Capitals lookup 16-1" j.smcp
EndChar

StartChar: t
Encoding: 116 116 20
Width: 385
VWidth: 0
Flags: W
HStem: -1 113<314.975 365> 398 134<280 369>
VStem: 86 194<146.947 398>
LayerCount: 2
Fore
SplineSet
11 398 m 1
 11 494 l 1
 86 532 l 1
 114 680 l 1
 280 680 l 1
 280 532 l 1
 369 532 l 1
 369 398 l 1
 280 398 l 1
 280 230 l 6
 280 159 294 145 316 133 c 6
 316 133 358 112 365 112 c 5
 365 -1 l 5
 215 -1 l 6
 135 -1 86 49 86 190 c 2
 86 398 l 1
 11 398 l 1
EndSplineSet
Validated: 1
AlternateSubs2: "'salt' Access All Alternates in Latin lookup 4-1" t.salt
Substitution2: "'smcp' Lowercase to Small Capitals lookup 16-1" t.smcp
EndChar

StartChar: s
Encoding: 115 115 21
Width: 511
VWidth: 0
Flags: W
HStem: -5 151<67.7788 294> 386 150<216.007 443.084>
LayerCount: 2
Fore
SplineSet
22 338 m 10
 22 384 l 18
 22 466 57 536 160 536 c 3
 303 536 430 539 462 500 c 9
 462 386 l 17
 238 386 l 2
 225 386 216 386 216 368 c 10
 216 362 l 18
 216 346 226 346 238 346 c 2
 338 346 l 2
 451 346 488 281 488 202 c 1
 488 143 l 2
 488 34 422 -5 358 -5 c 3
 215 -5 80 -9 44 32 c 9
 44 146 l 17
 276 146 l 18
 293 146 294 153 294 163 c 2
 294 168 l 2
 294 180 292 186 276 186 c 10
 180 186 l 2
 86 186 22 235 22 338 c 10
EndSplineSet
Validated: 33
Substitution2: "'smcp' Lowercase to Small Capitals lookup 16-1" s.smcp
EndChar

StartChar: k
Encoding: 107 107 22
Width: 605
VWidth: 0
Flags: W
HStem: 0 21G<34 228 356.561 594> 511 20G<343.219 594> 762 20G<34 228>
VStem: 34 194<0 228 362 782>
LayerCount: 2
Fore
SplineSet
34 0 m 1
 34 782 l 1
 228 782 l 1
 228 362 l 1
 248 362 l 1
 356 531 l 5
 594 531 l 5
 425 295 l 1
 594 0 l 1
 367 0 l 1
 248 228 l 1
 228 228 l 1
 228 0 l 1
 34 0 l 1
EndSplineSet
Validated: 1
Substitution2: "'smcp' Lowercase to Small Capitals lookup 16-1" k.smcp
EndChar

StartChar: g
Encoding: 103 103 23
Width: 566
VWidth: 0
Flags: W
HStem: -270 144<232.47 342.717> -35 145<231.942 341.029> 149 144<227.119 328.329> 389 144<226.029 328.036>
VStem: 25 169<57 148.901> 30 194<295.922 385.095> 331 194<295.896 386.973> 343 193<-124.36 -40.1282>
LayerCount: 2
Fore
SplineSet
25 92 m 0xf9
 25 141 44 178 89 196 c 1
 45 224 30 291 30 344 c 0
 30 471 93 533 223 533 c 2
 555 533 l 1
 555 427 l 1
 514 409 l 1
 522 386 525 370 525 314 c 0xf6
 525 224 486 149 330 149 c 2
 234 149 l 2
 218 149 194 152 194 131 c 0
 194 110 211.909 110 234 110 c 2
 356 110 l 2
 463 110 536 64 536 -63 c 2
 536 -116 l 2
 536 -206 487 -270 356 -270 c 2
 206 -270 l 2
 112 -270 36 -222 36 -116 c 2
 36 -63 l 1
 88 -28 l 1
 60 -16 25 22 25 92 c 0xf9
231 -85 m 2
 231 -121 240 -126 275 -126 c 2
 303 -126 l 2
 346 -126 343 -108 343 -90 c 2
 343 -67 l 2xf1
 343 -51 329.068 -35.7598 304 -35 c 2
 271 -35 l 2
 231 -35 l 1
 231 -85 l 2
224 344 m 0xf6
 224 295 239 293 266 293 c 2
 288 293 l 2
 319 293 331 295 331 344 c 0
 331 387.046 312 389 287 389 c 2
 263 389 l 2
 227 389 224 371 224 344 c 0xf6
EndSplineSet
AlternateSubs2: "'salt' Access All Alternates in Latin lookup 4-1" g.salt
Substitution2: "'smcp' Lowercase to Small Capitals lookup 16-1" g.smcp
EndChar

StartChar: v
Encoding: 118 118 24
Width: 588
VWidth: 0
Flags: W
HStem: 0 21G<170.748 407.629> 511 20G<11 221.658 367.031 577>
LayerCount: 2
Fore
SplineSet
11 531 m 25
 217 531 l 17
 292 209 l 9
 372 531 l 25
 577 531 l 25
 401 0 l 25
 177 0 l 25
 11 531 l 25
EndSplineSet
Validated: 1
Substitution2: "'smcp' Lowercase to Small Capitals lookup 16-1" v.smcp
EndChar

StartChar: w
Encoding: 119 119 25
Width: 847
VWidth: 0
Flags: W
HStem: 0 21G<151.501 386.547 459.993 696.499> 511 20G<11 221.037 338.273 530 626.398 837>
LayerCount: 2
Fore
SplineSet
11 531 m 1
 217 531 l 1
 282 209 l 1
 342 531 l 1
 530 531 l 1
 507 410 l 1
 572 209 l 1
 630 531 l 1
 837 531 l 1
 691 0 l 5
 467 0 l 1
 419 137 l 1
 381 0 l 1
 157 0 l 1
 11 531 l 1
EndSplineSet
Substitution2: "'smcp' Lowercase to Small Capitals lookup 16-1" w.smcp
EndChar

StartChar: y
Encoding: 121 121 26
Width: 599
VWidth: 0
Flags: W
HStem: 511 20G<12 216.631 382.32 583>
DStem2: 284 0 440 -168 0.200427 0.979709<-133.324 0 159.449 540.669>
LayerCount: 2
Fore
SplineSet
12 531 m 1
 213 531 l 1
 274 195 l 2
 280 164 301 157 317 156 c 9
 386 531 l 1
 583 531 l 9
 440 -168 l 17
 369 -270 l 1
 225 -270 l 1
 284 0 l 0
 167 0 115 66 95 156 c 2
 12 531 l 1
EndSplineSet
Validated: 1
Substitution2: "'smcp' Lowercase to Small Capitals lookup 16-1" y.smcp
EndChar

StartChar: x
Encoding: 120 120 27
Width: 612
VWidth: 0
Flags: W
HStem: 0 21G<14 255.917 356.083 590> 511 20G<14 255.672 356 598>
LayerCount: 2
Fore
SplineSet
14 0 m 5
 190 266 l 5
 14 531 l 5
 246 531 l 5
 305 409 l 5
 366 531 l 5
 598 531 l 5
 419 263 l 5
 590 0 l 5
 366 0 l 5
 306 121 l 5
 246 0 l 5
 14 0 l 5
EndSplineSet
Validated: 1
AlternateSubs2: "'salt' Access All Alternates in Latin lookup 4-1" x.salt
Substitution2: "'smcp' Lowercase to Small Capitals lookup 16-1" x.smcp
EndChar

StartChar: V
Encoding: 86 86 28
Width: 699
VWidth: 0
Flags: W
HStem: 0 21G<226.344 471.984> 712 20G<25 233.899 475.696 685>
LayerCount: 2
Fore
SplineSet
25 732 m 1
 229 732 l 1
 350 238 l 1
 481 732 l 1
 685 732 l 1
 466 0 l 1
 232 0 l 1
 25 732 l 1
EndSplineSet
Validated: 1
Substitution2: "'c2sc' Capitals to Small Capitals in Latin lookup 17 subtable" v.smcp
EndChar

StartChar: W
Encoding: 87 87 29
Width: 1018
VWidth: 0
Flags: W
HStem: 0 21G<226.344 470.937 586.393 830.891> 712 20G<25 233.899 437.316 645 797.316 1005>
LayerCount: 2
Fore
SplineSet
25 732 m 1
 229 732 l 1
 350 238 l 1
 441 732 l 1
 645 732 l 1
 608 580 l 1
 710 238 l 1
 801 732 l 1
 1005 732 l 1
 826 0 l 1
 592 0 l 1
 525 239 l 1
 466 0 l 1
 232 0 l 1
 25 732 l 1
EndSplineSet
Validated: 1
Substitution2: "'c2sc' Capitals to Small Capitals in Latin lookup 17 subtable" w.smcp
EndChar

StartChar: C
Encoding: 67 67 30
Width: 567
VWidth: 0
Flags: W
HStem: -6 174<266.998 519.134> 566 174<255.899 494.303>
VStem: 31 194<207.241 532.713>
LayerCount: 2
Fore
SplineSet
31 368 m 0
 31 602 85 740 284 740 c 0
 428 740 462 732 548 700 c 1
 548 549 l 17
 547 549 447 566 344 566 c 3
 260 566 225 570 225 366 c 0
 225 202 244 168 345 168 c 3
 450 168 548 177 548 177 c 1
 548 26 l 1
 486 0 432 -9 284 -6 c 0
 99 -3 31 122 31 368 c 0
EndSplineSet
Validated: 33
Substitution2: "'c2sc' Capitals to Small Capitals in Latin lookup 17 subtable" c.smcp
EndChar

StartChar: D
Encoding: 68 68 31
Width: 667
VWidth: 0
Flags: W
HStem: 0 164<239 410.924> 568 164<239 415.012>
VStem: 45 194<164 568> 443 194<199.043 534.435>
LayerCount: 2
Fore
SplineSet
45 0 m 1
 45 732 l 2
 388 732 l 0
 587 732 637 570 637 363 c 0
 637 107 555 0 388 0 c 0
 45 0 l 1
239 164 m 1
 368 164 l 2
 425 164 443 223 443 364 c 0
 443 545 415 568 368 568 c 2
 239 568 l 1
 239 164 l 1
EndSplineSet
Validated: 1
Substitution2: "'c2sc' Capitals to Small Capitals in Latin lookup 17 subtable" d.smcp
EndChar

StartChar: O
Encoding: 79 79 32
Width: 667
VWidth: 0
Flags: W
HStem: -4 174<264.04 413.349> 563 174<263.447 413.347>
VStem: 37 194<203.32 526.097> 449 194<214.117 525.749>
LayerCount: 2
Fore
SplineSet
37 361 m 3
 37 704 172 737 340 737 c 3
 513 737 643 704 643 361 c 3
 643 38 520 -4 340 -4 c 3
 160 -4 37 28 37 361 c 3
231 361 m 3
 231 208 242 170 340 170 c 3
 426 170 449 206 449 361 c 3
 449 531 431 563 340 563 c 3
 252 563 231 540 231 361 c 3
EndSplineSet
Validated: 1
Substitution2: "'c2sc' Capitals to Small Capitals in Latin lookup 17 subtable" o.smcp
EndChar

StartChar: S
Encoding: 83 83 33
Width: 596
VWidth: 0
Flags: W
HStem: -8 174<97.7929 374.236> 267 194<234.833 374.94>
LayerCount: 2
Fore
SplineSet
37 479 m 10
 37 540 l 18
 37 671 123 731 235 738 c 0
 382.766 747.235 471 732 545 705 c 9
 545 554 l 17
 481 561 371 564 305 564 c 3
 251 564 231 562 231 520 c 10
 231 509 l 18
 231 478 237 461 291 461 c 2
 385 461 l 18
 537 461 572 329 572 249 c 2
 572 216 l 2
 572 30 468 -8 369 -8 c 3
 182 -8 160 -8 60 26 c 9
 60 177 l 17
 100 173 226 166 319 166 c 0
 362 166 378 177 378 207 c 2
 378 223 l 2
 378 252 369 267 325 267 c 10
 235 267 l 2
 45 267 37 432 37 479 c 10
EndSplineSet
Substitution2: "'c2sc' Capitals to Small Capitals in Latin lookup 17 subtable" s.smcp
EndChar

StartChar: G
Encoding: 71 71 34
Width: 615
VWidth: 0
Flags: W
HStem: 0 21G<425.551 585> 576 164<262.761 519.551>
VStem: 31 194<197.281 533.158> 391 194<187.555 294>
LayerCount: 2
Fore
SplineSet
31 370 m 3
 31 593 75 740 274 740 c 0
 433 740 443 740 578 703 c 1
 578 554 l 1
 572 554 461 576 334 576 c 3
 241 576 225 531 225 368 c 0
 225 204 231 173 319 173 c 0
 381 173 391 219 391 219 c 9
 391 294 l 25
 342 294 l 25
 342 414 l 17
 387 438 451 439 517 439 c 0
 538 439 561 438 585 436 c 9
 585 0 l 17
 448 0 l 0
 393 49 l 1
 365 12 349 0 269 -5 c 0
 62 -18 31 164 31 370 c 3
EndSplineSet
Validated: 33
Substitution2: "'c2sc' Capitals to Small Capitals in Latin lookup 17 subtable" g.smcp
EndChar

StartChar: Q
Encoding: 81 81 35
Width: 667
VWidth: 0
Flags: W
HStem: -208 140<394.076 546> -4 174<264.04 413.349> 563 174<263.447 413.347>
VStem: 37 194<203.32 526.097> 449 194<214.191 525.749>
LayerCount: 2
Fore
SplineSet
37 361 m 3
 37 704 172 737 340 737 c 3
 513 737 643 704 643 361 c 1
 643 38 520 -2 340 -4 c 1
 160 -4 37 28 37 361 c 3
231 361 m 3
 231 208 242 170 340 170 c 3
 426 170 449 206 449 361 c 3
 449 531 431 563 340 563 c 3
 252 563 231 540 231 361 c 3
286 -33 m 13
 388 -33 l 21
 394 -94 486 -80 546 -68 c 5
 546 -208 l 5
 422 -226 287 -184 286 -33 c 13
EndSplineSet
Validated: 33
Substitution2: "'c2sc' Capitals to Small Capitals in Latin lookup 17 subtable" q.smcp
EndChar

StartChar: M
Encoding: 77 77 36
Width: 886
VWidth: 0
Flags: W
HStem: 0 21G<31 224.306 328.792 557.058 662.494 856> 712 20G<106.869 382.017 503.788 779.158>
DStem2: 31 0 222 0 0.105958 0.994371<20.2379 421.866>
LayerCount: 2
Fore
SplineSet
31 0 m 1
 109 732 l 1
 379 732 l 1
 441 321 l 1
 507 732 l 1
 777 732 l 1
 856 0 l 1
 665 0 l 1
 615 399 l 1
 554 0 l 1
 332 0 l 1
 268 399 l 1
 222 0 l 1
 31 0 l 1
EndSplineSet
Validated: 1
AlternateSubs2: "'salt' Access All Alternates in Latin lookup 4-1" M.salt
Substitution2: "'c2sc' Capitals to Small Capitals in Latin lookup 17 subtable" m.smcp
EndChar

StartChar: I
Encoding: 73 73 37
Width: 272
VWidth: 0
Flags: W
HStem: 0 21G<45 239> 712 20G<45 239>
VStem: 45 194<0 732>
LayerCount: 2
Fore
SplineSet
45 0 m 1
 45 732 l 1
 239 732 l 1
 239 0 l 1
 45 0 l 1
EndSplineSet
Validated: 1
Substitution2: "'c2sc' Capitals to Small Capitals in Latin lookup 17 subtable" i.smcp
EndChar

StartChar: J
Encoding: 74 74 38
Width: 355
VWidth: 0
Flags: W
HStem: 712 20G<128 322>
VStem: 128 194<193.583 732>
LayerCount: 2
Fore
SplineSet
20 25 m 1
 20 179 l 5
 125 179 128 199 128 276 c 1
 128 732 l 1
 322 732 l 1
 322 165 l 2
 322 118 318 50 268 18 c 0
 215 -16 72 -9 20 25 c 1
EndSplineSet
Validated: 33
Substitution2: "'c2sc' Capitals to Small Capitals in Latin lookup 17 subtable" j.smcp
EndChar

StartChar: H
Encoding: 72 72 39
Width: 636
VWidth: 0
Flags: W
HStem: 0 21G<45 239 409 603> 267 174<239 409> 712 20G<45 239 409 603>
VStem: 45 194<0 267 441 732> 409 194<0 267 441 732>
LayerCount: 2
Fore
SplineSet
45 0 m 1
 45 732 l 1
 239 732 l 1
 239 441 l 1
 409 441 l 1
 409 732 l 1
 603 732 l 1
 603 0 l 1
 409 0 l 1
 409 267 l 1
 239 267 l 1
 239 0 l 1
 45 0 l 1
EndSplineSet
Validated: 1
Substitution2: "'c2sc' Capitals to Small Capitals in Latin lookup 17 subtable" h.smcp
EndChar

StartChar: E
Encoding: 69 69 40
Width: 567
VWidth: 0
Flags: W
HStem: -3 179<239.609 548.092> 14 162<239.763 553> 272 181<234 405.182> 281 161<331.818 503> 553 179<238.838 547.449> 553 163<240.225 553>
VStem: 40 194<181.547 272 453 548.047>
LayerCount: 2
Fore
SplineSet
40 161 m 2x82
 40 562 l 2
 40 712.773 155.3 732 226 732 c 4x8a
 226 732 436 732 553 716 c 1
 553 553 l 1x06
 286 553 l 2
 234 553 234 524 234 497 c 2
 234 453 l 1x2a
 503 442 l 1
 503 281 l 1x12
 234 272 l 1
 234 228 l 2
 234 175 267 176 296 176 c 2xa2
 553 176 l 1
 553 14 l 1x42
 450 0 236 -3 236 -3 c 0
 171.3 -5 40 8 40 161 c 2x82
EndSplineSet
Substitution2: "'c2sc' Capitals to Small Capitals in Latin lookup 17 subtable" e.smcp
EndChar

StartChar: L
Encoding: 76 76 41
Width: 526
VWidth: 0
Flags: W
HStem: 0 174<244.609 507> 712 20G<45 239>
VStem: 45 194<179.547 732>
LayerCount: 2
Fore
SplineSet
45 156 m 2
 45 732 l 1
 239 732 l 1
 239 226 l 2
 239 173 272 174 301 174 c 2
 507 174 l 1
 507 0 l 1
 211 0 l 2
 120 0 45 43 45 156 c 2
EndSplineSet
Validated: 33
Substitution2: "'c2sc' Capitals to Small Capitals in Latin lookup 17 subtable" l.smcp
EndChar

StartChar: F
Encoding: 70 70 42
Width: 567
VWidth: 0
Flags: W
HStem: 0 21G<40 234> 272 181<234 405.182> 281 161<331.818 503> 553 179<238.838 547.449> 553 163<240.225 553>
VStem: 40 194<0 272 453 548.047>
LayerCount: 2
Fore
SplineSet
40 0 m 17xc4
 40 558 l 2
 40 695 141.3 733 226 732 c 0xd4
 226 732 436 732 553 716 c 1
 553 553 l 1x8c
 286 553 l 2
 234 553 234 524 234 497 c 2
 234 453 l 1xd4
 503 442 l 1
 503 281 l 1xa4
 234 272 l 1
 234 0 l 9
 40 0 l 17xc4
EndSplineSet
Substitution2: "'c2sc' Capitals to Small Capitals in Latin lookup 17 subtable" f.smcp
EndChar

StartChar: K
Encoding: 75 75 43
Width: 660
VWidth: 0
Flags: W
HStem: 0 21G<45 230 407.357 641> 712 20G<45 229 407.653 641>
VStem: 45 184<0 280 444 732>
DStem2: 269 444 440 364 0.479353 0.877622<11.7597 324.179> 440 364 269 280 0.483395 -0.875402<0 308.012>
LayerCount: 2
Fore
SplineSet
45 0 m 1
 45 732 l 1
 229 732 l 1
 229 444 l 1
 269 444 l 1
 418 732 l 1
 641 732 l 1
 440 364 l 5
 641 0 l 1
 418 0 l 1
 269 280 l 1
 230 280 l 9
 230 0 l 17
 45 0 l 1
EndSplineSet
Validated: 1
Substitution2: "'c2sc' Capitals to Small Capitals in Latin lookup 17 subtable" k.smcp
EndChar

StartChar: T
Encoding: 84 84 44
Width: 607
VWidth: 0
Flags: W
HStem: 0 21G<204 398> 558 174<20 204 398 588>
VStem: 204 194<0 558>
LayerCount: 2
Fore
SplineSet
20 558 m 5
 20 732 l 5
 588 732 l 5
 588 558 l 5
 398 558 l 5
 398 0 l 5
 204 0 l 5
 204 558 l 5
 20 558 l 5
EndSplineSet
Validated: 1
Substitution2: "'c2sc' Capitals to Small Capitals in Latin lookup 17 subtable" t.smcp
EndChar

StartChar: P
Encoding: 80 80 45
Width: 620
VWidth: 0
Flags: W
HStem: 0 21G<44 238> 567 165<238 389.347>
VStem: 44 194<0 268 412 567> 401 195<423.257 558.1>
LayerCount: 2
Fore
SplineSet
44 0 m 1
 44 732 l 1
 370 732 l 2
 472 732 596 707 596 495 c 0
 596 260 462 241 370 248 c 0
 330 251 243 265 238 268 c 1
 238 0 l 1
 44 0 l 1
238 412 m 2
 350 412 l 2
 388 412 401 441 401 492 c 1
 401 542 385 567 350 567 c 2
 238 567 l 1
 238 412 l 2
EndSplineSet
Validated: 33
Substitution2: "'c2sc' Capitals to Small Capitals in Latin lookup 17 subtable" p.smcp
EndChar

StartChar: R
Encoding: 82 82 46
Width: 619
VWidth: 0
Flags: W
HStem: 0 21G<44 238 384.741 613> 567 165<239 389.038>
VStem: 44 194<0 273 419 567> 400 195<425.453 559.489>
LayerCount: 2
Fore
SplineSet
44 0 m 1
 44 732 l 1
 371 732 l 2
 501 732 595 679 595 497 c 0
 595 323 538 297 487 277 c 1
 613 0 l 1
 392 0 l 1
 298 259 l 1
 238 273 l 1
 238 0 l 1
 44 0 l 1
239 419 m 1
 346 419 l 2
 397 419 400 445 400 497 c 0
 400 541 390 567 346 567 c 2
 239 567 l 1
 239 419 l 1
EndSplineSet
Validated: 1
Substitution2: "'c2sc' Capitals to Small Capitals in Latin lookup 17 subtable" r.smcp
EndChar

StartChar: U
Encoding: 85 85 47
Width: 655
VWidth: 0
Flags: W
HStem: -5 174<265.231 400.811> 712 20G<45 239 427 622>
VStem: 45 194<198.775 732> 427 195<201.891 732>
LayerCount: 2
Fore
SplineSet
45 320 m 2
 45 732 l 1
 239 732 l 1
 239 320 l 2
 239 226 241 169 336 169 c 3
 425 169 427 230 427 320 c 2
 427 732 l 1
 622 732 l 1
 622 320 l 2
 622 -3 457 -5 336 -5 c 3
 200 -5 45 -13 45 320 c 2
EndSplineSet
Validated: 33
Substitution2: "'c2sc' Capitals to Small Capitals in Latin lookup 17 subtable" u.smcp
EndChar

StartChar: B
Encoding: 66 66 48
Width: 611
VWidth: 0
Flags: W
HStem: 0 164<239 395.995> 306 154<239 385.564> 568 164<239 384.334>
VStem: 45 194<164 306 460 568> 393 190<466.792 560.868> 407 194<172.264 297.599>
LayerCount: 2
Fore
SplineSet
45 0 m 1xf4
 45 732 l 1
 363 732 l 2
 519 732 583 656 583 532 c 0xf8
 583 470 548 386 476 380 c 1
 551 368 601 300 601 224 c 0
 601 60 522 0 368 0 c 2
 45 0 l 1xf4
239 164 m 1
 358 164 l 2
 396 164 407 190 407 234 c 0xf4
 407 271 397 306 358 306 c 9
 239 306 l 1
 239 164 l 1
239 460 m 1
 348 460 l 2
 378 460 393 483 393 511 c 0xf8
 393 555 370 568 348 568 c 2
 239 568 l 1
 239 460 l 1
EndSplineSet
Validated: 1
Substitution2: "'c2sc' Capitals to Small Capitals in Latin lookup 17 subtable" b.smcp
EndChar

StartChar: N
Encoding: 78 78 49
Width: 677
VWidth: 0
Flags: W
HStem: 0 21G<45 240 438.462 644> 712 20G<45 252.176 450 644>
VStem: 45 195<0 364> 450 194<358 732>
LayerCount: 2
Fore
SplineSet
45 0 m 5
 45 732 l 5
 241 732 l 5
 450 358 l 5
 450 732 l 5
 644 732 l 5
 644 0 l 4
 450 0 l 5
 240 364 l 5
 240 0 l 5
 45 0 l 5
EndSplineSet
Validated: 1
AlternateSubs2: "'salt' Access All Alternates in Latin lookup 4-1" N.salt
Substitution2: "'c2sc' Capitals to Small Capitals in Latin lookup 17 subtable" n.smcp
EndChar

StartChar: X
Encoding: 88 88 50
Width: 679
VWidth: 0
Flags: W
HStem: 0 21G<28 253.408 434.796 660> 712 20G<25 250.345 439.655 665>
LayerCount: 2
Fore
SplineSet
25 732 m 1
 240 732 l 1
 345 529 l 5
 450 732 l 1
 665 732 l 1
 442 363 l 1
 660 0 l 1
 445 0 l 1
 345 196 l 1
 243 0 l 1
 28 0 l 1
 247 363 l 1
 25 732 l 1
EndSplineSet
Validated: 1
AlternateSubs2: "'salt' Access All Alternates in Latin lookup 4-1" X.salt
Substitution2: "'c2sc' Capitals to Small Capitals in Latin lookup 17 subtable" x.smcp
EndChar

StartChar: Z
Encoding: 90 90 51
Width: 552
VWidth: 0
Flags: W
HStem: 0 174<277 533> 558 174<20 306>
LayerCount: 2
Fore
SplineSet
20 0 m 1
 20 174 l 1
 306 558 l 1
 20 558 l 1
 20 732 l 1
 533 732 l 1
 533 558 l 1
 277 174 l 1
 533 174 l 1
 533 0 l 1
 20 0 l 1
EndSplineSet
Validated: 1
Substitution2: "'c2sc' Capitals to Small Capitals in Latin lookup 17 subtable" z.smcp
EndChar

StartChar: Y
Encoding: 89 89 52
Width: 679
VWidth: 0
Flags: W
HStem: 0 21G<240 434> 712 20G<25 242.481 447.025 665>
VStem: 240 194<0 200>
LayerCount: 2
Fore
SplineSet
25 732 m 5
 236 732 l 5
 341 408 l 5
 454 732 l 5
 665 732 l 5
 434 200 l 5
 434 0 l 5
 240 0 l 5
 240 200 l 5
 25 732 l 5
EndSplineSet
Validated: 1
Substitution2: "'c2sc' Capitals to Small Capitals in Latin lookup 17 subtable" y.smcp
EndChar

StartChar: AE
Encoding: 198 198 59
Width: 981
VWidth: 0
Flags: W
HStem: -3 179<662.609 951.106> 14 162<662.609 956> 272 181<657 815.455> 281 161<747.545 906> 553 179<661.838 950.463> 553 163<661.913 956>
DStem2: 17 0 232 0 0.440697 0.897656<94.7499 281.677 463.267 623.477>
LayerCount: 2
Fore
SplineSet
17 0 m 1x80
 288 552 l 2
 369 717 510 739 649 732 c 2x88
 649 732 839 732 956 716 c 1
 956 553 l 1x04
 709 553 l 2
 657 553 657 524 657 497 c 2
 657 453 l 1x28
 906 442 l 1
 906 281 l 1x10
 657 272 l 1
 657 228 l 2
 657 175 690 176 719 176 c 2xa0
 956 176 l 1
 956 14 l 1x40
 853 0 659 -3 659 -3 c 2
 589 -7 463 8 463 121 c 2
 463 167 l 1
 316 167 l 1
 232 0 l 1
 17 0 l 1x80
394 331 m 1
 463 331 l 1
 463 482 l 1
 394 331 l 1
EndSplineSet
Validated: 33
EndChar

StartChar: Eth
Encoding: 208 208 61
Width: 667
VWidth: 0
Flags: W
HStem: 0 164<239 410.924> 336 74<-20 45 239 328> 568 164<239 415.012>
VStem: 45 194<164 336 410 568> 443 194<199.043 534.435>
LayerCount: 2
Fore
SplineSet
-20 336 m 1
 -20 410 l 1
 45 410 l 1
 45 732 l 1
 388 732 l 2
 587 732 637 570 637 363 c 0
 637 107 555 0 388 0 c 2
 45 0 l 1
 45 336 l 1
 -20 336 l 1
239 164 m 1
 368 164 l 2
 425 164 443 223 443 364 c 0
 443 545 415 568 368 568 c 2
 239 568 l 1
 239 410 l 1
 328 410 l 1
 328 336 l 1
 239 336 l 1
 239 164 l 1
EndSplineSet
Validated: 1
Substitution2: "'c2sc' Capitals to Small Capitals in Latin lookup 17 subtable" eth.smcp
EndChar

StartChar: Oslash
Encoding: 216 216 76
Width: 682
VWidth: 0
Flags: W
HStem: -4 174<271.666 422.349> 563 174<272.447 420.349>
VStem: 46 194<297.964 523.068> 458 194<214.117 467.387>
DStem2: 31 0 117 0 0.582812 0.812607<50.1219 99.5277 360.484 627.059 859.746 900.805>
LayerCount: 2
Fore
SplineSet
46 361 m 4
 46 704 181 737 349 737 c 0
 420 737 484 731 534 701 c 1
 556 732 l 1
 642 732 l 1
 586 654 l 1
 627 599 652 509 652 361 c 0
 652 38 529 -4 349 -4 c 0
 268 -4 198 2 146 40 c 1
 117 0 l 1
 31 0 l 1
 98 93 l 1
 65 147 46 231 46 361 c 4
240 361 m 0
 240 335 240 313 241 293 c 1
 422 545 l 1
 406 559 382 563 349 563 c 0
 261 563 240 540 240 361 c 0
262 202 m 1
 278 178 304 170 349 170 c 0
 435 170 458 206 458 361 c 0
 458 406 457 441 453 469 c 1
 262 202 l 1
EndSplineSet
Validated: 1
Substitution2: "'c2sc' Capitals to Small Capitals in Latin lookup 17 subtable" oslash.smcp
EndChar

StartChar: ae
Encoding: 230 230 88
Width: 820
VWidth: 0
Flags: W
HStem: -5 143<216.584 293.35 464 771.049> 217 113<246 298 517 602.688> 399 142<84.3721 292.935 519.168 602.293>
VStem: 298 219<157.578 217 330 395.404> 604 194<332.674 398.447>
LayerCount: 2
Fore
SplineSet
22 143 m 2
 22 174 l 2
 22 249 57 330 196 330 c 2
 196 330 298 329 298 330 c 2
 298 330 299 346 298 347 c 0
 298 400 276 399 236 399 c 0
 196 399 40 387 40 387 c 1
 40 501 l 1
 109 534 169 541 268 541 c 1
 324 539 387 531 418 511 c 1
 462 531 502 535 554 535 c 1
 731 535 798 507 798 349 c 0
 798 240 736 217 640 217 c 2
 517 217 l 1
 517 145 564 138 638 138 c 0
 710 138 713 138 788 149 c 1
 788 23 l 1
 718 -9 581 -5 498 -5 c 0
 430 -5 387 18 360 63 c 1
 342 22 250 -8 186 -6 c 0
 60 -1 22 87 22 143 c 2
216 170 m 2
 216 129 239 138 258 138 c 0
 299 138 298 171 298 171 c 1
 298 221 l 1
 246 216 l 2
 214 213 216 187 216 171 c 2
 216 170 l 2
517 330 m 1
 574 330 l 2
 591 330 604 343 604 362 c 0
 604 398 602 401 568 401 c 0
 526 401 515 406 517 330 c 1
EndSplineSet
Validated: 33
Substitution2: "'smcp' Lowercase to Small Capitals lookup 16-1" ae.smcp
EndChar

StartChar: ccedilla
Encoding: 231 231 89
Width: 490
VWidth: 0
Flags: W
HStem: -5 144<153.5 438.605> 392 144<152 418.938>
VStem: 28 194<154.718 376.781>
LayerCount: 2
Fore
SplineSet
28 266 m 0
 28 474 101 536 203 536 c 3
 255 536 359 541 461 500 c 1
 461 386 l 1
 461 386 401 392 312 392 c 3
 244 392 222 394 222 264 c 3
 222 142 240 139 312 139 c 3
 404 139 468 147 468 147 c 1
 468 33 l 17
 393 -20 286 -4 203 -5 c 0
 104 -5 28 58 28 266 c 0
144 -105 m 25
 181 -90 l 17
 209 -78 209 -76 209 -38 c 1
 326 -38 l 17
 326 -140 297 -184 205 -184 c 2
 144 -184 l 9
 144 -105 l 25
EndSplineSet
Validated: 33
Substitution2: "'smcp' Lowercase to Small Capitals lookup 16-1" ccedilla.smcp
EndChar

StartChar: eth
Encoding: 240 240 98
Width: 543
VWidth: 0
Flags: W
HStem: 0 176<219.908 323.318> 357 174<222.602 315.038> 628 155<72 191.193>
VStem: 22 194<179.152 352.603> 326 194<178.768 352.837>
DStem2: 152 600 184 544 0.870109 0.492859<0.243387 48.3732 273.865 328.694>
LayerCount: 2
Fore
SplineSet
22 264 m 0
 22 434 81 531 216 531 c 2
 236 531 l 2
 242 531 296 531 316 526 c 1
 307 557 292 578 272 594 c 1
 184 544 l 1
 152 600 l 1
 194 624 l 1
 161 629 120 629 72 628 c 1
 72 783 l 1
 206 783 299 762 366 722 c 1
 438 762 l 1
 470 706 l 1
 422 679 l 1
 504 594 520 455 520 264 c 0
 520 65 433 0 326 0 c 2
 216 0 l 2
 79 0 22 85 22 264 c 0
216 264 m 0
 216 192 216 176 258 176 c 2
 286 176 l 2
 326 176 326 184 326 264 c 0
 326 352 326 357 286 357 c 2
 258 357 l 2
 224 357 216 342 216 264 c 0
EndSplineSet
Validated: 33
Substitution2: "'smcp' Lowercase to Small Capitals lookup 16-1" eth.smcp
EndChar

StartChar: oslash
Encoding: 248 248 105
Width: 592
VWidth: 0
Flags: W
HStem: -5 144<250.721 342.851> 392 144<248.501 343.21>
VStem: 48 194<252 386.093> 352 194<146.844 281>
DStem2: 89 72 114 0 0.646522 0.762896<-38.7654 1.72899 236.239 329.48 562.573 601.666>
LayerCount: 2
Fore
SplineSet
48 258 m 0
 48 475 113 536 297 536 c 0
 366 536 418 527 456 505 c 1
 478 531 l 1
 564 531 l 1
 504 460 l 1
 534 416 546 351 546 258 c 0
 546 61 488 -5 297 -5 c 0
 228 -5 175 5 137 27 c 1
 114 0 l 1
 28 0 l 1
 89 72 l 1
 60 114 48 175 48 258 c 0
242 258 m 0
 242 256 242 254 242 252 c 1
 344 372 l 1
 337 388 323 392 297 392 c 0
 238 392 242 372 242 258 c 0
250 160 m 1
 257 142 271 139 297 139 c 0
 352 139 352 147 352 258 c 0
 352 266 352 274 352 281 c 1
 250 160 l 1
EndSplineSet
Validated: 33
Substitution2: "'smcp' Lowercase to Small Capitals lookup 16-1" oslash.smcp
EndChar

StartChar: thorn
Encoding: 254 254 106
Width: 558
VWidth: 0
Flags: W
HStem: -15 139<255.82 436> 373 157<279.22 423.5> 762 20G<39 233>
VStem: 39 194<-270 19 128.59 367.369 475 782> 342 194<132.626 365.35>
LayerCount: 2
Fore
SplineSet
39 -270 m 1
 39 782 l 1
 233 782 l 1
 233 475 l 17
 272 508 305 530 364 530 c 3
 483 530 536 451 536 261 c 0
 536 93 508 -15 364 -15 c 3
 319 -15 268 -4 233 19 c 1
 233 -270 l 1
 39 -270 l 1
233 139 m 1
 243 128 273 124 298 124 c 1
 326 124 342 138 342 251 c 0
 342 360 327 373 298 373 c 3
 267 373 243 368 233 351 c 1
 233 139 l 1
EndSplineSet
Validated: 1
Substitution2: "'smcp' Lowercase to Small Capitals lookup 16-1" thorn.smcp
EndChar

StartChar: Thorn
Encoding: 222 222 113
Width: 538
VWidth: 0
Flags: W
HStem: 0 21G<34 228> 149 164<229.998 312.326> 424 164<228 311.592>
VStem: 34 194<0 168 313 424 588 729> 316 195<319.345 417.285>
LayerCount: 2
Fore
SplineSet
34 0 m 1
 34 243 34 486 34 729 c 1
 228 729 l 1
 228 588 l 1
 335 588 l 2
 414 588 511 554 511 375 c 0
 511 171 409 152 335 149 c 0
 289 147 271 147 228 168 c 1
 228 0 l 1
 34 0 l 1
228 313 m 2
 255 313 l 2
 307 313 316 317 316 372 c 1
 316 423 295 424 255 424 c 1
 228 424 l 1
 228 313 l 2
EndSplineSet
Validated: 33
Substitution2: "'c2sc' Capitals to Small Capitals in Latin lookup 17 subtable" thorn.smcp
EndChar

StartChar: uni00B5
Encoding: 181 181 114
Width: 584
VWidth: 0
Flags: W
HStem: 0 21G<370.692 545> 511 20G<51 245 351 545>
VStem: 51 194<-270 0.0117188 136.2 531> 351 194<146.379 531>
LayerCount: 2
Fore
SplineSet
51 191 m 1
 51 531 l 1
 245 531 l 1
 245 187 l 2
 245 145 256 135 278 135 c 0
 315 135 339 145 351 172 c 1
 351 531 l 1
 545 531 l 1
 545 0 l 1
 383 0 l 1
 351 52 l 1
 325 35 306 18 281 6 c 0
 271 1 259 -3 245 -6 c 1
 245 -270 l 1
 51 -270 l 1
 51 191 l 1
EndSplineSet
Validated: 1
EndChar

StartChar: germandbls
Encoding: 223 223 115
Width: 574
VWidth: 0
Flags: W
HStem: -8 144<259.516 433.5> 0 21G<34 228> 613 171<246.122 348.17>
VStem: 34 194<0 597.706> 261 184<315.129 390.844>
LayerCount: 2
Fore
SplineSet
34 0 m 1x78
 34 566 l 2
 34 682 113 784 287 784 c 3
 568 784 597 573 501 432 c 0
 475 394 445 380 445 348 c 3
 445 305 564 279 564 169 c 2
 564 152 l 2
 564 22 481 -8 386 -8 c 3
 318 -8 291 0 258 11 c 9
 258 142 l 17
 290 138 307 136 320 136 c 3xb8
 343 136 370 144 370 184 c 2
 370 190 l 1
 370 249 261 253 261 351 c 3
 261 415 289 442 323 476 c 0
 351 504 357 525 357 546 c 3
 357 602 335 613 297 613 c 3
 235 613 228 577 228 476 c 2
 228 0 l 1
 34 0 l 1x78
EndSplineSet
Validated: 33
Substitution2: "'smcp' Lowercase to Small Capitals lookup 16-1" germandbls.smcp
EndChar

StartChar: asciitilde
Encoding: 126 126 116
Width: 404
VWidth: 0
Flags: W
HStem: 531 106<197.944 327.294> 566 106<81.4548 213.157>
LayerCount: 2
Fore
SplineSet
28 598 m 21x80
 53 634 95 672 151 672 c 31x40
 195 672 217 637 257 637 c 5
 297 635 328 654 350 677 c 13
 376 603 l 21
 354 570 315 531 264 531 c 7x80
 221 531 187 566 148 566 c 7x40
 109 566 86 555 55 531 c 13
 28 598 l 21x80
EndSplineSet
Validated: 33
EndChar

StartChar: asciicircum
Encoding: 94 94 117
Width: 378
VWidth: 0
Flags: W
HStem: 531 140<128 140 239 259>
VStem: 28 322
LayerCount: 2
Fore
SplineSet
28 531 m 1
 128 671 l 1
 259 671 l 1
 350 531 l 1
 239 531 l 1
 190 582 l 1
 140 531 l 1
 28 531 l 1
128 671 m 1
259 671 m 1
EndSplineSet
Validated: 1
EndChar

StartChar: grave
Encoding: 96 96 118
Width: 244
VWidth: 0
Flags: W
HStem: 531 143<124 156>
VStem: 11 222
LayerCount: 2
Fore
SplineSet
11 674 m 29
 156 674 l 29
 233 531 l 29
 124 531 l 29
 11 674 l 29
EndSplineSet
Validated: 1
Substitution2: "'smcp' Lowercase to Small Capitals lookup 16-1" grave.smcp
EndChar

StartChar: dieresis
Encoding: 168 168 119
Width: 442
VWidth: 0
Flags: W
HStem: 516 131<45.3035 142.15 300.303 397.15>
VStem: 28 131<533.303 630.15> 283 131<533.303 630.15>
LayerCount: 2
Fore
SplineSet
28 582 m 4
 28 618 58 647 94 647 c 4
 130 647 159 618 159 582 c 4
 159 546 130 516 94 516 c 4
 58 516 28 546 28 582 c 4
283 582 m 4
 283 618 313 647 349 647 c 4
 385 647 414 618 414 582 c 4
 414 546 385 516 349 516 c 4
 313 516 283 546 283 582 c 4
EndSplineSet
Validated: 1
Substitution2: "'smcp' Lowercase to Small Capitals lookup 16-1" dieresis.smcp
EndChar

StartChar: acute
Encoding: 180 180 120
Width: 244
VWidth: 0
Flags: W
HStem: 531 143<88 120>
VStem: 11 222
LayerCount: 2
Fore
SplineSet
11 531 m 29
 88 674 l 29
 233 674 l 29
 120 531 l 29
 11 531 l 29
EndSplineSet
Validated: 1
Substitution2: "'smcp' Lowercase to Small Capitals lookup 16-1" acute.smcp
EndChar

StartChar: cedilla
Encoding: 184 184 121
Width: 238
VWidth: 0
Flags: W
HStem: -183 146<93 140.687>
VStem: 28 182<-141.233 -104>
LayerCount: 2
Fore
SplineSet
28 -104 m 25
 65 -89 l 17
 93 -77 93 -75 93 -37 c 1
 210 -37 l 17
 210 -139 181 -183 89 -183 c 2
 28 -183 l 9
 28 -104 l 25
EndSplineSet
Validated: 1
EndChar

StartChar: exclam
Encoding: 33 33 122
Width: 277
VWidth: 0
Flags: W
HStem: 0 165<54.1465 215.837> 711 20G<46 230>
VStem: 46 184<552.667 731> 54 162<0.104492 164.928> 63 146<196 374.333>
LayerCount: 2
Fore
SplineSet
54 23 m 6xd0
 54 140 l 6
 54 155 62 165 78 165 c 6
 193 165 l 6
 208 165 216 154 216 140 c 6
 216 23 l 6
 216 8 207 0 193 0 c 6
 78 0 l 6
 64 0 54 9 54 23 c 6xd0
46 731 m 5xe0
 230 731 l 5xe0
 209 196 l 5
 63 196 l 5xc8
 46 731 l 5xe0
EndSplineSet
Validated: 1
Substitution2: "'smcp' Lowercase to Small Capitals lookup 16-1" exclam.smcp
EndChar

StartChar: degree
Encoding: 176 176 123
Width: 259
VWidth: 0
Flags: W
HStem: 530 67<96.9484 162.568> 668 67<97.1135 161.23>
VStem: 28 66<600.538 665.133> 165 66<600.382 665.299>
LayerCount: 2
Fore
SplineSet
28 632 m 4
 28 689 74 735 130 735 c 4
 186 735 231 689 231 632 c 4
 231 575 186 530 130 530 c 4
 74 530 28 575 28 632 c 4
94 632 m 31
 94 612 110 597 130 597 c 31
 150 597 165 612 165 632 c 31
 165 652 150 668 130 668 c 31
 110 668 94 652 94 632 c 31
EndSplineSet
Validated: 1
Substitution2: "'smcp' Lowercase to Small Capitals lookup 16-1" degree.smcp
EndChar

StartChar: period
Encoding: 46 46 124
Width: 257
VWidth: 0
Flags: W
HStem: 0 165<48.1465 209.87>
VStem: 48 162<0.104492 164.884>
LayerCount: 2
Fore
SplineSet
48 23 m 6
 48 140 l 6
 48 155 56 165 72 165 c 6
 185 165 l 6
 203 165 210 156 210 140 c 6
 210 23 l 6
 210 5 199 0 185 0 c 6
 72 0 l 6
 58 0 48 9 48 23 c 6
EndSplineSet
Validated: 1
EndChar

StartChar: periodcentered
Encoding: 183 183 125
Width: 257
VWidth: 0
Flags: W
HStem: 305 165<48.1465 209.87>
VStem: 48 162<305.104 469.884>
LayerCount: 2
Fore
SplineSet
48 328 m 2
 48 445 l 2
 48 460 56 470 72 470 c 2
 185 470 l 2
 203 470 210 461 210 445 c 2
 210 328 l 2
 210 310 199 305 185 305 c 2
 72 305 l 2
 58 305 48 314 48 328 c 2
EndSplineSet
Validated: 1
Substitution2: "'smcp' Lowercase to Small Capitals lookup 16-1" periodcentered.smcp
EndChar

StartChar: comma
Encoding: 44 44 126
Width: 255
VWidth: 0
Flags: W
HStem: -88 62<53 82.8856>
VStem: 48 160<-49.9102 -26 0.146961 165.835>
LayerCount: 2
Fore
SplineSet
48 25 m 2
 48 139 l 2
 48 157 57 166 73 166 c 2
 184 166 l 2
 202 166 208 154 208 139 c 2
 208 -11 l 2
 208 -135 53 -88 53 -88 c 1
 53 -26 l 0
 83 -27 84 -15 84 -5 c 2
 84 0 l 1
 73 0 l 2
 59 0 48 8 48 25 c 2
EndSplineSet
Validated: 33
EndChar

StartChar: bullet
Encoding: 256 8226 127
Width: 307
VWidth: 0
Flags: W
HStem: 274 217<49.8127 258.484>
VStem: 48 212<275.452 489.326>
LayerCount: 2
Fore
SplineSet
48 306 m 6
 48 456 l 6
 48 477 59 491 81 491 c 6
 225 491 l 6
 250 491 260 478 260 456 c 6
 260 306 l 6
 260 282 245 274 225 274 c 6
 81 274 l 6
 61 274 48 286 48 306 c 6
EndSplineSet
Validated: 1
Substitution2: "'smcp' Lowercase to Small Capitals lookup 16-1" bullet.smcp
EndChar

StartChar: quoteleft
Encoding: 257 8216 128
Width: 250
VWidth: 0
Flags: W
HStem: 668 72<170.114 200>
VStem: 45 160<456.165 621.853 668 685.066>
LayerCount: 2
Fore
SplineSet
45 483 m 2
 45 643 l 2
 45 775 200 740 200 740 c 1
 200 668 l 0
 170 668 169 647 169 637 c 2
 169 622 l 1
 180 622 l 2
 194 622 205 614 205 597 c 2
 205 483 l 2
 205 465 196 456 180 456 c 2
 69 456 l 2
 51 456 45 468 45 483 c 2
EndSplineSet
Validated: 33
Substitution2: "'smcp' Lowercase to Small Capitals lookup 16-1" quoteleft.smcp
EndChar

StartChar: quoteright
Encoding: 258 8217 129
Width: 250
VWidth: 0
Flags: W
HStem: 460 72<50 79.8856>
VStem: 45 160<514.934 532 578.147 743.835> 81 124<534.158 578>
LayerCount: 2
Fore
SplineSet
45 603 m 2xc0
 45 717 l 2
 45 735 54 744 70 744 c 2
 181 744 l 2
 199 744 205 732 205 717 c 2xc0
 205 557 l 2
 205 425 50 460 50 460 c 1
 50 532 l 0
 80 532 81 553 81 563 c 2
 81 578 l 1xa0
 70 578 l 2
 56 578 45 586 45 603 c 2xc0
EndSplineSet
Validated: 33
Substitution2: "'smcp' Lowercase to Small Capitals lookup 16-1" quoteright.smcp
EndChar

StartChar: quotesinglbase
Encoding: 259 8218 130
Width: 250
VWidth: 0
Flags: W
HStem: -118 72<50 79.8856>
VStem: 45 160<-63.0664 -46 0.146961 165.835> 81 124<-43.8423 0>
LayerCount: 2
Fore
SplineSet
45 25 m 6xc0
 45 139 l 6
 45 157 54 166 70 166 c 6
 181 166 l 6
 199 166 205 154 205 139 c 6xc0
 205 -21 l 6
 205 -153 50 -118 50 -118 c 5
 50 -46 l 4
 80 -46 81 -25 81 -15 c 6
 81 0 l 5xa0
 70 0 l 6
 56 0 45 8 45 25 c 6xc0
EndSplineSet
Validated: 33
Substitution2: "'smcp' Lowercase to Small Capitals lookup 16-1" quotesinglbase.smcp
EndChar

StartChar: quotedblleft
Encoding: 260 8220 131
Width: 432
VWidth: 0
Flags: W
HStem: 666 72<166.114 196 357.114 387>
VStem: 41 160<454.165 619.853 666 683.066> 232 160<454.165 619.853 666 683.066>
LayerCount: 2
Fore
SplineSet
232 481 m 6
 232 641 l 6
 232 773 387 738 387 738 c 5
 387 666 l 4
 357 666 356 645 356 635 c 6
 356 620 l 5
 367 620 l 6
 381 620 392 612 392 595 c 6
 392 481 l 6
 392 463 383 454 367 454 c 6
 256 454 l 6
 238 454 232 466 232 481 c 6
41 481 m 6
 41 641 l 6
 41 773 196 738 196 738 c 5
 196 666 l 4
 166 666 165 645 165 635 c 6
 165 620 l 5
 176 620 l 6
 190 620 201 612 201 595 c 6
 201 481 l 6
 201 463 192 454 176 454 c 6
 65 454 l 6
 47 454 41 466 41 481 c 6
EndSplineSet
Validated: 33
Substitution2: "'smcp' Lowercase to Small Capitals lookup 16-1" quotedblleft.smcp
EndChar

StartChar: quotedblright
Encoding: 261 8221 132
Width: 432
VWidth: 0
Flags: W
HStem: 458 72<46 75.8856 237 266.886>
VStem: 41 160<512.934 530 576.147 741.835> 77 124<532.158 576> 232 160<512.934 530 576.147 741.835> 268 124<532.158 576>
LayerCount: 2
Fore
SplineSet
41 601 m 6xc0
 41 715 l 6
 41 733 50 742 66 742 c 6
 177 742 l 6
 195 742 201 730 201 715 c 6xc0
 201 555 l 6
 201 423 46 458 46 458 c 5
 46 530 l 4
 76 530 77 551 77 561 c 6
 77 576 l 5xa0
 66 576 l 6
 52 576 41 584 41 601 c 6xc0
232 601 m 6x90
 232 715 l 6
 232 733 241 742 257 742 c 6
 368 742 l 6
 386 742 392 730 392 715 c 6x90
 392 555 l 6
 392 423 237 458 237 458 c 5
 237 530 l 4
 267 530 268 551 268 561 c 6
 268 576 l 5x88
 257 576 l 6
 243 576 232 584 232 601 c 6x90
EndSplineSet
Validated: 33
Substitution2: "'smcp' Lowercase to Small Capitals lookup 16-1" quotedblright.smcp
EndChar

StartChar: quotedblbase
Encoding: 262 8222 133
Width: 432
VWidth: 0
Flags: W
HStem: -118 72<46 75.8856 237 266.886>
VStem: 41 160<-63.0664 -46 0.146961 165.835> 77 124<-43.8423 0> 232 160<-63.0664 -46 0.146961 165.835> 268 124<-43.8423 0>
LayerCount: 2
Fore
SplineSet
41 25 m 6xc0
 41 139 l 6
 41 157 50 166 66 166 c 6
 177 166 l 6
 195 166 201 154 201 139 c 6xc0
 201 -21 l 6
 201 -153 46 -118 46 -118 c 5
 46 -46 l 4
 76 -46 77 -25 77 -15 c 6
 77 0 l 5xa0
 66 0 l 6
 52 0 41 8 41 25 c 6xc0
232 25 m 6x90
 232 139 l 6
 232 157 241 166 257 166 c 6
 368 166 l 6
 386 166 392 154 392 139 c 6x90
 392 -21 l 6
 392 -153 237 -118 237 -118 c 5
 237 -46 l 4
 267 -46 268 -25 268 -15 c 6
 268 0 l 5x88
 257 0 l 6
 243 0 232 8 232 25 c 6x90
EndSplineSet
Validated: 33
Substitution2: "'smcp' Lowercase to Small Capitals lookup 16-1" quotedblbase.smcp
EndChar

StartChar: colon
Encoding: 58 58 134
Width: 257
VWidth: 0
Flags: W
HStem: 0 165<48.1465 209.87> 366 165<48.1465 209.87>
VStem: 48 162<0.104492 164.884 366.104 530.884>
LayerCount: 2
Fore
SplineSet
48 23 m 2
 48 140 l 2
 48 155 56 165 72 165 c 2
 185 165 l 2
 203 165 210 156 210 140 c 2
 210 23 l 2
 210 5 199 0 185 0 c 2
 72 0 l 2
 58 0 48 9 48 23 c 2
48 389 m 6
 48 506 l 6
 48 521 56 531 72 531 c 6
 185 531 l 6
 203 531 210 522 210 506 c 6
 210 389 l 6
 210 371 199 366 185 366 c 6
 72 366 l 6
 58 366 48 375 48 389 c 6
EndSplineSet
Validated: 1
EndChar

StartChar: semicolon
Encoding: 59 59 135
Width: 257
VWidth: 0
Flags: W
HStem: -88 62<53 82.8856> 366 165<48.1465 209.87>
VStem: 48 160<-41.5458 -26 0.146961 165.835 366.104 530.935>
LayerCount: 2
Fore
SplineSet
48 25 m 2
 48 139 l 2
 48 157 57 166 73 166 c 2
 184 166 l 2
 202 166 208 154 208 139 c 2
 208 -11 l 2
 208 -135 53 -88 53 -88 c 1
 53 -26 l 0
 83 -27 84 -15 84 -5 c 2
 84 0 l 1
 73 0 l 2
 59 0 48 8 48 25 c 2
48 389 m 2
 48 506 l 2
 48 521 56 531 72 531 c 2
 185 531 l 2
 203 531 210 522 210 506 c 2
 210 389 l 2
 210 371 199 366 185 366 c 2
 72 366 l 2
 58 366 48 375 48 389 c 2
EndSplineSet
Validated: 33
EndChar

StartChar: quotedbl
Encoding: 34 34 136
Width: 497
VWidth: 0
Flags: W
HStem: 531 201<60 222 276 440>
VStem: 48 184<586.833 732> 266 184<571.2 732>
LayerCount: 2
Fore
SplineSet
48 665 m 5
 48 732 l 5
 232 732 l 5
 232 665 l 5
 222 531 l 5
 60 531 l 5
 48 665 l 5
266 665 m 5
 266 732 l 5
 450 732 l 5
 450 665 l 5
 440 531 l 5
 276 531 l 5
 266 665 l 5
EndSplineSet
Validated: 1
Substitution2: "'smcp' Lowercase to Small Capitals lookup 16-1" quotedbl.smcp
EndChar

StartChar: exclamdown.alt
Encoding: 263 -1 137
Width: 277
VWidth: 0
Flags: W
HStem: 0 21G<46 230> 566 165<60.1629 221.854>
VStem: 46 184<0 178.333> 60 162<566.072 730.896> 67 146<356.667 535>
LayerCount: 2
Fore
SplineSet
60 591 m 2xd0
 60 708 l 2
 60 723 69 731 83 731 c 2
 198 731 l 2
 212 731 222 722 222 708 c 2
 222 591 l 2
 222 576 214 566 198 566 c 2
 83 566 l 2
 68 566 60 577 60 591 c 2xd0
46 0 m 1xe0
 67 535 l 1
 213 535 l 1xc8
 230 0 l 1
 46 0 l 1xe0
EndSplineSet
Validated: 1
EndChar

StartChar: zero
Encoding: 48 48 138
Width: 621
VWidth: 0
Flags: W
HStem: 0 174<240.998 382.259> 558 174<239.703 381.165>
VStem: 39 194<186.41 547.897> 388 194<180.979 549.701>
LayerCount: 2
Fore
SplineSet
39 192 m 14
 39 530 l 6
 39 660 108 732 233 732 c 6
 397 732 l 6
 542 732 582 644 582 540 c 30
 582 192 l 22
 582 73 516 0 396 0 c 6
 232 0 l 6
 102 0 39 72 39 192 c 14
233 233 m 6
 233 177 268 174 290 174 c 14
 332 174 l 22
 365 174 388 178 388 232 c 6
 388 500 l 6
 388 546 367 558 340 558 c 6
 283 558 l 6
 231 558 233 513 233 500 c 6
 233 233 l 6
EndSplineSet
Validated: 33
Substitution2: "'dnom' Denominators lookup 0 subtable" zero.denominator
Substitution2: "'sups' Superscript lookup 2 subtable" zerosuperior
Substitution2: "'onum' Oldstyle Figures in Latin lookup 5-1" zero.oldstyle
Substitution2: "'tnum' Tabular Numbers in Latin lookup 7-1" zero.tnum
Substitution2: "'numr' Numerators lookup 9 subtable" zero.numerator
Substitution2: "'zero' Slashed Zero lookup 20-1" uni0338
Substitution2: "'sinf' Scientific Inferiors lookup 3-1" zeroinferior
Substitution2: "'frac' Diagonal Fractions lookup 13-1" zero.numerator
Substitution2: "'smcp' Lowercase to Small Capitals lookup 16-1" zero.smcp
EndChar

StartChar: one
Encoding: 49 49 139
Width: 379
VWidth: 0
Flags: W
HStem: 0 21G<140 334> 712 20G<112.37 334>
VStem: 140 194<0 548>
LayerCount: 2
Fore
SplineSet
22 528 m 5
 22 651 l 5
 142 732 l 5
 334 732 l 5
 334 0 l 5
 140 0 l 5
 140 548 l 5
 22 528 l 5
EndSplineSet
Validated: 1
Substitution2: "'dnom' Denominators lookup 0 subtable" one.denominator
Substitution2: "'sups' Superscript lookup 2 subtable" onesuperior
Substitution2: "'onum' Oldstyle Figures in Latin lookup 5-1" one.oldstyle
Substitution2: "'tnum' Tabular Numbers in Latin lookup 7-1" one.tnum
Substitution2: "'numr' Numerators lookup 9 subtable" one.numerator
Substitution2: "'sinf' Scientific Inferiors lookup 3-1" oneinferior
Substitution2: "'frac' Diagonal Fractions lookup 13-1" one.numerator
Substitution2: "'smcp' Lowercase to Small Capitals lookup 16-1" one.smcp
EndChar

StartChar: two
Encoding: 50 50 140
Width: 582
VWidth: 0
Flags: W
HStem: 0 174<344 554> 567 175<64.2822 346.518> 567 145<22 150.75>
VStem: 360 194<450.526 552.77>
LayerCount: 2
Fore
SplineSet
22 567 m 6xb0
 22 712 l 5xb0
 104 730 182 742 326 742 c 7
 482 742 554 642 554 502 c 7
 554 364 406 230 344 174 c 13
 554 174 l 29
 554 0 l 29
 30 0 l 29
 30 168 l 21
 111 222 360 424 360 499 c 5
 360 560 327 567 246 567 c 6xd0
 22 567 l 6xb0
EndSplineSet
Validated: 1
Substitution2: "'dnom' Denominators lookup 0 subtable" two.denominator
Substitution2: "'sups' Superscript lookup 2 subtable" twosuperior
Substitution2: "'onum' Oldstyle Figures in Latin lookup 5-1" two.oldstyle
Substitution2: "'tnum' Tabular Numbers in Latin lookup 7-1" two.tnum
Substitution2: "'numr' Numerators lookup 9 subtable" two.numerator
Substitution2: "'sinf' Scientific Inferiors lookup 3-1" twoinferior
Substitution2: "'frac' Diagonal Fractions lookup 13-1" two.numerator
Substitution2: "'smcp' Lowercase to Small Capitals lookup 16-1" two.smcp
EndChar

StartChar: three
Encoding: 51 51 141
Width: 575
VWidth: 0
Flags: W
HStem: -7 175<44.0713 336.215> 21 147<24 126.447> 276 175<133.9 333.177> 560 174<38.2463 334.625> 560 146<17 118.492>
VStem: 340 194<175.368 265.988 459.484 551.659>
LayerCount: 2
Fore
SplineSet
17 560 m 1x2c
 17 706 l 1x2c
 105 737 228 736 345 734 c 0
 455 732 534 668 534 549 c 2
 534 510 l 2
 534 437 511 386 450 364 c 1
 513 344 534 286 534 210 c 2
 534 181 l 2
 534 60 460 -7 338 -7 c 0xb4
 224 -7 111 -10 23 21 c 1
 24 168 l 1x64
 242 168 l 2
 320 168 340 169 340 216 c 2
 340 225 l 2
 340 271 312 273 248 276 c 2
 85 283 l 2
 85 441 l 1
 248 451 l 2
 317 454 342 454 342 500 c 2
 342 509 l 2
 342 560 300 560 248 560 c 2xb4
 17 560 l 1x2c
EndSplineSet
Validated: 33
Substitution2: "'dnom' Denominators lookup 0 subtable" three.denominator
Substitution2: "'sups' Superscript lookup 2 subtable" threesuperior
Substitution2: "'onum' Oldstyle Figures in Latin lookup 5-1" three.oldstyle
Substitution2: "'tnum' Tabular Numbers in Latin lookup 7-1" three.tnum
Substitution2: "'numr' Numerators lookup 9 subtable" three.numerator
Substitution2: "'sinf' Scientific Inferiors lookup 3-1" threeinferior
Substitution2: "'frac' Diagonal Fractions lookup 13-1" three.numerator
Substitution2: "'smcp' Lowercase to Small Capitals lookup 16-1" three.smcp
EndChar

StartChar: four
Encoding: 52 52 142
Width: 635
VWidth: 0
Flags: W
HStem: 2 21G<370 564> 137 178<273 370> 712 20G<213.693 430>
VStem: 370 194<2 137 315 449>
LayerCount: 2
Fore
SplineSet
11 224 m 5
 222 732 l 5
 430 732 l 5
 273 315 l 5
 370 315 l 5
 370 449 l 5
 397 527 l 5
 564 527 l 5
 564 315 l 5
 624 315 l 5
 624 166 l 5
 564 137 l 5
 564 2 l 5
 370 2 l 5
 370 137 l 5
 45 137 l 5
 11 224 l 5
EndSplineSet
Validated: 1
Substitution2: "'dnom' Denominators lookup 0 subtable" four.denominator
Substitution2: "'sups' Superscript lookup 2 subtable" foursuperior
Substitution2: "'onum' Oldstyle Figures in Latin lookup 5-1" four.oldstyle
Substitution2: "'tnum' Tabular Numbers in Latin lookup 7-1" four.tnum
Substitution2: "'numr' Numerators lookup 9 subtable" four.numerator
Substitution2: "'sinf' Scientific Inferiors lookup 3-1" fourinferior
Substitution2: "'frac' Diagonal Fractions lookup 13-1" four.numerator
Substitution2: "'smcp' Lowercase to Small Capitals lookup 16-1" four.smcp
EndChar

StartChar: five
Encoding: 53 53 143
Width: 592
VWidth: 0
Flags: W
HStem: -4 179<55.3384 360.974> 20 155<43 225.408> 312 164<252.219 360.832> 558 174<255 529>
VStem: 366 194<181.808 304.347>
LayerCount: 2
Fore
SplineSet
43 20 m 5x78
 43 175 l 5x78
 307 175 l 6
 369 175 366 208 366 228 c 6
 366 259 l 6
 366 292 356 312 318 312 c 6
 274 312 l 6
 242 312 230 298 230 267 c 5
 44 267 l 5
 66 732 l 21
 529 732 l 5
 529 558 l 5
 255 558 l 29
 251 456 l 5
 277 472 303 475 316 476 c 4
 342 478 379 477 392 476 c 4
 508 466 560 386 560 280 c 6
 560 186 l 6
 560 49 455 -4 357 -4 c 7xb8
 233 -4 177 -3 43 20 c 5x78
EndSplineSet
Validated: 33
Substitution2: "'dnom' Denominators lookup 0 subtable" five.denominator
Substitution2: "'sups' Superscript lookup 2 subtable" fivesuperior
Substitution2: "'onum' Oldstyle Figures in Latin lookup 5-1" five.oldstyle
Substitution2: "'tnum' Tabular Numbers in Latin lookup 7-1" five.tnum
Substitution2: "'numr' Numerators lookup 9 subtable" five.numerator
Substitution2: "'sinf' Scientific Inferiors lookup 3-1" fiveinferior
Substitution2: "'frac' Diagonal Fractions lookup 13-1" five.numerator
Substitution2: "'smcp' Lowercase to Small Capitals lookup 16-1" five.smcp
EndChar

StartChar: six
Encoding: 54 54 144
Width: 597
VWidth: 0
Flags: W
HStem: -1 174<246.625 368.338> 294 164<232.731 369.224> 564 148<405.118 541>
VStem: 37 194<190.953 294 437 539.983> 371 194<175.261 289.085>
LayerCount: 2
Fore
SplineSet
37 384 m 4
 37 649 120 719 209 733 c 4
 309 749 448 732 541 712 c 5
 541 564 l 5
 322 564 l 6
 231 564 231 510 231 437 c 5
 268 456 300 458 384 458 c 5
 530 458 565 378 565 269 c 6
 565 178 l 6
 565 48 490 -1 374 -1 c 6
 236 -1 l 6
 114 -1 37 69 37 384 c 4
231 294 m 5
 231 188 246 173 311 173 c 6
 328 173 l 6
 361 173 371 182 371 219 c 6
 371 239 l 6
 371 282 370 294 333 294 c 6
 231 294 l 5
EndSplineSet
Validated: 33
Substitution2: "'dnom' Denominators lookup 0 subtable" six.denominator
Substitution2: "'sups' Superscript lookup 2 subtable" sixsuperior
Substitution2: "'onum' Oldstyle Figures in Latin lookup 5-1" six.oldstyle
Substitution2: "'tnum' Tabular Numbers in Latin lookup 7-1" six.tnum
Substitution2: "'numr' Numerators lookup 9 subtable" six.numerator
Substitution2: "'sinf' Scientific Inferiors lookup 3-1" sixinferior
Substitution2: "'frac' Diagonal Fractions lookup 13-1" six.numerator
Substitution2: "'smcp' Lowercase to Small Capitals lookup 16-1" six.smcp
EndChar

StartChar: seven
Encoding: 55 55 145
Width: 561
VWidth: 0
Flags: W
HStem: 0 21G<110 323.003> 558 174<17 308>
DStem2: 110 0 316 0 0.330479 0.943813<68.0787 592.083>
LayerCount: 2
Fore
SplineSet
17 558 m 1
 17 732 l 1
 498 732 l 5
 545 654 l 5
 316 0 l 5
 110 0 l 5
 308 558 l 5
 17 558 l 1
EndSplineSet
Validated: 1
Substitution2: "'dnom' Denominators lookup 0 subtable" seven.denominator
Substitution2: "'sups' Superscript lookup 2 subtable" sevensuperior
Substitution2: "'onum' Oldstyle Figures in Latin lookup 5-1" seven.oldstyle
Substitution2: "'tnum' Tabular Numbers in Latin lookup 7-1" seven.tnum
Substitution2: "'numr' Numerators lookup 9 subtable" seven.numerator
Substitution2: "'sinf' Scientific Inferiors lookup 3-1" seveninferior
Substitution2: "'frac' Diagonal Fractions lookup 13-1" seven.numerator
Substitution2: "'smcp' Lowercase to Small Capitals lookup 16-1" seven.smcp
EndChar

StartChar: percent
Encoding: 37 37 146
Width: 968
VWidth: 0
Flags: W
HStem: 3 125<694.988 815.285> 261 125<696.718 817.015> 349 125<151.985 271.285> 607 125<153.715 273.015>
VStem: 24 125<476.134 604.866> 276 125<476.134 604.866> 568 125<130.134 258.866> 820 125<134.041 258.866>
DStem2: 192 0 323 0 0.527074 0.849819<69.0467 861.359>
LayerCount: 2
Fore
SplineSet
24 484 m 6xbf
 24 597 l 6
 24 682 62 732 163 732 c 6
 264 732 l 6
 362 732 401 682 401 597 c 6
 401 484 l 22
 401 399 363 349 262 349 c 6
 161 349 l 6
 63 349 24 399 24 484 c 6xbf
149 514 m 6
 149 492 153 474 186 474 c 6
 237 474 l 6
 271 474 276 492 276 514 c 14
 276 567 l 6
 276 600 264 607 239 607 c 6
 188 607 l 6
 166 607 149 601 149 567 c 6
 149 514 l 6
192 0 m 5
 646 732 l 5
 770 732 l 5
 323 0 l 5
 192 0 l 5
568 138 m 6
 568 251 l 6
 568 336 605 386 706 386 c 6
 808 386 l 6xdf
 906 386 945 336 945 251 c 6
 945 138 l 22
 945 53 907 3 806 3 c 6
 704 3 l 6
 606 3 568 53 568 138 c 6
693 168 m 6
 693 146 697 128 730 128 c 6
 780 128 l 6
 814 128 820 146 820 168 c 14
 820 221 l 6
 820 254 807 261 782 261 c 6
 732 261 l 6
 710 261 693 255 693 221 c 6
 693 168 l 6
EndSplineSet
Validated: 1
Substitution2: "'smcp' Lowercase to Small Capitals lookup 16-1" percent.smcp
EndChar

StartChar: nine
Encoding: 57 57 147
Width: 597
VWidth: 0
Flags: W
HStem: 20 148<58 193.882> 274 164<229.776 366.269> 559 174<230.662 352.375>
VStem: 34 194<442.915 556.739> 368 194<192.017 295 438 541.047>
LayerCount: 2
Fore
SplineSet
34 463 m 6
 34 554 l 6
 34 684 109 733 225 733 c 6
 363 733 l 6
 485 733 562 663 562 348 c 4
 562 83 479 13 390 -1 c 4
 290 -17 151 0 58 20 c 5
 58 168 l 5
 277 168 l 6
 368 168 368 222 368 295 c 5
 331 276 299 274 215 274 c 5
 69 274 34 354 34 463 c 6
228 493 m 6
 228 450 229 438 266 438 c 6
 368 438 l 5
 368 544 353 559 288 559 c 6
 271 559 l 6
 238 559 228 550 228 513 c 6
 228 493 l 6
EndSplineSet
Validated: 33
Substitution2: "'dnom' Denominators lookup 0 subtable" nine.denominator
Substitution2: "'sups' Superscript lookup 2 subtable" ninesuperior
Substitution2: "'onum' Oldstyle Figures in Latin lookup 5-1" nine.oldstyle
Substitution2: "'tnum' Tabular Numbers in Latin lookup 7-1" nine.tnum
Substitution2: "'numr' Numerators lookup 9 subtable" nine.numerator
Substitution2: "'sinf' Scientific Inferiors lookup 3-1" nineinferior
Substitution2: "'frac' Diagonal Fractions lookup 13-1" nine.numerator
Substitution2: "'smcp' Lowercase to Small Capitals lookup 16-1" nine.smcp
EndChar

StartChar: eight
Encoding: 56 56 148
Width: 617
VWidth: 0
Flags: W
HStem: 0 164<239.092 379.689> 297 153<239.422 378.362> 573 164<239.125 378.031>
VStem: 42 194<169.681 293.077 452.408 570.484> 382 194<170.128 291.553 454.25 568.94>
LayerCount: 2
Fore
SplineSet
42 179 m 2
 42 232 l 2
 42 282 60 340 116 349 c 1
 42 386 42 438 42 499 c 2
 42 564 l 2
 42 704 135 737 238 737 c 2
 394 737 l 2
 512 737 576 691 576 563 c 2
 576 519 l 2
 576 492 566 412 501 403 c 1
 570 390 576 304 576 261 c 2
 576 185 l 2
 576 22 490 0 393 0 c 2
 238 0 l 2
 48 0 42 115 42 179 c 2
236 210 m 2
 236 175 248 164 283 164 c 2
 335 164 l 2
 379 164 382 182 382 210 c 2
 382 250 l 2
 382 276 376 297 337 297 c 2
 283 297 l 2
 241 297 236 277 236 250 c 2
 236 210 l 2
236 494 m 2
 236 455 249 450 283 450 c 2
 335 450 l 2
 379 450 382 464 382 494 c 2
 382 524 l 2
 382 572 359 573 335 573 c 2
 283 573 l 2
 253 573 236 570 236 524 c 2
 236 494 l 2
EndSplineSet
Validated: 1
Substitution2: "'dnom' Denominators lookup 0 subtable" eight.denominator
Substitution2: "'sups' Superscript lookup 2 subtable" eightsuperior
Substitution2: "'onum' Oldstyle Figures in Latin lookup 5-1" eight.oldstyle
Substitution2: "'tnum' Tabular Numbers in Latin lookup 7-1" eight.tnum
Substitution2: "'numr' Numerators lookup 9 subtable" eight.numerator
Substitution2: "'sinf' Scientific Inferiors lookup 3-1" eightinferior
Substitution2: "'frac' Diagonal Fractions lookup 13-1" eight.numerator
Substitution2: "'smcp' Lowercase to Small Capitals lookup 16-1" eight.smcp
EndChar

StartChar: quotesingle
Encoding: 39 39 149
Width: 256
VWidth: 0
Flags: W
HStem: 531 201<42 216>
VStem: 31 195<579.727 732>
LayerCount: 2
Fore
SplineSet
31 665 m 5
 31 732 l 5
 226 732 l 5
 226 665 l 5
 216 531 l 5
 42 531 l 5
 31 665 l 5
EndSplineSet
Validated: 1
Substitution2: "'smcp' Lowercase to Small Capitals lookup 16-1" quotesingle.smcp
EndChar

StartChar: onesuperior
Encoding: 185 185 150
Width: 270
VWidth: 100
Flags: W
VStem: 88 146<355 720>
LayerCount: 2
Fore
SplineSet
9 707 m 1
 9 787 l 1
 90 842 l 1
 234 842 l 1
 234 355 l 1
 88 355 l 1
 88 720 l 1
 9 707 l 1
EndSplineSet
Validated: 1
EndChar

StartChar: twosuperior
Encoding: 178 178 151
Width: 411
VWidth: 100
Flags: W
HStem: 355 131<236 388> 718 131<19.6706 239.046> 718 109<17 224.345>
VStem: 242 146<639.424 712.658>
LayerCount: 2
Fore
SplineSet
17 718 m 2xb0
 17 827 l 1xb0
 74 840 129 849 229 849 c 3
 338 849 388 785 388 696 c 3
 388 608 282 522 236 486 c 13
 388 486 l 25
 388 355 l 25
 21 355 l 25
 21 481 l 17
 75 513 242 634 242 678 c 1
 242 714 219 718 165 718 c 2xd0
 17 718 l 2xb0
EndSplineSet
Validated: 1
EndChar

StartChar: threesuperior
Encoding: 179 179 152
Width: 411
VWidth: 100
Flags: W
HStem: 350 131<23.8725 232> 371 110<22 229.758> 531 131<63 231.795> 536 119<63 171> 713 131<19.8776 233.919> 713 109<17 153.592>
VStem: 232 146<482.16 527.702 664.162 710.99>
LayerCount: 2
Fore
SplineSet
17 713 m 1x06
 17 822 l 1x06
 78 845 164 846 246 844 c 0
 323 843 378 799 378 720 c 2
 378 694 l 2
 378 645 361 612 315 597 c 1
 362 584 378 545 378 494 c 2
 378 475 l 2
 378 394 326 350 241 350 c 0x8a
 161 350 82 348 21 371 c 1
 22 481 l 1x42
 167 481 l 2
 219 481 232 481 232 503 c 2
 232 507 l 2
 232 528 214 530 171 531 c 2xa2
 63 536 l 2
 63 655 l 1x12
 171 662 l 2
 217 663 234 663 234 685 c 2
 234 689 l 2
 234 713 206 713 171 713 c 2x2a
 17 713 l 1x06
EndSplineSet
Validated: 33
EndChar

StartChar: ordmasculine
Encoding: 186 186 153
Width: 398
VWidth: 0
Flags: W
HStem: 258 78<32 367> 375 108<167.108 231.931> 627 108<167.182 231.53>
VStem: 17 146<485.497 625.683> 236 146<484.541 624.89>
LayerCount: 2
Fore
SplineSet
17 550 m 7
 17 694 64 735 199 735 c 7
 335 735 382 690 382 550 c 7
 382 419 339 375 199 375 c 7
 62 375 17 424 17 550 c 7
32 258 m 1
 32 336 l 5
 367 336 l 5
 367 258 l 1
 32 258 l 1
163 551 m 7
 163 491 167 483 199 483 c 7
 233 483 236 488 236 551 c 7
 236 616 236 627 199 627 c 7
 163 627 163 613 163 551 c 7
EndSplineSet
Validated: 1
Ligature2: "'ordn' Ordinals lookup 21-1" o
Substitution2: "'smcp' Lowercase to Small Capitals lookup 16-1" ordmasculine.smcp
EndChar

StartChar: ordfeminine
Encoding: 170 170 154
Width: 368
VWidth: 0
Flags: W
HStem: 258 78<17 352> 374 96<151 190.389> 631 107<46.6109 204.74>
VStem: 206 146<470.225 526 593.561 629.426>
LayerCount: 2
Fore
SplineSet
17 258 m 5
 17 336 l 5
 352 336 l 5
 352 258 l 5
 17 258 l 5
17 469 m 10
 17 495 l 2
 17 543 41 594 137 594 c 2
 137 594 206 593 206 594 c 0
 206 594 207 597 206 598 c 2
 206 632 191 631 163 631 c 3
 82 631 29 622 29 622 c 9
 29 708 l 17
 76 733 118 738 185 738 c 1
 290 738 352 715 352 616 c 2
 352 378 l 9
 236 378 l 25
 206 419 l 17
 200 403 179 372 130 374 c 0
 43 377 17 433 17 469 c 10
151 492 m 2
 151 468 166 470 179 470 c 0
 209 470 206 490 206 490 c 9
 206 526 l 17
 170 523 l 2
 148 521 151 506 151 496 c 2
 151 492 l 2
EndSplineSet
Validated: 33
Ligature2: "'ordn' Ordinals lookup 21-1" a
Substitution2: "'smcp' Lowercase to Small Capitals lookup 16-1" ordfeminine.smcp
EndChar

StartChar: slash
Encoding: 47 47 155
Width: 502
VWidth: 0
Flags: W
DStem2: 11 -72 210 -72 0.316566 0.948571<62.9966 887.651>
LayerCount: 2
Fore
SplineSet
11 -72 m 1
 292 770 l 1
 491 770 l 5
 210 -72 l 5
 11 -72 l 1
EndSplineSet
Validated: 1
Substitution2: "'numr' Numerators lookup 9 subtable" fraction
Substitution2: "'frac' Diagonal Fractions lookup 12-1" fraction
EndChar

StartChar: backslash
Encoding: 92 92 156
Width: 502
VWidth: 0
Flags: W
DStem2: 210 770 11 770 0.316566 -0.948571<0 824.655>
LayerCount: 2
Fore
SplineSet
11 770 m 5
 210 770 l 1
 491 -72 l 1
 292 -72 l 5
 11 770 l 5
EndSplineSet
Validated: 1
EndChar

StartChar: bar
Encoding: 124 124 157
Width: 250
VWidth: 0
Flags: W
VStem: 48 154<-72 770>
LayerCount: 2
Fore
SplineSet
48 -72 m 1
 48 770 l 1
 202 770 l 5
 202 -72 l 5
 48 -72 l 1
EndSplineSet
Validated: 1
EndChar

StartChar: underscore
Encoding: 95 95 158
Width: 674
VWidth: 0
Flags: W
HStem: -1 154<20 654>
LayerCount: 2
Fore
SplineSet
20 -1 m 1
 20 153 l 1
 654 153 l 1
 654 -1 l 1
 20 -1 l 1
EndSplineSet
Validated: 1
EndChar

StartChar: hyphen
Encoding: 45 45 159
Width: 354
VWidth: 0
Flags: W
HStem: 213 154<20 334>
VStem: 20 314<213 367>
LayerCount: 2
Fore
SplineSet
20 213 m 1
 20 367 l 1
 334 367 l 1
 334 213 l 1
 20 213 l 1
EndSplineSet
Validated: 1
Substitution2: "'case' Case-Sensitive Forms lookup 1-1" hyphen.alt
Substitution2: "'c2sc' Capitals to Small Capitals in Latin lookup 17 subtable" hyphen.smcp
Substitution2: "'smcp' Lowercase to Small Capitals lookup 16-1" hyphen.smcp
EndChar

StartChar: numbersign
Encoding: 35 35 160
Width: 749
VWidth: 0
Flags: W
HStem: 0 21G<116 251.854 337 472.874> 191 132<31 153 310 374 536 686> 409 132<66 194 352 420 572 720> 712 20G<253.126 389 472.23 608>
DStem2: 116 0 248 0 0.189146 0.981949<24.9673 195.533 354.846 416.371 575.873 745.456> 337 0 469 0 0.186557 0.982444<24.6255 194.549 354.454 417.304 575.343 745.081>
LayerCount: 2
Fore
SplineSet
11 192 m 1
 31 324 l 1
 178 324 l 1
 194 409 l 1
 45 409 l 1
 66 541 l 1
 220 541 l 1
 257 732 l 1
 389 732 l 5
 352 541 l 1
 440 541 l 1
 476 732 l 1
 608 732 l 1
 572 541 l 1
 739 541 l 1
 720 409 l 1
 552 409 l 1
 536 323 l 1
 704 323 l 1
 686 191 l 1
 506 191 l 1
 469 0 l 1
 337 0 l 1
 374 191 l 1
 285 192 l 1
 248 0 l 1
 116 0 l 1
 153 192 l 1
 11 192 l 1
310 324 m 1
 404 323 l 1
 420 409 l 1
 326 409 l 1
 310 324 l 1
EndSplineSet
Validated: 1
Substitution2: "'smcp' Lowercase to Small Capitals lookup 16-1" numbersign.smcp
EndChar

StartChar: dollar
Encoding: 36 36 161
Width: 566
VWidth: 0
Flags: W
HStem: -8 174<91.9424 233> 267 194<228.833 338.94>
VStem: 233 108<-90 -8 738 824>
LayerCount: 2
Fore
SplineSet
31 479 m 2
 31 540 l 2
 31 684 122 734 233 738 c 5
 233 824 l 5
 341 824 l 5
 341 738 l 5
 414 735 456 724 509 705 c 1
 509 554 l 1
 445 561 365 564 299 564 c 0
 245 564 225 562 225 520 c 2
 225 509 l 2
 225 478 231 461 285 461 c 2
 349 461 l 2
 501 461 536 329 536 249 c 2
 536 216 l 2
 536 35 438 -6 341 -8 c 5
 341 -90 l 5
 233 -90 l 5
 233 -8 l 5
 145 -7 132 0 54 26 c 1
 54 177 l 1
 94 173 190 166 283 166 c 0
 326 166 342 177 342 207 c 2
 342 223 l 2
 342 252 333 267 289 267 c 2
 229 267 l 2
 39 267 31 432 31 479 c 2
EndSplineSet
Validated: 1
Substitution2: "'smcp' Lowercase to Small Capitals lookup 16-1" dollar.smcp
EndChar

StartChar: zerosuperior
Encoding: 264 8304 162
Width: 462
VWidth: 100
Flags: W
HStem: 355 131<181.628 281.932> 711 131<179.864 281.81>
VStem: 34 146<487.887 710.124> 283 146<486.812 710.025>
LayerCount: 2
Fore
SplineSet
34 483 m 10
 34 708 l 2
 34 794 84 842 175 842 c 2
 294 842 l 2
 399 842 429 783 429 714 c 26
 429 483 l 18
 429 404 381 355 294 355 c 2
 174 355 l 2
 79 355 34 403 34 483 c 10
180 521 m 2
 180 488 204 486 218 486 c 10
 246 486 l 18
 268 486 283 488 283 520 c 2
 283 677 l 2
 283 704 269 711 251 711 c 2
 213 711 l 2
 174 711 180 685 180 677 c 2
 180 521 l 2
EndSplineSet
Validated: 33
EndChar

StartChar: foursuperior
Encoding: 265 8308 163
Width: 442
VWidth: 100
Flags: W
HStem: 435 134<184 248>
VStem: 248 146<357 435 569 656>
DStem2: 9 500 184 569 0.381158 0.92451<130.494 369.926>
LayerCount: 2
Fore
SplineSet
9 500 m 1
 150 842 l 1
 293 842 l 1
 184 569 l 1
 248 569 l 1
 248 656 l 1
 269 707 l 1
 394 707 l 1
 394 569 l 1
 434 569 l 1
 434 457 l 1
 394 453 l 1
 394 357 l 1
 248 357 l 1
 248 435 l 1
 32 435 l 1
 9 500 l 1
EndSplineSet
Validated: 1
EndChar

StartChar: fivesuperior
Encoding: 266 8309 164
Width: 414
VWidth: 100
Flags: W
HStem: 352 134<35.3664 246.284> 370 116<31 242.981> 532 21G<32 156> 555 123<171.41 245.766> 711 131<172 369>
LayerCount: 2
Fore
SplineSet
31 370 m 1x78
 31 486 l 1x78
 207 486 l 2
 253 486 246 503 246 513 c 2
 246 528 l 2
 246 545 240 555 214 555 c 2
 185 555 l 2
 164 555 156 548 156 532 c 1
 32 532 l 1
 47 842 l 17
 369 842 l 1
 369 711 l 1
 172 711 l 25
 170 663 l 1
 200 682 235 682 271 678 c 4
 355 671 392 617 392 545 c 2
 392 481 l 2
 392 388 319 352 251 352 c 3xb8
 164 352 125 353 31 370 c 1x78
EndSplineSet
Validated: 33
EndChar

StartChar: sixsuperior
Encoding: 267 8310 165
Width: 438
VWidth: 99
Flags: W
HStem: 355 131<180.043 268.995> 545 123<177.17 268.979> 719 111<183.568 397>
VStem: 30 146<495.495 545 652 709.457> 269 146<486.207 542.455>
LayerCount: 2
Fore
SplineSet
30 611 m 0
 30 788 90 835 155 844 c 0
 228 856 329 843 397 830 c 1
 397 719 l 1
 241 719 l 2
 176 719 176 690 176 652 c 1
 201 666 223 668 279 668 c 1
 389 668 415 613 415 539 c 2
 415 477 l 2
 415 388 361 355 276 355 c 2
 175 355 l 2
 86 355 30 401 30 611 c 0
176 545 m 1
 176 493 186 486 229 486 c 2
 240 486 l 2
 262 486 269 490 269 508 c 2
 269 518 l 2
 269 539 269 545 244 545 c 2
 176 545 l 1
EndSplineSet
Validated: 33
EndChar

StartChar: sevensuperior
Encoding: 268 8311 166
Width: 423
VWidth: 100
Flags: W
HStem: 711 131<8 225>
DStem2: 72 355 230 355 0.394955 0.9187<62.4029 387.485>
LayerCount: 2
Fore
SplineSet
8 711 m 1
 8 842 l 1
 378 842 l 1
 414 783 l 1
 230 355 l 1
 72 355 l 1
 225 711 l 1
 8 711 l 1
EndSplineSet
Validated: 1
EndChar

StartChar: eightsuperior
Encoding: 269 8312 167
Width: 462
VWidth: 100
Flags: W
HStem: 355 123<183.053 279.97> 547 115<183.041 279.949> 723 123<183.032 279.956>
VStem: 37 146<478.462 546.283 662.792 722.805> 280 146<478.457 546.42 663.515 722.799>
LayerCount: 2
Fore
SplineSet
37 474 m 2
 37 509 l 2
 37 542 51 580 93 586 c 1
 37 611 37 646 37 687 c 2
 37 730 l 2
 37 824 105 846 180 846 c 2
 293 846 l 2
 379 846 426 816 426 732 c 2
 426 703 l 2
 426 685 419 633 370 627 c 1
 422 618 426 560 426 531 c 2
 426 480 l 2
 426 370 363 355 293 355 c 2
 180 355 l 2
 41 355 37 432 37 474 c 2
183 502 m 2
 183 484 191 478 214 478 c 2
 249 478 l 2
 278 478 280 488 280 502 c 2
 280 523 l 2
 280 537 276 547 250 547 c 2
 214 547 l 2
 186 547 183 537 183 523 c 2
 183 502 l 2
183 684 m 2
 183 665 191 662 214 662 c 2
 249 662 l 2
 278 662 280 669 280 684 c 2
 280 699 l 2
 280 723 265 723 249 723 c 2
 214 723 l 2
 194 723 183 722 183 699 c 2
 183 684 l 2
EndSplineSet
Validated: 1
EndChar

StartChar: ninesuperior
Encoding: 270 8313 168
Width: 438
VWidth: 100
Flags: W
HStem: 361 112<43 256.432> 530 124<171.123 262.831> 719 131<171.084 259.521>
VStem: 264 146<484.917 546 654 711.734>
LayerCount: 2
Fore
SplineSet
25 662 m 2
 25 725 l 2
 25 816 80 850 165 850 c 2
 265 850 l 2
 354 850 410 802 410 586 c 0
 410 404 350 357 285 347 c 0
 212 335 111 348 43 361 c 1
 43 473 l 1
 199 473 l 2
 264 473 264 504 264 546 c 1
 239 532 218 530 162 530 c 1
 52 530 25 586 25 662 c 2
171 684 m 2
 171 661 172 654 197 654 c 2
 264 654 l 1
 264 711 254 719 211 719 c 2
 200 719 l 2
 178 719 171 714 171 694 c 2
 171 684 l 2
EndSplineSet
Validated: 33
EndChar

StartChar: zeroinferior
Encoding: 271 8320 169
Width: 462
VWidth: 0
Flags: W
HStem: -200 131<181.628 281.932> 156 131<179.864 281.81>
VStem: 34 146<-67.1131 155.124> 283 146<-68.1875 155.025>
LayerCount: 2
Fore
SplineSet
34 -72 m 10
 34 153 l 2
 34 239 84 287 175 287 c 2
 294 287 l 2
 399 287 429 228 429 159 c 26
 429 -72 l 18
 429 -151 381 -200 294 -200 c 2
 174 -200 l 2
 79 -200 34 -152 34 -72 c 10
180 -34 m 2
 180 -67 204 -69 218 -69 c 10
 246 -69 l 18
 268 -69 283 -67 283 -35 c 2
 283 122 l 2
 283 149 269 156 251 156 c 2
 213 156 l 2
 174 156 180 130 180 122 c 2
 180 -34 l 2
EndSplineSet
Validated: 33
EndChar

StartChar: oneinferior
Encoding: 272 8321 170
Width: 270
VWidth: 0
Flags: W
VStem: 88 146<-200 165>
LayerCount: 2
Fore
SplineSet
9 152 m 1
 9 232 l 1
 90 287 l 1
 234 287 l 1
 234 -200 l 1
 88 -200 l 1
 88 165 l 1
 9 152 l 1
EndSplineSet
Validated: 1
EndChar

StartChar: twoinferior
Encoding: 273 8322 171
Width: 417
VWidth: 0
Flags: W
HStem: -200 131<237 394> 163 131<19.7167 242.231> 163 109<17 227.253>
VStem: 248 146<86.6553 157.484>
LayerCount: 2
Fore
SplineSet
17 163 m 2xb0
 17 272 l 1xb0
 75 285 130 294 232 294 c 3
 343 294 394 230 394 141 c 3
 394 53 284 -33 237 -69 c 9
 394 -69 l 25
 394 -200 l 25
 21 -200 l 25
 21 -74 l 17
 76 -42 248 79 248 124 c 1
 248 159 225 163 169 163 c 2xd0
 17 163 l 2xb0
EndSplineSet
Validated: 1
EndChar

StartChar: threeinferior
Encoding: 274 8323 172
Width: 417
VWidth: 0
Flags: W
HStem: -205 131<23.9655 238> -184 110<22 237.41> -24 131<77 237.778> -19 118<63 161> 158 131<19.9252 239.916> 158 109<17 156.15>
VStem: 238 146<-72.6887 -27.2984 109.162 155.99>
LayerCount: 2
Fore
SplineSet
17 158 m 1x06
 17 267 l 1x06
 79 290 167 291 250 289 c 0
 328 288 384 245 384 165 c 2
 384 139 l 2
 384 90 367 57 321 42 c 1
 368 29 384 -10 384 -61 c 2
 384 -80 l 2
 384 -160 332 -205 245 -205 c 0x8a
 164 -205 84 -207 21 -184 c 1
 22 -74 l 1x42
 171 -74 l 2
 224 -74 238 -74 238 -52 c 2
 238 -48 l 2
 238 -27 219 -25 175 -24 c 2xa2
 63 -19 l 2
 63 99 l 1x12
 175 107 l 2
 223 108 240 108 240 130 c 2
 240 134 l 2
 240 158 211 158 175 158 c 2x2a
 17 158 l 1x06
EndSplineSet
Validated: 33
EndChar

StartChar: fourinferior
Encoding: 275 8324 173
Width: 448
VWidth: 0
Flags: W
HStem: -120 134<194 254>
VStem: 254 146<-198 -120 14 101>
DStem2: 9 -55 194 14 0.381158 0.92451<134.305 369.926>
LayerCount: 2
Fore
SplineSet
9 -55 m 1
 150 287 l 1
 299 287 l 1
 194 14 l 5
 254 14 l 1
 254 101 l 1
 275 152 l 1
 400 152 l 1
 400 14 l 1
 440 14 l 1
 440 -98 l 1
 400 -102 l 1
 400 -198 l 1
 254 -198 l 1
 254 -120 l 1
 32 -120 l 1
 9 -55 l 1
EndSplineSet
Validated: 1
EndChar

StartChar: fiveinferior
Encoding: 276 8325 174
Width: 418
VWidth: 0
Flags: W
HStem: -203 134<35.4125 250.218> -185 116<31 248.91> 0 123<172.411 249.766> 156 131<174 373>
VStem: 250 146<-67.6153 -3.30362>
LayerCount: 2
Fore
SplineSet
32 -11 m 1xb8
 47 287 l 17
 373 287 l 1
 373 156 l 1
 174 156 l 25
 171 108 l 1
 201 127 237 127 274 123 c 4
 359 116 396 62 396 -10 c 2
 396 -74 l 2
 396 -167 322 -203 253 -203 c 3xb8
 165 -203 126 -202 31 -185 c 1
 31 -69 l 1x78
 210 -69 l 2
 256 -69 250 -52 250 -42 c 2
 250 -27 l 2
 250 -10 244 0 218 0 c 2
 188 0 l 2
 167 0 158 -3 158 -11 c 1
 32 -11 l 1xb8
EndSplineSet
Validated: 33
EndChar

StartChar: sixinferior
Encoding: 277 8326 175
Width: 438
VWidth: 0
Flags: W
HStem: -200 131<180.043 268.995> -10 123<177.169 268.979> 164 111<183.568 397>
VStem: 30 146<-59.5047 -10 97 154.457> 269 146<-68.793 -12.5453>
LayerCount: 2
Fore
SplineSet
30 56 m 0
 30 233 90 280 155 289 c 0
 228 301 329 288 397 275 c 1
 397 164 l 1
 241 164 l 2
 176 164 176 135 176 97 c 1
 201 111 222 113 279 113 c 1
 389 113 415 58 415 -16 c 2
 415 -78 l 2
 415 -167 361 -200 276 -200 c 2
 175 -200 l 2
 86 -200 30 -154 30 56 c 0
176 -10 m 1
 176 -62 186 -69 229 -69 c 2
 240 -69 l 2
 262 -69 269 -65 269 -47 c 2
 269 -37 l 2
 269 -16 269 -10 244 -10 c 2
 176 -10 l 1
EndSplineSet
Validated: 33
EndChar

StartChar: seveninferior
Encoding: 278 8327 176
Width: 423
VWidth: 0
Flags: W
HStem: 156 131<8 225>
DStem2: 72 -200 230 -200 0.394955 0.9187<62.4029 387.485>
LayerCount: 2
Fore
SplineSet
8 156 m 1
 8 287 l 1
 378 287 l 1
 414 228 l 1
 230 -200 l 1
 72 -200 l 1
 225 156 l 1
 8 156 l 1
EndSplineSet
Validated: 1
EndChar

StartChar: eightinferior
Encoding: 279 8328 177
Width: 462
VWidth: 0
Flags: W
HStem: -200 123<183.053 279.97> -8 115<183.041 279.949> 168 123<183.032 279.956>
VStem: 37 146<-76.5377 -8.7168 107.792 167.805> 280 146<-76.543 -8.57977 108.515 167.799>
LayerCount: 2
Fore
SplineSet
37 -46 m 2
 37 -13 50 25 93 31 c 1
 37 56 37 91 37 132 c 2
 37 175 l 2
 37 269 105 291 180 291 c 2
 293 291 l 2
 379 291 426 261 426 177 c 2
 426 148 l 2
 426 130 418 78 370 72 c 1
 421 63 426 5 426 -24 c 2
 426 -75 l 2
 426 -185 363 -200 293 -200 c 2
 180 -200 l 2
 41 -200 37 -123 37 -81 c 2
 37 -46 l 2
183 -32 m 2
 183 -53 l 2
 183 -71 191 -77 214 -77 c 2
 249 -77 l 2
 278 -77 280 -67 280 -53 c 2
 280 -32 l 2
 280 -18 276 -8 250 -8 c 2
 214 -8 l 2
 186 -8 183 -18 183 -32 c 2
183 129 m 2
 183 110 191 107 214 107 c 2
 249 107 l 2
 278 107 280 114 280 129 c 2
 280 144 l 2
 280 168 265 168 249 168 c 2
 214 168 l 2
 194 168 183 167 183 144 c 2
 183 129 l 2
EndSplineSet
Validated: 1
EndChar

StartChar: nineinferior
Encoding: 280 8329 178
Width: 438
VWidth: 0
Flags: W
HStem: -194 112<43 256.432> -25 124<171.123 262.831> 164 131<171.084 259.521>
VStem: 264 146<-73.0198 -9 99 158.044>
LayerCount: 2
Fore
SplineSet
25 107 m 2
 25 170 l 2
 25 261 80 295 165 295 c 2
 265 295 l 2
 354 295 410 248 410 33 c 0
 410 -147 350 -195 285 -205 c 0
 212 -217 111 -204 43 -194 c 1
 43 -82 l 1
 199 -82 l 2
 264 -82 264 -51 264 -9 c 1
 239 -23 218 -25 162 -25 c 1
 52 -25 25 31 25 107 c 2
171 129 m 2
 171 106 172 99 197 99 c 2
 264 99 l 1
 264 156 254 164 211 164 c 2
 200 164 l 2
 178 164 171 159 171 139 c 2
 171 129 l 2
EndSplineSet
Validated: 33
EndChar

StartChar: zero.oldstyle
Encoding: 281 -1 179
Width: 621
VWidth: 0
Flags: W
HStem: 0 174<240.998 382.259> 459 174<239.703 381.165>
VStem: 39 194<186.41 448.897> 388 194<180.979 450.701>
LayerCount: 2
Fore
SplineSet
39 192 m 10
 39 431 l 2
 39 561 108 633 233 633 c 2
 397 633 l 2
 542 633 582 545 582 441 c 26
 582 192 l 18
 582 73 516 0 396 0 c 2
 232 0 l 2
 102 0 39 72 39 192 c 10
233 233 m 2
 233 177 268 174 290 174 c 10
 332 174 l 18
 365 174 388 178 388 232 c 2
 388 401 l 2
 388 447 367 459 340 459 c 2
 283 459 l 2
 231 459 233 414 233 401 c 2
 233 233 l 2
EndSplineSet
Validated: 33
Substitution2: "'tnum' Tabular Numbers in Latin lookup 7-1" zero.tosf
Substitution2: "'lnum' Lining Figures lookup 19-1" zero
EndChar

StartChar: one.oldstyle
Encoding: 282 -1 180
Width: 376
VWidth: 0
Flags: W
HStem: 0 21G<135 329>
VStem: 135 194<0 447>
LayerCount: 2
Fore
SplineSet
17 427 m 1
 17 550 l 1
 137 632 l 1
 329 632 l 1
 329 0 l 1
 135 0 l 1
 135 447 l 1
 17 427 l 1
EndSplineSet
Validated: 1
Substitution2: "'tnum' Tabular Numbers in Latin lookup 7-1" one.tosf
Substitution2: "'lnum' Lining Figures lookup 19-1" one
EndChar

StartChar: two.oldstyle
Encoding: 283 -1 181
Width: 583
VWidth: 0
Flags: W
HStem: 0 174<357 555> 467 175<65.2822 348.385> 467 145<23 151.75>
VStem: 361 194<375.487 456.466>
LayerCount: 2
Fore
SplineSet
23 467 m 2xb0
 23 612 l 1xb0
 105 630 183 642 327 642 c 3
 483 642 555 582 555 442 c 3
 555 304 413 208 357 174 c 9
 555 174 l 25
 555 0 l 25
 30 0 l 25
 30 168 l 17
 117 216 361 344 361 419 c 1
 361 466 327 467 246 467 c 2xd0
 23 467 l 2xb0
EndSplineSet
Validated: 1
Substitution2: "'tnum' Tabular Numbers in Latin lookup 7-1" two.tosf
Substitution2: "'lnum' Lining Figures lookup 19-1" two
EndChar

StartChar: three.oldstyle
Encoding: 284 -1 182
Width: 586
VWidth: 0
Flags: W
HStem: -102 175<55.0713 347.215> -74 147<35 137.447> 181 175<144.9 344.177> 465 174<49.2463 345.625> 465 146<28 129.492>
VStem: 351 194<80.3677 170.988 364.484 456.659>
LayerCount: 2
Fore
SplineSet
28 465 m 1x2c
 28 611 l 1x2c
 116 642 239 641 356 639 c 0
 466 637 545 573 545 454 c 2
 545 415 l 2
 545 342 522 291 461 269 c 1
 524 249 545 191 545 115 c 2
 545 86 l 2
 545 -35 471 -102 349 -102 c 0xb4
 235 -102 122 -105 34 -74 c 1
 35 73 l 1x64
 253 73 l 2
 331 73 351 74 351 121 c 2
 351 130 l 2
 351 176 323 178 259 181 c 2
 96 188 l 2
 96 346 l 1
 259 356 l 2
 328 359 353 359 353 405 c 2
 353 414 l 2
 353 465 311 465 259 465 c 2xb4
 28 465 l 1x2c
EndSplineSet
Validated: 33
Substitution2: "'tnum' Tabular Numbers in Latin lookup 7-1" three.tosf
Substitution2: "'lnum' Lining Figures lookup 19-1" three
EndChar

StartChar: four.oldstyle
Encoding: 285 -1 183
Width: 635
VWidth: 0
Flags: W
HStem: 37 178<273 370>
VStem: 370 194<-98 37 215 349>
LayerCount: 2
Fore
SplineSet
11 124 m 1
 222 632 l 1
 430 632 l 1
 273 215 l 1
 370 215 l 1
 370 349 l 1
 397 427 l 1
 564 427 l 1
 564 215 l 1
 624 215 l 1
 624 66 l 1
 564 37 l 1
 564 -98 l 1
 370 -98 l 1
 370 37 l 1
 45 37 l 1
 11 124 l 1
EndSplineSet
Validated: 1
Substitution2: "'tnum' Tabular Numbers in Latin lookup 7-1" four.tosf
Substitution2: "'lnum' Lining Figures lookup 19-1" four
EndChar

StartChar: five.oldstyle
Encoding: 286 -1 184
Width: 602
VWidth: 0
Flags: W
HStem: -104 179<55.3384 360.974> -80 155<43 225.408> 212 164<252.219 360.832> 458 174<255 529>
VStem: 366 194<81.8077 204.347>
LayerCount: 2
Fore
SplineSet
43 75 m 1x78
 307 75 l 2
 369 75 366 108 366 128 c 2
 366 159 l 2
 366 192 356 212 318 212 c 2
 274 212 l 2
 242 212 230 198 230 167 c 1
 44 167 l 1
 66 632 l 17
 529 632 l 1
 529 458 l 1
 255 458 l 25
 251 356 l 1
 277 372 303 375 316 376 c 0
 342 378 379 377 392 376 c 0
 508 366 560 286 560 180 c 2
 560 86 l 2
 560 -51 455 -104 357 -104 c 3xb8
 233 -104 177 -103 43 -80 c 1
 43 75 l 1x78
EndSplineSet
Validated: 33
Substitution2: "'tnum' Tabular Numbers in Latin lookup 7-1" five.tosf
Substitution2: "'lnum' Lining Figures lookup 19-1" five
EndChar

StartChar: six.oldstyle
Encoding: 287 -1 185
Width: 597
VWidth: 0
Flags: W
HStem: -1 174<246.625 368.338> 294 164<232.731 369.224> 564 148<405.118 541>
VStem: 37 194<190.953 294 437 539.983> 371 194<175.261 289.085>
LayerCount: 2
Fore
SplineSet
37 384 m 0
 37 649 120 719 209 733 c 0
 309 749 448 732 541 712 c 1
 541 564 l 1
 322 564 l 2
 231 564 231 510 231 437 c 1
 268 456 300 458 384 458 c 1
 530 458 565 378 565 269 c 2
 565 178 l 2
 565 48 490 -1 374 -1 c 2
 236 -1 l 2
 114 -1 37 69 37 384 c 0
231 294 m 1
 231 188 246 173 311 173 c 2
 328 173 l 2
 361 173 371 182 371 219 c 2
 371 239 l 2
 371 282 370 294 333 294 c 2
 231 294 l 1
EndSplineSet
Validated: 33
Substitution2: "'tnum' Tabular Numbers in Latin lookup 7-1" six.tosf
Substitution2: "'lnum' Lining Figures lookup 19-1" six
EndChar

StartChar: seven.oldstyle
Encoding: 288 -1 186
Width: 561
VWidth: 0
Flags: W
HStem: 458 174<17 308>
DStem2: 110 -100 316 -100 0.330479 0.943813<68.0787 592.083>
LayerCount: 2
Fore
SplineSet
17 458 m 1
 17 632 l 1
 498 632 l 1
 545 554 l 1
 316 -100 l 1
 110 -100 l 1
 308 458 l 1
 17 458 l 1
EndSplineSet
Validated: 1
Substitution2: "'tnum' Tabular Numbers in Latin lookup 7-1" seven.tosf
Substitution2: "'lnum' Lining Figures lookup 19-1" seven
EndChar

StartChar: eight.oldstyle
Encoding: 289 -1 187
Width: 617
VWidth: 0
Flags: W
HStem: 0 164<239.092 379.689> 297 153<239.422 378.362> 573 164<239.125 378.031>
VStem: 42 194<169.681 293.077 452.408 570.484> 382 194<170.128 291.553 454.25 568.94>
LayerCount: 2
Fore
SplineSet
42 179 m 2
 42 232 l 2
 42 282 60 340 116 349 c 1
 42 386 42 438 42 499 c 2
 42 564 l 2
 42 704 135 737 238 737 c 2
 394 737 l 2
 512 737 576 691 576 563 c 2
 576 519 l 2
 576 492 566 412 501 403 c 1
 570 390 576 304 576 261 c 2
 576 185 l 2
 576 22 490 0 393 0 c 2
 238 0 l 2
 48 0 42 115 42 179 c 2
236 210 m 2
 236 175 248 164 283 164 c 2
 335 164 l 2
 379 164 382 182 382 210 c 2
 382 250 l 2
 382 276 376 297 337 297 c 2
 283 297 l 2
 241 297 236 277 236 250 c 2
 236 210 l 2
236 494 m 2
 236 455 249 450 283 450 c 2
 335 450 l 2
 379 450 382 464 382 494 c 2
 382 524 l 2
 382 572 359 573 335 573 c 2
 283 573 l 2
 253 573 236 570 236 524 c 2
 236 494 l 2
EndSplineSet
Validated: 1
Substitution2: "'tnum' Tabular Numbers in Latin lookup 7-1" eight.tosf
Substitution2: "'lnum' Lining Figures lookup 19-1" eight
EndChar

StartChar: nine.oldstyle
Encoding: 290 -1 188
Width: 597
VWidth: 0
Flags: W
HStem: -80 148<58 193.882> 174 164<229.776 366.269> 459 174<230.662 352.375>
VStem: 34 194<342.915 456.739> 368 194<92.0173 195 338 441.047>
LayerCount: 2
Fore
SplineSet
34 363 m 2
 34 454 l 2
 34 584 109 633 225 633 c 2
 363 633 l 2
 485 633 562 563 562 248 c 0
 562 -17 479 -87 390 -101 c 0
 290 -117 151 -100 58 -80 c 1
 58 68 l 1
 277 68 l 2
 368 68 368 122 368 195 c 1
 331 176 299 174 215 174 c 1
 69 174 34 254 34 363 c 2
228 393 m 2
 228 350 229 338 266 338 c 2
 368 338 l 1
 368 444 353 459 288 459 c 2
 271 459 l 2
 238 459 228 450 228 413 c 2
 228 393 l 2
EndSplineSet
Validated: 33
Substitution2: "'tnum' Tabular Numbers in Latin lookup 7-1" nine.tosf
Substitution2: "'lnum' Lining Figures lookup 19-1" nine
EndChar

StartChar: ampersand
Encoding: 38 38 189
Width: 715
VWidth: 0
Flags: W
HStem: 0 21G<460.476 703> 566 144<390.445 493>
LayerCount: 2
Fore
SplineSet
55 82 m 0
 -13 185 21 296 106 372 c 2
 162 422 l 1
 120 487 l 1
 41 594 120 715 207 730 c 0
 329 752 421 727 493 710 c 1
 493 566 l 1
 360 566 l 2
 292 566 306 536 340 488 c 2
 454 328 l 1
 582 438 l 1
 652 350 l 1
 585 242 l 1
 550 199 l 1
 703 0 l 1
 475 0 l 1
 414 84 l 1
 354 33 l 2
 296 -16 132 -35 55 82 c 0
212 194 m 0
 228 175 251 156 284 190 c 2
 310 217 l 1
 254 290 l 1
 224 261 l 18
 192 231 200 209 212 194 c 0
EndSplineSet
Validated: 33
AlternateSubs2: "'salt' Access All Alternates in Latin lookup 4-1" ampersand.salt
Substitution2: "'smcp' Lowercase to Small Capitals lookup 16-1" ampersand.smcp
EndChar

StartChar: asterisk
Encoding: 42 42 190
Width: 418
VWidth: 0
Flags: W
HStem: 566 70<28 79.2105>
VStem: 28 144<566 636>
LayerCount: 2
Fore
SplineSet
28 566 m 5
 28 636 l 5
 167 655 l 5
 172 561 l 5
 28 566 l 5
76 418 m 5
 101 556 l 5
 192 532 l 5
 143 397 l 5
 76 418 l 5
157 722 m 5
 224 744 l 5
 285 618 l 5
 197 584 l 5
 157 722 l 5
176 459 m 5
 227 538 l 5
 341 449 l 5
 299 393 l 5
 176 459 l 5
230 571 m 5
 349 652 l 5
 390 595 l 5
 289 498 l 5
 230 571 l 5
EndSplineSet
Validated: 1
Substitution2: "'smcp' Lowercase to Small Capitals lookup 16-1" asterisk.smcp
EndChar

StartChar: Euro
Encoding: 291 8364 191
Width: 623
VWidth: 0
Flags: W
HStem: -6 154<295.515 557.617> 238 101<273 506.828> 245 87<11 79 273.033 507> 380 100<273 507> 388 83<11 63.8889 325 507> 576 164<289.501 542.036>
VStem: 79 194<171.22 238 339 380 480 556.231>
LayerCount: 2
Fore
SplineSet
11 245 m 1xa6
 11 332 l 1xa6
 79 339 l 1
 79 380 l 1xd6
 11 388 l 1
 11 471 l 1x8e
 79 480 l 1
 79 552 89 740 333 740 c 3
 385 740 522 732 608 700 c 1
 608 561 l 2
 608 561 475 576 393 576 c 3
 272 576 273 547 273 480 c 1
 507 473 l 1
 507 387 l 1
 273 380 l 1
 273 339 l 1xd6
 507 332 l 1
 507 245 l 1xa6
 507 245 270 240 273 238 c 1
 273 147 335 148 393 148 c 27
 479 148 612 175 612 175 c 1
 612 39 l 1
 544 0 456 -6 333 -6 c 3
 256 -6 79 12 79 238 c 1xc6
 11 245 l 1xa6
EndSplineSet
Validated: 33
Substitution2: "'smcp' Lowercase to Small Capitals lookup 16-1" Euro.smcp
EndChar

StartChar: parenleft
Encoding: 40 40 192
Width: 413
VWidth: 60
Flags: W
VStem: 42 194<131.409 509.413>
LayerCount: 2
Fore
SplineSet
42 326 m 4
 42 692 231 860 231 860 c 5
 402 860 l 5
 402 860 236 616 236 326 c 7
 236 10 402 -210 402 -210 c 5
 231 -210 l 5
 231 -210 42 -71 42 326 c 4
EndSplineSet
Validated: 1
Substitution2: "'smcp' Lowercase to Small Capitals lookup 16-1" parenleft.smcp
Substitution2: "'case' Case-Sensitive Forms lookup 1-1" parenleft.alt
Substitution2: "'c2sc' Capitals to Small Capitals in Latin lookup 17 subtable" parenleft.smcp
EndChar

StartChar: parenright
Encoding: 41 41 193
Width: 413
VWidth: 60
Flags: W
VStem: 177 194<131.409 509.413>
LayerCount: 2
Fore
SplineSet
11 -210 m 5
 11 -210 177 10 177 326 c 7
 177 616 11 860 11 860 c 5
 182 860 l 5
 182 860 371 692 371 326 c 4
 371 -71 182 -210 182 -210 c 5
 11 -210 l 5
EndSplineSet
Validated: 1
Substitution2: "'smcp' Lowercase to Small Capitals lookup 16-1" parenright.smcp
Substitution2: "'case' Case-Sensitive Forms lookup 1-1" parenright.alt
Substitution2: "'c2sc' Capitals to Small Capitals in Latin lookup 17 subtable" parenright.smcp
EndChar

StartChar: plus
Encoding: 43 43 194
Width: 456
VWidth: 0
Flags: W
HStem: 279 154<20 150 304 436>
VStem: 150 154<148 279 433 564>
LayerCount: 2
Fore
SplineSet
20 279 m 5
 20 433 l 5
 150 433 l 5
 150 564 l 5
 304 564 l 5
 304 433 l 5
 436 433 l 5
 436 279 l 5
 304 279 l 5
 304 148 l 5
 150 148 l 5
 150 279 l 5
 20 279 l 5
EndSplineSet
Validated: 1
EndChar

StartChar: endash
Encoding: 292 8211 195
Width: 513
VWidth: 0
Flags: W
HStem: 210 155<20 493>
LayerCount: 2
Fore
SplineSet
20 210 m 1
 20 365 l 1
 493 365 l 1
 493 210 l 1
 20 210 l 1
EndSplineSet
Validated: 1
Substitution2: "'case' Case-Sensitive Forms lookup 1-1" endash.alt
Substitution2: "'c2sc' Capitals to Small Capitals in Latin lookup 17 subtable" endash.smcp
Substitution2: "'smcp' Lowercase to Small Capitals lookup 16-1" endash.smcp
EndChar

StartChar: emdash
Encoding: 293 8212 196
Width: 736
VWidth: 0
Flags: W
HStem: 212 155<20 716>
LayerCount: 2
Fore
SplineSet
20 212 m 5
 20 367 l 1
 716 367 l 1
 716 212 l 5
 20 212 l 5
EndSplineSet
Validated: 1
Substitution2: "'case' Case-Sensitive Forms lookup 1-1" emdash.alt
Substitution2: "'c2sc' Capitals to Small Capitals in Latin lookup 17 subtable" emdash.smcp
Substitution2: "'smcp' Lowercase to Small Capitals lookup 16-1" emdash.smcp
EndChar

StartChar: less
Encoding: 60 60 197
Width: 431
VWidth: 0
Flags: W
LayerCount: 2
Fore
SplineSet
28 266 m 5
 28 436 l 5
 403 566 l 5
 403 396 l 5
 218 353 l 5
 403 300 l 5
 403 130 l 5
 28 266 l 5
EndSplineSet
Validated: 1
EndChar

StartChar: equal
Encoding: 61 61 198
Width: 467
VWidth: 0
Flags: W
HStem: 162 154<20 447> 381 154<20 447>
VStem: 20 427<162 316 381 535>
LayerCount: 2
Fore
SplineSet
20 162 m 5
 20 316 l 5
 447 316 l 5
 447 162 l 5
 20 162 l 5
20 381 m 1
 20 535 l 1
 447 535 l 1
 447 381 l 1
 20 381 l 1
EndSplineSet
Validated: 1
EndChar

StartChar: greater
Encoding: 62 62 199
Width: 431
VWidth: 0
Flags: W
LayerCount: 2
Fore
SplineSet
28 130 m 1
 28 300 l 1
 213 353 l 1
 28 396 l 1
 28 566 l 1
 403 436 l 1
 403 266 l 1
 28 130 l 1
EndSplineSet
Validated: 1
EndChar

StartChar: multiply
Encoding: 215 215 200
Width: 465
VWidth: 0
Flags: W
DStem2: 140 557 32 448 0.708306 -0.705905<0.446594 131.26 285.671 416.225> 32 263 141 154 0.705905 0.708306<0 129.846 284.257 416.225>
LayerCount: 2
Fore
SplineSet
32 263 m 1
 124 355 l 1
 32 448 l 1
 140 557 l 1
 233 464 l 1
 326 558 l 1
 435 449 l 1
 342 355 l 1
 435 263 l 1
 326 154 l 1
 233 246 l 1
 141 154 l 1
 32 263 l 1
EndSplineSet
Validated: 1
EndChar

StartChar: divide
Encoding: 247 247 201
Width: 483
VWidth: 0
Flags: W
HStem: 117 125<165.146 306.87> 276 154<28 455> 460 125<165.146 306.87>
VStem: 165 142<117.104 241.884 460.104 584.884>
LayerCount: 2
Fore
SplineSet
28 276 m 1
 28 430 l 1
 455 430 l 1
 455 276 l 1
 28 276 l 1
165 140 m 2
 165 217 l 2
 165 232 173 242 189 242 c 2
 282 242 l 2
 300 242 307 233 307 217 c 2
 307 140 l 2
 307 122 296 117 282 117 c 2
 189 117 l 2
 175 117 165 126 165 140 c 2
165 483 m 2
 165 560 l 2
 165 575 173 585 189 585 c 2
 282 585 l 2
 300 585 307 576 307 560 c 2
 307 483 l 2
 307 465 296 460 282 460 c 2
 189 460 l 2
 175 460 165 469 165 483 c 2
EndSplineSet
Validated: 1
EndChar

StartChar: question
Encoding: 63 63 202
Width: 544
VWidth: 0
Flags: W
HStem: 0 165<155.146 316.87> 195 222<164 308.53> 564 175<43.0918 313.88> 564 145<11 111.817>
VStem: 155 162<0.104492 164.884> 164 145<195 276> 329 193<435.1 547.829>
LayerCount: 2
Fore
SplineSet
11 564 m 6xd6
 11 709 l 5xd6
 97 732 178 744 293 739 c 5
 445 739 522 632 522 534 c 6
 522 483 l 6
 522 348 475 270 309 276 c 5
 309 195 l 5
 164 195 l 5
 164 417 l 5
 256 417 l 4
 305 419 329 434 329 487 c 6
 329 502 l 6
 329 546 299 564 242 564 c 6xe6
 11 564 l 6xd6
155 23 m 6xca
 155 140 l 6
 155 155 163 165 179 165 c 6
 292 165 l 6
 310 165 317 156 317 140 c 6
 317 23 l 6
 317 5 306 0 292 0 c 6
 179 0 l 6
 165 0 155 9 155 23 c 6xca
EndSplineSet
Validated: 33
Substitution2: "'smcp' Lowercase to Small Capitals lookup 16-1" question.smcp
EndChar

StartChar: bracketleft
Encoding: 91 91 203
Width: 344
VWidth: 60
Flags: W
HStem: -210 154<254.944 334> 688 154<254.944 334>
VStem: 48 194<-40.0738 675.484>
LayerCount: 2
Fore
SplineSet
48 12 m 6
 48 640 l 6
 48 772 105 842 244 842 c 6
 334 842 l 5
 334 688 l 5
 304 688 l 6
 266 688 242 670 242 610 c 6
 242 22 l 6
 242 -38 266 -56 304 -56 c 6
 334 -56 l 5
 334 -210 l 5
 244 -210 l 6
 75 -210 48 -86 48 12 c 6
EndSplineSet
Validated: 1
EndChar

StartChar: bracketright
Encoding: 93 93 204
Width: 344
VWidth: 60
Flags: W
HStem: -210 154<11 90.0562> 688 154<11 90.0562>
VStem: 103 194<-40.0738 675.484>
LayerCount: 2
Fore
SplineSet
11 -56 m 1
 41 -56 l 2
 79 -56 103 -38 103 22 c 2
 103 610 l 2
 103 670 79 688 41 688 c 2
 11 688 l 1
 11 842 l 1
 101 842 l 2
 240 842 297 772 297 640 c 2
 297 12 l 2
 297 -86 270 -210 101 -210 c 2
 11 -210 l 1
 11 -56 l 1
EndSplineSet
Validated: 1
EndChar

StartChar: braceleft
Encoding: 123 123 205
Width: 322
VWidth: 60
Flags: W
VStem: 70 194<-60.3662 255.976 414.404 682.637>
LayerCount: 2
Fore
SplineSet
11 265 m 1
 11 402 l 1
 44 405 71 417 71 455 c 2
 71 656 l 2
 71 776 147 842 311 842 c 1
 311 688 l 1
 269 688 265 667 265 576 c 2
 265 440 l 2
 265 366 225 339 160 334 c 1
 225 321 264 288 264 231 c 2
 264 32 l 2
 264 -33 265 -66 311 -66 c 1
 311 -210 l 1
 135 -210 70 -162 70 -38 c 2
 70 212 l 2
 70 246 51 268 11 265 c 1
EndSplineSet
Validated: 33
EndChar

StartChar: braceright
Encoding: 125 125 206
Width: 322
VWidth: 60
Flags: W
VStem: 58 194<-60.3662 255.976 414.404 682.637>
LayerCount: 2
Fore
SplineSet
11 -66 m 1
 57 -66 58 -33 58 32 c 2
 58 231 l 2
 58 288 97 321 162 334 c 1
 97 339 57 366 57 440 c 2
 57 576 l 2
 57 667 53 688 11 688 c 1
 11 842 l 1
 175 842 251 776 251 656 c 2
 251 455 l 2
 251 417 278 405 311 402 c 1
 311 265 l 1
 271 268 252 246 252 212 c 2
 252 -38 l 2
 252 -162 187 -210 11 -210 c 1
 11 -66 l 1
EndSplineSet
Validated: 33
EndChar

StartChar: at
Encoding: 64 64 207
Width: 888
VWidth: 0
Flags: W
HStem: -218 145<218.672 662.542> -9 144<316 448.292> 0 21G<514.111 641> 368 144<207.369 492.699> 571 144<219.096 654.047> 571 117<190 370.473>
VStem: 37 144<-35.0281 344.745> 497 144<145.059 212 313.558 363.27> 697 144<-39.6655 529.699>
LayerCount: 2
Fore
SplineSet
37 20 m 2x9b80
 37 288 l 2
 37 414 99 512 275 512 c 10
 448 512 l 17
 544 512 641 500 641 342 c 1
 641 0 l 9
 523 0 l 25xbb80
 499 54 l 17
 497 54 454 -9 363 -9 c 1
 269 -9 235 70 235 138 c 10
 235 171 l 2
 235 269 294 314 394 314 c 0
 431 314 497 313 497 314 c 0
 497 314 498 329 497 330 c 2
 497 363 484 368 453 368 c 2
 275 368 l 2
 227 368 181 358 181 278 c 2
 181 40 l 2
 181 -50 235 -73 275 -73 c 10
 594 -73 l 2
 676 -73 697 -28 697 40 c 2
 697 452 l 2
 697 529 655 571 594 571 c 2xdb80
 190 571 l 9
 190 688 l 17x9780
 238 698 382 716 508 715 c 0
 594 715 l 2
 709 715 841 656 841 452 c 10
 841 40 l 2
 841 -148 751 -218 604 -218 c 2
 275 -218 l 2
 153 -218 37 -161 37 20 c 2x9b80
389 165 m 2
 389 144 397 135 424 135 c 1xd380
 453 135 484 139 497 169 c 9
 497 212 l 17
 419 206 l 2
 398 204 389 201 389 177 c 2
 388 176 388 166 389 165 c 2
EndSplineSet
Validated: 33
Substitution2: "'case' Case-Sensitive Forms lookup 1-1" at.alt
Substitution2: "'smcp' Lowercase to Small Capitals lookup 16-1" at.smcp
EndChar

StartChar: breve
Encoding: 294 728 208
Width: 285
VWidth: 0
Flags: W
HStem: 530 67<100.15 185.557>
VStem: 28 67<602.784 644> 191 67<602.784 644>
LayerCount: 2
Fore
SplineSet
28 644 m 1
 95 644 l 1
 95 614 110 597 142 597 c 0
 180 597 191 616 191 644 c 1
 258 644 l 1
 258 576 213 530 142 530 c 0
 73 530 28 576 28 644 c 1
EndSplineSet
Validated: 1
EndChar

StartChar: ogonek
Encoding: 295 731 209
Width: 197
VWidth: 0
Flags: W
HStem: -20 20G<20 157>
LayerCount: 2
Fore
SplineSet
88 0 m 1
 157 0 l 1
 80 -53 134 -107 170 -101 c 9
 170 -191 l 0
 71 -225 -48 -78 88 0 c 1
EndSplineSet
Validated: 33
EndChar

StartChar: caron
Encoding: 296 711 210
Width: 378
VWidth: 0
Flags: W
HStem: 531 140<119 139 238 250>
VStem: 28 322
LayerCount: 2
Fore
SplineSet
28 671 m 1
 139 671 l 1
 188 620 l 1
 238 671 l 1
 350 671 l 1
 250 531 l 1
 119 531 l 1
 28 671 l 1
119 531 m 1
250 531 m 1
EndSplineSet
Validated: 1
Substitution2: "'smcp' Lowercase to Small Capitals lookup 16-1" caron.smcp
EndChar

StartChar: hungarumlaut
Encoding: 297 733 211
Width: 419
VWidth: 0
Flags: W
HStem: 531 143<88 120 261 293>
LayerCount: 2
Fore
SplineSet
11 531 m 25
 88 674 l 25
 233 674 l 25
 120 531 l 25
 11 531 l 25
184 531 m 25
 261 674 l 25
 406 674 l 25
 293 531 l 25
 184 531 l 25
EndSplineSet
Validated: 1
EndChar

StartChar: dotaccent
Encoding: 298 729 212
Width: 193
VWidth: 0
Flags: W
HStem: 513 142<28.1465 164.837>
VStem: 28 137<513.104 654.928>
LayerCount: 2
Fore
SplineSet
28 536 m 2
 28 630 l 6
 28 645 36 655 52 655 c 6
 142 655 l 6
 157 655 165 644 165 630 c 6
 165 536 l 2
 165 521 156 513 142 513 c 2
 52 513 l 2
 38 513 28 522 28 536 c 2
EndSplineSet
Validated: 1
EndChar

StartChar: Lcaron
Encoding: 300 317 214
Width: 526
VWidth: 0
Flags: W
HStem: 0 174<244.609 507> 712 20G<45 239>
VStem: 45 194<179.547 732> 289 114<619.727 772>
LayerCount: 2
Fore
SplineSet
45 156 m 2
 45 732 l 1
 239 732 l 1
 239 226 l 2
 239 173 272 174 301 174 c 2
 507 174 l 1
 507 0 l 1
 211 0 l 2
 120 0 45 43 45 156 c 2
289 705 m 1
 289 772 l 1
 403 772 l 1
 403 705 l 1
 393 571 l 1
 300 571 l 1
 289 705 l 1
EndSplineSet
Validated: 33
Substitution2: "'c2sc' Capitals to Small Capitals in Latin lookup 17 subtable" lcaron.smcp
EndChar

StartChar: lcaron
Encoding: 309 318 223
Width: 406
VWidth: 0
Flags: W
HStem: 0 113<263.974 314> 763 20G<34 228 284 398>
VStem: 34 194<146.013 783> 284 114<629.727 782>
LayerCount: 2
Fore
SplineSet
34 189 m 2
 34 783 l 1
 228 783 l 1
 228 229 l 2
 228 160 243 146 265 134 c 2
 265 134 307 113 314 113 c 1
 314 0 l 1
 176 0 l 2
 81 0 34 48 34 189 c 2
284 715 m 1
 284 782 l 1
 398 782 l 1
 398 715 l 1
 388 581 l 1
 295 581 l 1
 284 715 l 1
EndSplineSet
Validated: 1
Substitution2: "'smcp' Lowercase to Small Capitals lookup 16-1" lcaron.smcp
EndChar

StartChar: tcaron
Encoding: 313 357 227
Width: 451
VWidth: 0
Flags: W
HStem: -1 113<314.975 365> 398 134<280 369>
VStem: 86 194<146.947 398> 326 114<648.727 801>
LayerCount: 2
Fore
SplineSet
11 398 m 1
 11 494 l 1
 86 532 l 1
 114 680 l 1
 280 680 l 1
 280 532 l 1
 369 532 l 1
 369 398 l 1
 280 398 l 1
 280 230 l 2
 280 159 294 145 316 133 c 2
 316 133 358 112 365 112 c 1
 365 -1 l 1
 215 -1 l 2
 135 -1 86 49 86 190 c 2
 86 398 l 1
 11 398 l 1
326 801 m 1
 440 801 l 1
 440 734 l 1
 430 600 l 1
 337 600 l 1
 326 734 l 1
 326 801 l 1
EndSplineSet
Validated: 1
AlternateSubs2: "'salt' Access All Alternates in Latin lookup 4-1" tcaron.salt
Substitution2: "'smcp' Lowercase to Small Capitals lookup 16-1" tcaron.smcp
EndChar

StartChar: dcaron
Encoding: 339 271 253
Width: 652
VWidth: 0
Flags: W
HStem: -6 157<156.722 285.813> 400 139<128 314.221> 765 20G<332 526 580 694>
VStem: 28 194<160.073 391.269> 332 194<156.631 395.41 509 785> 580 114<621.2 782>
LayerCount: 2
Fore
SplineSet
28 263 m 0
 28 460 56 539 200 539 c 3
 245 539 296 528 332 509 c 1
 332 785 l 1
 526 785 l 1
 526 0 l 1
 360 0 l 1
 332 49 l 17
 293 16 259 -6 200 -6 c 3
 81 -6 28 62 28 263 c 0
222 273 m 0
 222 164 237 151 266 151 c 3
 297 151 322 156 332 173 c 1
 332 385 l 1
 322 396 291 400 266 400 c 1
 238 400 222 386 222 273 c 0
580 782 m 1
 694 782 l 1
 694 715 l 1
 684 581 l 1
 590 581 l 1
 580 715 l 1
 580 782 l 1
EndSplineSet
Validated: 1
AlternateSubs2: "'salt' Access All Alternates in Latin lookup 4-1" dcaron.salt
Substitution2: "'smcp' Lowercase to Small Capitals lookup 16-1" dcaron.smcp
EndChar

StartChar: Lslash
Encoding: 347 321 261
Width: 582
VWidth: 0
Flags: W
HStem: 0 174<301.609 564> 712 20G<102 296>
VStem: 102 194<179.547 324 405 407 488 732>
DStem2: 28 374 28 293 0.92047 0.390814<0 48.5741 291.239 357.276>
LayerCount: 2
Fore
SplineSet
28 293 m 1
 28 374 l 1
 102 405 l 1
 102 732 l 1
 296 732 l 1
 296 488 l 1
 386 526 l 1
 386 445 l 1
 296 407 l 1
 296 226 l 2
 296 173 329 174 358 174 c 2
 564 174 l 1
 564 0 l 1
 268 0 l 2
 177 0 102 43 102 156 c 2
 102 324 l 1
 28 293 l 1
EndSplineSet
Validated: 33
Substitution2: "'c2sc' Capitals to Small Capitals in Latin lookup 17 subtable" lslash.smcp
EndChar

StartChar: uni00AD
Encoding: 173 173 262
Width: 354
VWidth: 0
Flags: W
HStem: 213 154<20 334>
VStem: 20 314<213 367>
LayerCount: 2
Fore
SplineSet
20 213 m 1
 20 367 l 1
 334 367 l 1
 334 213 l 1
 20 213 l 1
EndSplineSet
Validated: 1
Substitution2: "'case' Case-Sensitive Forms lookup 1-1" uni00AD.alt
Substitution2: "'c2sc' Capitals to Small Capitals in Latin lookup 17 subtable" uni00AD.smcp
Substitution2: "'smcp' Lowercase to Small Capitals lookup 16-1" uni00AD.smcp
EndChar

StartChar: lslash
Encoding: 348 322 263
Width: 380
VWidth: 0
Flags: W
HStem: 0 113<311.974 362> 763 20G<82 276>
VStem: 82 194<146.013 365 446 447 528 783>
DStem2: 11 416 11 335 0.92047 0.390814<0 45.4218 287.696 357.276>
LayerCount: 2
Fore
SplineSet
11 335 m 1
 11 416 l 1
 82 446 l 1
 82 783 l 1
 276 783 l 1
 276 528 l 1
 369 568 l 1
 369 487 l 1
 276 447 l 1
 276 229 l 2
 276 160 291 146 313 134 c 1
 313 134 355 113 362 113 c 1
 362 0 l 1
 224 0 l 2
 129 0 82 48 82 189 c 2
 82 365 l 1
 11 335 l 1
EndSplineSet
Validated: 1
Substitution2: "'smcp' Lowercase to Small Capitals lookup 16-1" lslash.smcp
EndChar

StartChar: dcroat
Encoding: 350 273 265
Width: 572
VWidth: 0
Flags: W
HStem: -6 157<150.722 279.813> 400 139<122 308.221> 596 74<232 326 520 580> 765 20G<326 520>
VStem: 22 194<160.073 391.269> 326 194<156.631 395.41 509 596 670 785>
LayerCount: 2
Fore
SplineSet
22 263 m 0
 22 460 50 539 194 539 c 0
 239 539 290 528 326 509 c 1
 326 596 l 1
 232 596 l 1
 232 670 l 1
 326 670 l 1
 326 785 l 1
 520 785 l 1
 520 670 l 1
 580 670 l 1
 580 596 l 1
 520 596 l 1
 520 0 l 1
 354 0 l 1
 326 49 l 1
 287 16 253 -6 194 -6 c 0
 75 -6 22 62 22 263 c 0
216 273 m 0
 216 164 231 151 260 151 c 0
 291 151 316 156 326 173 c 1
 326 385 l 1
 316 396 285 400 260 400 c 0
 232 400 216 386 216 273 c 0
EndSplineSet
Validated: 1
AlternateSubs2: "'salt' Access All Alternates in Latin lookup 4-1" dcroat.salt
Substitution2: "'smcp' Lowercase to Small Capitals lookup 16-1" dcroat.smcp
EndChar

StartChar: questiondown.alt
Encoding: 351 -1 266
Width: 544
VWidth: 0
Flags: W
HStem: -8 175<231.113 501.908> 22 145<433.183 534> 314 222<237.127 380> 566 165<228.116 389.854>
VStem: 22 194<183.171 300.948> 228 162<566.065 730.896> 236 144<455 536>
LayerCount: 2
Fore
SplineSet
22 197 m 2xba
 22 248 l 2
 22 383 70 461 236 455 c 1
 236 536 l 1
 380 536 l 1
 380 314 l 1
 288 314 l 0
 239 312 216 297 216 244 c 2
 216 229 l 2
 216 185 245 167 302 167 c 2xba
 534 167 l 2
 534 22 l 1x7a
 448 -1 367 -13 252 -8 c 1
 100 -8 22 99 22 197 c 2xba
228 591 m 2x3c
 228 708 l 2
 228 726 238 731 252 731 c 2
 366 731 l 2
 380 731 390 722 390 708 c 2
 390 591 l 2
 390 576 382 566 366 566 c 2
 252 566 l 2
 234 566 228 575 228 591 c 2x3c
EndSplineSet
Validated: 33
EndChar

StartChar: at.alt
Encoding: 352 -1 267
Width: 888
VWidth: 0
Flags: W
HStem: -94 145<218.672 662.542> 115 144<316 448.292> 492 144<207.369 492.699> 695 144<219.096 654.047> 695 117<190 370.473>
VStem: 37 144<88.9719 468.745> 497 144<269.059 336 437.558 487.27> 697 144<84.3345 653.699>
LayerCount: 2
Fore
SplineSet
37 412 m 6xf7
 37 538 99 636 275 636 c 10
 448 636 l 17
 544 636 641 624 641 466 c 1
 641 124 l 9
 523 124 l 25
 499 178 l 17
 497 178 454 115 363 115 c 1
 269 115 235 194 235 262 c 10
 235 295 l 2
 235 393 294 438 394 438 c 0
 431 438 497 437 497 438 c 0
 497 438 498 453 497 454 c 2
 497 487 484 492 453 492 c 2
 275 492 l 2
 227 492 181 482 181 402 c 2
 181 164 l 2
 181 74 235 51 275 51 c 10
 594 51 l 2
 676 51 697 96 697 164 c 2
 697 576 l 2
 697 653 655 695 594 695 c 2xf7
 190 695 l 9
 190 812 l 17xef
 238 822 382 840 508 839 c 0
 594 839 l 2
 709 839 841 780 841 576 c 10
 841 164 l 2
 841 -24 751 -94 604 -94 c 2
 275 -94 l 2
 153 -94 37 -37 37 144 c 2
 37 412 l 6xf7
389 289 m 2
 389 268 397 259 424 259 c 1
 453 259 484 263 497 293 c 9
 497 336 l 17
 419 330 l 2
 398 328 389 325 389 301 c 2
 388 300 388 290 389 289 c 2
EndSplineSet
Validated: 33
EndChar

StartChar: questiondown
Encoding: 191 191 268
Width: 544
VWidth: 0
Flags: W
HStem: -267 175<230.12 500.908> -237 145<432.183 533> 55 222<235.47 380> 307 165<227.13 388.854>
VStem: 22 193<-75.8286 36.9004> 227 162<307.116 471.896> 235 145<196 277>
LayerCount: 2
Fore
SplineSet
22 -11 m 2xba
 22 124 69 202 235 196 c 1
 235 277 l 1
 380 277 l 1
 380 55 l 1
 288 55 l 0
 239 53 215 38 215 -15 c 2
 215 -30 l 2
 215 -74 245 -92 302 -92 c 2xba
 533 -92 l 2
 533 -237 l 1x7a
 447 -260 366 -272 251 -267 c 1
 99 -267 22 -160 22 -62 c 2
 22 -11 l 2xba
227 332 m 2x3c
 227 449 l 2
 227 467 238 472 252 472 c 2
 365 472 l 2
 379 472 389 463 389 449 c 2
 389 332 l 2
 389 317 381 307 365 307 c 2
 252 307 l 2
 234 307 227 316 227 332 c 2x3c
EndSplineSet
Validated: 33
Substitution2: "'case' Case-Sensitive Forms lookup 1-1" questiondown.alt
Substitution2: "'smcp' Lowercase to Small Capitals lookup 16-1" questiondown.smcp
EndChar

StartChar: oe
Encoding: 353 339 269
Width: 829
VWidth: 0
Flags: W
HStem: -5 144<232.566 325.577 488.5 780.049> 195 123<526 611.781> 392 144<228.501 324.63> 401 134<531.131 611.119>
VStem: 28 194<147.182 386.593> 332 194<144.06 195 318 385.777> 613 194<320.547 397.959>
LayerCount: 2
Fore
SplineSet
28 258 m 4xde
 28 475 93 536 277 536 c 4xee
 337 536 385 529 422 512 c 5
 457 529 503 535 564 535 c 4
 741 535 807 513 807 337 c 4
 807 228 746 195 650 195 c 6
 526 195 l 5
 526 123 573 138 647 138 c 4
 719 138 722 138 797 149 c 5
 797 23 l 5
 727 -9 590 -5 507 -5 c 4
 470 -5 441 2 417 15 c 5
 381 1 335 -5 277 -5 c 4
 90 -5 28 68 28 258 c 4xde
222 258 m 4
 222 153 226 139 277 139 c 4
 335 139 332 156 332 268 c 4
 332 373 332 392 277 392 c 4
 218 392 222 372 222 258 c 4
526 318 m 5
 584 318 l 6
 601 318 613 331 613 350 c 4
 613 386 612 401 578 401 c 4xde
 536 401 524 394 526 318 c 5
EndSplineSet
Validated: 33
Substitution2: "'smcp' Lowercase to Small Capitals lookup 16-1" oe.smcp
EndChar

StartChar: OE
Encoding: 354 338 270
Width: 971
VWidth: 0
Flags: W
HStem: -4 174<264.04 413.02 651.352 936.106> 14 162<647.609 941> 272 181<642 800.455> 281 161<732.545 891> 553 179<646.838 935.463> 553 163<646.913 941> 563 174<263.447 416.467>
VStem: 37 194<203.32 526.097> 448 194<208.691 272 453 528.43>
LayerCount: 2
Fore
SplineSet
231 361 m 0x8380
 231 208 242 170 340 170 c 0
 426 170 448 206 448 361 c 0
 448 531 431 563 340 563 c 0
 252 563 231 540 231 361 c 0x8380
37 361 m 0
 37 704 172 737 340 737 c 0x8380
 406 737 465 732 514 707 c 1
 548 728 592 734 634 732 c 2x0980
 634 732 824 732 941 716 c 1
 941 553 l 1x0580
 694 553 l 2
 642 553 642 524 642 497 c 2
 642 453 l 1x2980
 891 442 l 1
 891 281 l 1x1180
 642 272 l 1
 642 228 l 2
 642 175 675 176 704 176 c 2
 941 176 l 1
 941 14 l 1x6180
 838 0 644 -3 644 -3 c 2
 608 -5 551 -4 508 23 c 1
 461 1 405 -4 340 -4 c 0
 160 -4 37 28 37 361 c 0
EndSplineSet
Validated: 33
EndChar

StartChar: guillemotright
Encoding: 187 187 272
Width: 607
VWidth: 0
Flags: W
DStem2: 126 557 29 462 0.731486 -0.681857<0 147.926>
LayerCount: 2
Fore
SplineSet
28 244 m 1
 139 354 l 1
 29 462 l 1
 126 557 l 1
 332 354 l 1
 121 146 l 1
 28 244 l 1
275 244 m 1
 386 354 l 1
 276 462 l 1
 373 557 l 1
 579 354 l 1
 368 146 l 1
 275 244 l 1
EndSplineSet
Validated: 1
EndChar

StartChar: cent
Encoding: 162 162 273
Width: 485
VWidth: 0
Flags: W
HStem: -6 145<302.664 430.349> 392 142<306 421.496>
VStem: 22 194<155.397 376.781> 198 108<-95 -6 536 634>
LayerCount: 2
Fore
SplineSet
22 266 m 0xe0
 22 474 96 536 198 536 c 1
 198 634 l 1
 306 634 l 1
 306 534 l 1
 352 530 404 521 456 500 c 1
 456 386 l 1
 456 386 395 392 306 392 c 0xd0
 238 392 216 394 216 264 c 0xe0
 216 142 234 139 306 139 c 0xd0
 398 139 462 147 462 147 c 1
 462 33 l 1
 416 1 359 -6 302 -6 c 1
 302 -95 l 1
 194 -95 l 1
 194 -5 l 1
 97 -3 22 61 22 266 c 0xe0
EndSplineSet
Validated: 33
EndChar

StartChar: sterling
Encoding: 163 163 274
Width: 572
VWidth: 0
Flags: W
HStem: 0 174<284 543> 300 122<284 358.529> 300 105<390.471 465> 559 173<297.595 543.914> 559 157<370.717 544>
VStem: 90 194<174 300 422 550.08>
LayerCount: 2
Fore
SplineSet
28 0 m 1xc4
 28 149 l 1
 90 174 l 1
 90 300 l 1
 28 300 l 1xa4
 28 395 l 1
 90 422 l 1
 90 465 l 2
 90 692 190 732 368 732 c 3xd4
 425 732 544 716 544 716 c 1
 544 559 l 1x8c
 360 559 l 2
 302 559 284 552 284 487 c 2
 284 422 l 1xd4
 465 405 l 1
 465 300 l 1xa4
 284 300 l 1
 284 174 l 1
 543 174 l 1
 543 0 l 1
 28 0 l 1xc4
EndSplineSet
Validated: 1
Substitution2: "'smcp' Lowercase to Small Capitals lookup 16-1" sterling.smcp
EndChar

StartChar: yen
Encoding: 165 165 275
Width: 662
VWidth: 0
Flags: W
HStem: 0 21G<226 420> 128 99<111 226 420 538> 252 99<111 165 485 538> 712 20G<11 228.481 433.025 651>
VStem: 226 194<0 128 227 252>
LayerCount: 2
Fore
SplineSet
11 732 m 1
 222 732 l 1
 327 408 l 1
 440 732 l 1
 651 732 l 1
 485 351 l 1
 538 351 l 1
 538 252 l 1
 420 252 l 1
 420 227 l 5
 538 227 l 5
 538 128 l 5
 420 128 l 5
 420 0 l 1
 226 0 l 1
 226 128 l 5
 111 128 l 5
 111 227 l 5
 226 227 l 5
 226 252 l 1
 111 252 l 1
 111 351 l 1
 165 351 l 1
 11 732 l 1
EndSplineSet
Validated: 1
Substitution2: "'smcp' Lowercase to Small Capitals lookup 16-1" yen.smcp
EndChar

StartChar: section
Encoding: 167 167 276
Width: 532
VWidth: 0
Flags: W
HStem: -8 154<70.8144 309> 11 135<68 305.853> 200 144<226.003 308.293> 430 145<225.613 308.378> 630 154<225.061 461.867> 630 135<228.259 465>
VStem: 32 193<344.93 427.998 575.567 629.093> 309 193<147.992 199.749 351.293 428.576>
LayerCount: 2
Fore
SplineSet
32 323 m 2xb3
 32 335 l 2
 32 367 25 443 106 468 c 1
 33 503 31 559 31 590 c 2
 31 620 l 2
 31 718 77 784 181 784 c 3xbb
 279 784 399 782 465 765 c 1
 465 630 l 1x37
 251 630 l 2
 230 630 225 620 225 606 c 2
 225 600 l 2
 225 591 227 575 253 575 c 2
 330 575 l 2
 443 575 503 541 503 450 c 2
 503 438 l 2
 503 399 497 337 431 315 c 1
 493 305 502 236 502 203 c 2
 502 160 l 2
 502 29 428 -8 364 -8 c 3xbb
 253 -8 127 -7 68 11 c 1
 68 146 l 1x73
 282 146 l 2
 304 146 309 151 309 167 c 2
 309 179 l 2
 309 193 302 200 281 200 c 2
 201 200 l 2
 101 200 32 227 32 323 c 2xb3
225 377 m 2
 225 348 239 344 261 344 c 2
 271 344 l 2
 302 344 309 350 309 378 c 2
 310 379 309 396 309 396 c 2
 309 416 307 430 271 430 c 2
 261 430 l 2
 225 430 225 414 225 394 c 2
 225 377 l 2
EndSplineSet
Validated: 33
EndChar

StartChar: g.salt
Encoding: 356 -1 277
Width: 555
VWidth: 0
Flags: W
HStem: -248 129<45 111.5> 6 140<154.5 311.445> 409 134<236.844 324.101>
VStem: 28 194<158.317 393.295> 328 194<-90.106 44 149.875 409>
LayerCount: 2
Fore
SplineSet
28 284 m 7
 28 473 106 543 231 543 c 7
 337 543 468 529 522 507 c 5
 522 -24 l 6
 522 -170 446 -290 273 -272 c 6
 45 -248 l 5
 45 -119 l 5
 243 -119 l 6
 296 -119 328 -88 328 -24 c 6
 328 44 l 5
 306 16 276 6 231 6 c 7
 78 6 28 92 28 284 c 7
222 291 m 7
 222 179 227 146 279 146 c 7
 299 146 316 150 328 165 c 5
 328 409 l 6
 281 409 l 6
 223 409 222 351 222 291 c 7
EndSplineSet
Validated: 33
EndChar

StartChar: guillemotleft
Encoding: 171 171 278
Width: 607
VWidth: 0
Flags: W
LayerCount: 2
Fore
SplineSet
28 354 m 1
 234 557 l 1
 331 462 l 1
 221 354 l 1
 332 244 l 1
 239 146 l 1
 28 354 l 1
275 354 m 1
 481 557 l 1
 578 462 l 1
 468 354 l 1
 579 244 l 1
 486 146 l 1
 275 354 l 1
EndSplineSet
Validated: 1
EndChar

StartChar: paragraph
Encoding: 182 182 279
Width: 574
VWidth: 0
Flags: W
HStem: 0 21G<400 524> 355 124<147.811 231.714> 608 124<148.344 232 356 400 524 564>
VStem: 22 124<480.964 605.03> 232 124<-270 372 479 608> 400 124<0 606>
LayerCount: 2
Fore
SplineSet
22 499 m 2
 22 592 l 2
 22 687 84 732 178 732 c 2
 564 732 l 1
 564 606 l 1
 524 606 l 1
 524 0 l 1
 400 0 l 1
 400 608 l 1
 356 608 l 1
 356 -270 l 1
 232 -270 l 1
 232 372 l 1
 226 370 214 355 178 355 c 3
 64 355 22 421 22 499 c 2
146 519 m 2
 146 480 160 479 188 479 c 10
 232 479 l 25
 232 608 l 25
 188 608 l 2
 148 608 146 600 146 558 c 10
 146 519 l 2
EndSplineSet
Validated: 1
EndChar

StartChar: macron
Encoding: 175 175 280
Width: 348
VWidth: 0
Flags: W
HStem: 531 93<28 320>
VStem: 28 292<531 624>
LayerCount: 2
Fore
SplineSet
28 531 m 1
 28 624 l 5
 320 624 l 5
 320 531 l 1
 28 531 l 1
EndSplineSet
Validated: 1
Substitution2: "'smcp' Lowercase to Small Capitals lookup 16-1" macron.smcp
EndChar

StartChar: copyright
Encoding: 169 169 281
Width: 792
VWidth: 0
Flags: W
HStem: 0 104<232.975 572.67> 147 104<351.839 542.057> 479 104<347.68 543.3> 628 104<230.35 577.197>
VStem: 31 114<215.931 526.163> 217 114<272.533 463.179> 648 114<200.596 541.431>
LayerCount: 2
Fore
SplineSet
31 368 m 0
 31 563 79 732 308 732 c 2
 508 732 l 2
 711 732 762 583 762 368 c 0
 762 109 659 0 508 0 c 2
 308 0 l 2
 115 0 31 147 31 368 c 0
145 368 m 0
 145 209 194 104 308 104 c 2
 498 104 l 2
 588 104 648 164 648 368 c 0
 648 488 639 628 508 628 c 2
 308 628 l 2
 219 628 145 583 145 368 c 0
217 365 m 3
 217 526 271 583 361 583 c 3
 402 583 491 581 549 559 c 1
 549 467 l 1
 486 476 434 479 401 479 c 3
 347 479 331 457 331 362 c 3
 331 278 355 251 408 251 c 27
 466 251 515 259 555 267 c 1
 555 175 l 17
 503 147 437 147 370 147 c 3
 291 147 217 188 217 365 c 3
EndSplineSet
Validated: 1
EndChar

StartChar: registered
Encoding: 174 174 282
Width: 792
VWidth: 0
Flags: W
HStem: 0 104<232.975 572.67> 476 104<351 442.558> 628 104<230.35 577.197>
VStem: 31 114<215.931 526.163> 237 114<153 315 399 476> 444 114<401.653 472.689> 648 114<200.596 541.431>
LayerCount: 2
Fore
SplineSet
31 368 m 0
 31 563 79 732 308 732 c 2
 508 732 l 2
 711 732 762 583 762 368 c 0
 762 109 659 0 508 0 c 2
 308 0 l 2
 115 0 31 147 31 368 c 0
145 368 m 0
 145 209 194 104 308 104 c 2
 498 104 l 2
 588 104 648 164 648 368 c 0
 648 488 639 628 508 628 c 2
 308 628 l 2
 219 628 145 583 145 368 c 0
237 153 m 1
 237 580 l 1
 424 580 l 2
 490 580 558 553 558 442 c 3
 558 365 539 327 494 311 c 1
 578 153 l 1
 457 153 l 1
 380 303 l 1
 351 315 l 1
 351 153 l 1
 237 153 l 1
351 399 m 1
 390 399 l 2
 442 399 444 403 444 441 c 3
 444 473 435 476 390 476 c 2
 351 476 l 1
 351 399 l 1
EndSplineSet
Validated: 1
EndChar

StartChar: plusminus
Encoding: 177 177 283
Width: 479
VWidth: 0
Flags: W
HStem: 57 154<32 448> 377 154<32 162 316 448>
VStem: 32 416<57 211 377 531> 162 154<246 377 531 662>
LayerCount: 2
Fore
SplineSet
32 57 m 1xe0
 32 211 l 1
 448 211 l 1
 448 57 l 1
 32 57 l 1xe0
32 377 m 5
 32 531 l 5xe0
 162 531 l 5
 162 662 l 5
 316 662 l 5
 316 531 l 5xd0
 448 531 l 5
 448 377 l 5xe0
 316 377 l 5
 316 246 l 5
 162 246 l 5
 162 377 l 5xd0
 32 377 l 5
EndSplineSet
Validated: 1
EndChar

StartChar: logicalnot
Encoding: 172 172 284
Width: 467
VWidth: 0
Flags: W
HStem: 159 211<303 447> 226 144<20 303>
VStem: 303 144<159 226>
LayerCount: 2
Fore
SplineSet
20 226 m 1x60
 20 370 l 1x60
 447 370 l 1
 447 313 447 216 447 159 c 1
 303 159 l 1xa0
 303 226 l 1
 20 226 l 1x60
EndSplineSet
Validated: 1
EndChar

StartChar: guilsinglleft
Encoding: 357 8249 285
Width: 356
VWidth: 0
Flags: W
VStem: 28 303
LayerCount: 2
Fore
SplineSet
28 354 m 1
 234 557 l 1
 331 462 l 1
 221 354 l 1
 332 244 l 1
 239 146 l 1
 28 354 l 1
EndSplineSet
Validated: 1
EndChar

StartChar: guilsinglright
Encoding: 358 8250 286
Width: 356
VWidth: 0
Flags: W
VStem: 28 304
LayerCount: 2
Fore
SplineSet
28 244 m 1
 139 354 l 1
 29 462 l 1
 126 557 l 1
 332 354 l 1
 121 146 l 1
 28 244 l 1
EndSplineSet
Validated: 1
EndChar

StartChar: perthousand
Encoding: 359 8240 287
Width: 1378
VWidth: 0
Flags: W
HStem: 3 125<694.988 815.285 1105.98 1225.28> 261 125<696.718 817.015 1107.72 1227.02> 349 125<151.985 271.285> 607 125<153.715 273.015>
VStem: 24 125<476.134 604.866> 276 125<476.134 604.866> 568 125<130.134 258.866> 820 125<134.041 258.866> 978 125<130.134 258.866> 1230 125<130.134 258.866>
DStem2: 192 0 323 0 0.527074 0.849819<69.0467 861.359>
LayerCount: 2
Fore
SplineSet
24 484 m 2xbfc0
 24 597 l 2
 24 682 62 732 163 732 c 2
 264 732 l 2
 362 732 401 682 401 597 c 2
 401 484 l 18
 401 399 363 349 262 349 c 2
 161 349 l 2
 63 349 24 399 24 484 c 2xbfc0
149 514 m 2
 149 492 153 474 186 474 c 2
 237 474 l 2
 271 474 276 492 276 514 c 10
 276 567 l 2
 276 600 264 607 239 607 c 2
 188 607 l 2
 166 607 149 601 149 567 c 2
 149 514 l 2
192 0 m 1
 646 732 l 1
 770 732 l 1
 323 0 l 1
 192 0 l 1
568 138 m 2
 568 251 l 2
 568 336 605 386 706 386 c 2
 808 386 l 2xdfc0
 906 386 945 336 945 251 c 2
 945 138 l 18
 945 53 907 3 806 3 c 2
 704 3 l 2
 606 3 568 53 568 138 c 2
693 168 m 2
 693 146 697 128 730 128 c 2
 780 128 l 2
 814 128 820 146 820 168 c 10
 820 221 l 2
 820 254 807 261 782 261 c 2
 732 261 l 2
 710 261 693 255 693 221 c 2
 693 168 l 2
978 138 m 6
 978 251 l 6
 978 336 1016 386 1117 386 c 6
 1218 386 l 6
 1316 386 1355 336 1355 251 c 6
 1355 138 l 22
 1355 53 1317 3 1216 3 c 6
 1115 3 l 6
 1017 3 978 53 978 138 c 6
1103 168 m 6
 1103 146 1107 128 1140 128 c 6
 1191 128 l 6
 1225 128 1230 146 1230 168 c 14
 1230 221 l 6
 1230 254 1218 261 1193 261 c 6
 1142 261 l 6
 1120 261 1103 255 1103 221 c 6
 1103 168 l 6
EndSplineSet
Validated: 1
Substitution2: "'smcp' Lowercase to Small Capitals lookup 16-1" perthousand.smcp
EndChar

StartChar: dagger
Encoding: 360 8224 288
Width: 486
VWidth: 0
Flags: W
HStem: 424 149<11 73.0667 413.4 475>
VStem: 144 199<168.5 409> 156 173<-72 168.5 679 770>
LayerCount: 2
Fore
SplineSet
11 424 m 5xc0
 11 573 l 5
 144 588 l 5
 157 770 l 5
 330 770 l 5
 343 588 l 5
 475 573 l 5
 475 424 l 5
 343 409 l 5xc0
 329 -72 l 5
 156 -72 l 5xa0
 144 409 l 5
 11 424 l 5xc0
EndSplineSet
Validated: 1
EndChar

StartChar: daggerdbl
Encoding: 361 8225 289
Width: 497
VWidth: 0
Flags: W
HStem: 124 149<11 61.1053 422.5 475> 424 149<11 73.0667 413.4 475>
VStem: 147 193<292 409> 156 173<-72 105 679 770>
LayerCount: 2
Fore
SplineSet
11 124 m 1xd0
 11 273 l 1
 147 292 l 1
 144 409 l 1
 11 424 l 1
 11 573 l 1
 144 588 l 1
 157 770 l 1
 330 770 l 1
 343 588 l 1
 475 573 l 1
 475 424 l 1
 343 409 l 1
 340 291 l 1xe0
 475 273 l 1
 475 124 l 1
 334 107 l 1
 329 -72 l 1
 156 -72 l 1
 152 105 l 1
 11 124 l 1xd0
EndSplineSet
Validated: 1
EndChar

StartChar: trademark
Encoding: 362 8482 290
Width: 716
VWidth: 0
Flags: W
HStem: 383 349<104 218 356 423 458 477 532 561 594 657> 638 94<11 104 218 310>
VStem: 104 114<383 638> 458 103<383 441.8>
DStem2: 657 732 574 553 0.144596 -0.989491<165.117 336.223>
LayerCount: 2
Fore
SplineSet
11 638 m 1x70
 11 732 l 1
 310 732 l 1
 310 638 l 1
 218 638 l 1x70
 218 383 l 1
 104 383 l 1xb0
 104 638 l 1
 11 638 l 1x70
309 383 m 1xb0
 356 732 l 1
 477 732 l 1
 510 553 l 1
 532 732 l 1
 657 732 l 1
 708 383 l 1
 594 383 l 1
 574 553 l 1
 561 383 l 1
 458 383 l 1
 438 551 l 1
 423 383 l 1
 309 383 l 1xb0
EndSplineSet
Validated: 1
EndChar

StartChar: notequal
Encoding: 363 8800 291
Width: 449
VWidth: 0
Flags: W
HStem: 162 154<11 77 158 164 245 438> 381 154<11 201 282 289 370 438>
VStem: 11 427<162 316 381 535>
DStem2: 77 162 119 93 0.49389 0.869524<-39.2538 0 216.88 251.668 469.042 495.768>
LayerCount: 2
Fore
SplineSet
11 162 m 1
 11 316 l 1
 164 316 l 1
 201 381 l 1
 11 381 l 1
 11 535 l 1
 289 535 l 1
 322 593 l 1
 403 593 l 1
 370 535 l 1
 438 535 l 1
 438 381 l 1
 282 381 l 1
 245 316 l 1
 438 316 l 1
 438 162 l 1
 158 162 l 1
 119 93 l 1
 38 93 l 1
 77 162 l 1
 11 162 l 1
EndSplineSet
Validated: 1
EndChar

StartChar: infinity
Encoding: 364 8734 292
Width: 742
VWidth: 0
Flags: W
HStem: 169 123<165.679 257.295 480.737 573.049> 391 123<166.674 255.208 481.998 574.878>
VStem: 28 133<297.598 386.46> 581 133<298.1 385.991>
LayerCount: 2
Fore
SplineSet
28 341 m 3
 28 428 56 514 194 514 c 3
 270 514 320 487 367 427 c 1
 405 493 472 514 548 514 c 3
 686 514 714 428 714 341 c 3
 714 249 675 169 548 169 c 3
 485 169 423 179 365 255 c 1
 317 179 268 169 194 169 c 3
 67 169 28 249 28 341 c 3
161 341 m 3
 161 313 169 292 207 292 c 3
 241 292 264 317 280 341 c 1
 264 366 235 391 207 391 c 3
 163 391 161 369 161 341 c 3
458 340 m 1
 474 316 499 292 533 292 c 3
 569 292 581 313 581 341 c 3
 581 369 576 391 533 391 c 3
 495 391 474 365 458 340 c 1
EndSplineSet
Validated: 1
EndChar

StartChar: lessequal
Encoding: 365 8804 293
Width: 430
VWidth: 0
Flags: W
HStem: 63 134<28 402>
LayerCount: 2
Fore
SplineSet
28 63 m 1
 28 197 l 1
 402 197 l 1
 402 63 l 1
 28 63 l 1
28 346 m 1
 28 516 l 1
 403 626 l 1
 403 456 l 1
 218 433 l 1
 403 400 l 1
 403 230 l 1
 28 346 l 1
EndSplineSet
Validated: 1
EndChar

StartChar: greaterequal
Encoding: 366 8805 294
Width: 430
VWidth: 0
Flags: W
HStem: 63 134<28 403>
LayerCount: 2
Fore
SplineSet
28 63 m 1
 28 197 l 1
 403 197 l 1
 403 63 l 1
 28 63 l 1
28 230 m 1
 28 400 l 1
 213 433 l 1
 28 456 l 1
 28 626 l 1
 403 516 l 1
 403 346 l 1
 28 230 l 1
EndSplineSet
Validated: 1
EndChar

StartChar: circumflex
Encoding: 367 710 295
Width: 378
VWidth: 0
Flags: W
HStem: 531 140<128 140 239 259>
VStem: 28 322
LayerCount: 2
Fore
SplineSet
28 531 m 1
 128 671 l 1
 259 671 l 1
 350 531 l 1
 239 531 l 1
 190 582 l 1
 140 531 l 1
 28 531 l 1
128 671 m 1
259 671 m 1
EndSplineSet
Validated: 1
Substitution2: "'smcp' Lowercase to Small Capitals lookup 16-1" circumflex.smcp
EndChar

StartChar: tilde
Encoding: 368 732 296
Width: 404
VWidth: 0
Flags: W
HStem: 531 106<197.944 327.294> 566 106<81.4548 213.157>
LayerCount: 2
Fore
SplineSet
28 598 m 17x80
 53 634 95 672 151 672 c 27x40
 195 672 217 637 257 637 c 1
 297 635 328 654 350 677 c 9
 376 603 l 17
 354 570 315 531 264 531 c 7x80
 221 531 187 566 148 566 c 3x40
 109 566 86 555 55 531 c 9
 28 598 l 17x80
EndSplineSet
Validated: 33
Substitution2: "'smcp' Lowercase to Small Capitals lookup 16-1" tilde.smcp
EndChar

StartChar: ring
Encoding: 369 730 297
Width: 259
VWidth: 0
Flags: W
HStem: 530 69<98.9151 160.6> 666 69<99.0611 160.462>
VStem: 28 68<601.306 663.171> 163 68<601.168 663.317>
LayerCount: 2
Fore
SplineSet
28 632 m 4
 28 689 74 735 130 735 c 4
 186 735 231 689 231 632 c 4
 231 575 186 530 130 530 c 4
 74 530 28 575 28 632 c 4
96 632 m 31
 96 613 111 599 130 599 c 31
 149 599 163 613 163 632 c 31
 163 651 149 666 130 666 c 31
 111 666 96 651 96 632 c 31
EndSplineSet
Validated: 1
Substitution2: "'smcp' Lowercase to Small Capitals lookup 16-1" ring.smcp
EndChar

StartChar: fraction
Encoding: 371 8260 299
Width: 395
VWidth: 0
Flags: W
HStem: 0 21G<-51 89.5065>
DStem2: -51 0 80 0 0.429296 0.903164<56.2378 852.559>
LayerCount: 2
Fore
SplineSet
-51 0 m 1
 315 770 l 1
 446 770 l 1
 80 0 l 1
 -51 0 l 1
EndSplineSet
EndChar

StartChar: dotlessi
Encoding: 372 305 300
Width: 261
VWidth: 0
Flags: W
HStem: 0 21G<34 228> 511 20G<34 228>
VStem: 34 194<0 531>
LayerCount: 2
Fore
SplineSet
34 0 m 1
 34 531 l 1
 228 531 l 1
 228 0 l 1
 34 0 l 1
EndSplineSet
Validated: 1
EndChar

StartChar: fi
Encoding: 373 64257 301
Width: 644
VWidth: 0
Flags: W
HStem: 0 21G<83 277 419 613> 397 134<277 419> 652 134<310.199 579.608>
VStem: 83 194<0 397 531 620.227> 419 194<0 397>
LayerCount: 2
Fore
SplineSet
11 397 m 1
 11 514 l 1
 83 531 l 1
 83 560 l 2
 83 681 171 782 317 786 c 0
 366 787 547 782 586 762 c 1
 586 651 l 1
 585 651 393 652 393 652 c 2
 343 652 277 642 277 550 c 2
 277 531 l 1
 613 521 l 1
 613 0 l 1
 419 0 l 1
 419 397 l 1
 277 397 l 1
 277 0 l 1
 83 0 l 1
 83 397 l 1
 11 397 l 1
EndSplineSet
Validated: 33
Ligature2: "'liga' Standard Ligatures lookup 15-1" f i
LCarets2: 1 0 
EndChar

StartChar: fl
Encoding: 374 64258 302
Width: 726
VWidth: 0
Flags: W
HStem: 0 113<664.974 715> 397 134<277 375> 652 134<290.24 435>
VStem: 83 194<0 397 531 639.253> 435 194<146.013 651>
LayerCount: 2
Fore
SplineSet
11 397 m 5
 11 514 l 5
 83 531 l 5
 83 570 l 6
 83 755 187 786 307 786 c 6
 629 783 l 5
 629 229 l 6
 629 160 644 146 666 134 c 5
 666 134 708 113 715 113 c 5
 715 0 l 5
 577 0 l 6
 482 0 435 48 435 189 c 6
 435 651 l 5
 390 651 343 652 343 652 c 6
 293 652 277 632 277 570 c 6
 277 531 l 5
 375 531 l 5
 375 397 l 5
 277 397 l 5
 277 0 l 5
 83 0 l 5
 83 397 l 5
 11 397 l 5
EndSplineSet
Validated: 1
Ligature2: "'liga' Standard Ligatures lookup 15-1" f l
LCarets2: 1 0 
EndChar

StartChar: exclamdown
Encoding: 161 161 303
Width: 282
VWidth: 0
Flags: W
HStem: 296 165<59.351 220.585>
VStem: 47 186<-270 -82.75> 59 162<296.094 460.697> 67 147<77.75 265>
LayerCount: 2
Fore
SplineSet
59 323 m 2xa0
 59 438 l 2
 59 452 69 460 83 461 c 1
 197 461 l 1
 209 460 221 449 221 435 c 2
 221 323 l 1
 221 310 216 296 199 296 c 1
 83 296 l 1
 70 296 59 304 59 323 c 2xa0
47 -270 m 1xc0
 67 265 l 1
 214 265 l 1x90
 233 -270 l 1
 47 -270 l 1xc0
EndSplineSet
Validated: 1
Substitution2: "'smcp' Lowercase to Small Capitals lookup 16-1" exclamdown.smcp
Substitution2: "'case' Case-Sensitive Forms lookup 1-1" exclamdown.alt
EndChar

StartChar: ampersand.salt
Encoding: 375 -1 304
Width: 1007
VWidth: 0
Flags: W
HStem: -2 151<454.248 707.626> 510 151<232.006 727>
VStem: 25 194<314.232 493.82> 506 194<237.5 340.091> 727 194<168.772 510>
LayerCount: 2
Fore
SplineSet
25 347 m 2
 25 430 l 2
 25 618 117 659 306 661 c 1
 727 661 l 1
 745 766 l 1
 921 766 l 1
 921 659 l 1
 996 659 l 1
 996 530 l 1
 921 511 l 1
 921 244 l 2
 921 45 791 -2 638 -2 c 2
 474 -2 l 0
 369 -1 256 52 256 169 c 1
 126 169 25 198 25 347 c 2
219 356 m 2
 219 321 225 308 256 308 c 1
 256 432 338 472 464 472 c 2
 493 472 l 2
 608 472 700 434 700 304 c 0
 700 171 596 176 490 176 c 2
 450 176 l 1
 450 164 452 149 479 149 c 1
 638 149 l 2
 721 149 727 189 727 247 c 2
 727 510 l 1
 316 510 l 0
 219 510 219 484 219 430 c 2
 219 356 l 2
450 306 m 1
 488 306 l 2
 500 306 506 310 506 326 c 0
 506 340 497 342 488 342 c 2
 474 342 l 2
 458 342 450 342 450 306 c 1
EndSplineSet
Validated: 33
EndChar

StartChar: a.superior
Encoding: 376 -1 305
Width: 374
VWidth: -100
Flags: W
HStem: 374 96<151 190.389> 631 107<46.2085 204.74>
VStem: 206 146<470.347 526 593.561 629.426>
LayerCount: 2
Fore
SplineSet
17 469 m 10
 17 495 l 2
 17 543 41 594 137 594 c 2
 137 594 206 593 206 594 c 0
 206 594 207 597 206 598 c 2
 206 633 191 631 163 631 c 3
 122 631 29 622 29 622 c 9
 29 708 l 17
 76 733 118 738 185 738 c 1
 290 738 352 715 352 616 c 2
 352 378 l 9
 236 378 l 25
 206 419 l 17
 200 403 179 372 130 374 c 0
 43 377 17 433 17 469 c 10
151 492 m 2
 151 470 165 470 178 470 c 0
 208 470 206 490 206 490 c 9
 206 526 l 17
 170 523 l 2
 149 521 151 506 151 496 c 2
 151 492 l 2
EndSplineSet
Validated: 33
EndChar

StartChar: b.superior
Encoding: 377 -1 306
Width: 406
VWidth: -100
Flags: W
HStem: 374 118<192.004 291.417> 641 105<169.262 314>
VStem: 21 146<493.754 639.248 723 901> 240 146<494.748 638.668>
LayerCount: 2
Fore
SplineSet
21 378 m 1
 21 901 l 1
 167 901 l 1
 167 723 l 1
 193 737 230 746 262 746 c 3
 366 746 386 687 386 558 c 4
 386 426 347 374 262 374 c 3
 220 374 196 390 168 415 c 9
 146 378 l 1
 21 378 l 1
168 505 m 1
 175 495 190 492 211 492 c 3
 230 492 240 500 240 565 c 0
 240 633 229 641 209 641 c 1
 193 641 175 638 168 630 c 1
 168 505 l 1
EndSplineSet
Validated: 1
Ligature2: "'ordn' Ordinals lookup 21-1" b
EndChar

StartChar: c.superior
Encoding: 378 -1 307
Width: 346
VWidth: -100
Flags: W
HStem: 375 108<105 315.231> 627 108<104 308.585>
VStem: 17 146<490.552 623.662>
LayerCount: 2
Fore
SplineSet
17 555 m 0
 17 693 68 735 140 735 c 3
 177 735 250 739 322 708 c 1
 322 623 l 1
 322 623 282 627 223 627 c 3
 178 627 163 632 163 554 c 3
 163 494 175 483 223 483 c 3
 284 483 327 487 327 487 c 1
 327 404 l 17
 274 364 198 376 140 375 c 0
 70 375 17 417 17 555 c 0
EndSplineSet
Validated: 33
Ligature2: "'ordn' Ordinals lookup 21-1" c
EndChar

StartChar: d.superior
Encoding: 379 -1 308
Width: 405
VWidth: -100
Flags: W
HStem: 374 118<111.583 210.996> 641 105<89 233.734>
VStem: 17 146<493.864 639.875> 236 146<493.754 639.11 723 901>
LayerCount: 2
Fore
SplineSet
17 558 m 0
 17 692 37 746 141 746 c 3
 173 746 210 737 236 723 c 1
 236 901 l 1
 382 901 l 1
 382 378 l 1
 257 378 l 1
 235 415 l 17
 207 390 183 374 141 374 c 3
 56 374 17 421 17 558 c 0
163 565 m 0
 163 500 173 492 192 492 c 3
 213 492 228 495 235 505 c 1
 235 630 l 1
 228 638 209 641 192 641 c 1
 173 641 163 633 163 565 c 0
EndSplineSet
Validated: 1
Ligature2: "'ordn' Ordinals lookup 21-1" d
EndChar

StartChar: e.superior
Encoding: 380 -1 309
Width: 386
VWidth: -100
Flags: W
HStem: 375 107<96.5 356.507> 504 92<163 220.994> 633 101<164.119 219>
LayerCount: 2
Fore
SplineSet
17 556 m 0
 17 703 61 734 188 734 c 3
 318 734 367 719 367 600 c 0
 367 526 323 504 253 504 c 2
 163 504 l 1
 163 481 168 482 222 482 c 3
 274 482 305 482 359 486 c 1
 359 396 l 17
 307 372 207 375 146 375 c 0
 47 375 17 434 17 556 c 0
163 596 m 1
 202 596 l 2
 213 596 221 602 221 610 c 0
 221 626 221 633 198 633 c 3
 170 633 161 630 163 596 c 1
EndSplineSet
Validated: 33
Ligature2: "'ordn' Ordinals lookup 21-1" e
EndChar

StartChar: f.superior
Encoding: 381 -1 310
Width: 302
VWidth: -100
Flags: W
HStem: 633 101<209 272> 633 88<15 63> 801 101<209.69 286.687>
VStem: 63 146<378 633 734 798.885>
LayerCount: 2
Fore
SplineSet
15 633 m 1x70
 15 721 l 1
 63 721 l 1x70
 63 791 l 2
 63 877 110 902 196 902 c 0
 231 902 260 899 288 884 c 1
 288 800 l 1
 287 800 240 801 240 801 c 2
 209 802 209 790 209 756 c 2
 209 734 l 1
 272 734 l 5
 272 633 l 5
 209 633 l 9xb0
 209 378 l 17
 63 378 l 1
 63 633 l 1
 15 633 l 1x70
EndSplineSet
Validated: 33
Ligature2: "'ordn' Ordinals lookup 21-1" f
EndChar

StartChar: g.superior
Encoding: 382 -1 311
Width: 420
VWidth: 0
Flags: W
HStem: 192 108<170.069 244> 471 101<167.054 235.539> 638 100<166.482 235.572>
VStem: 24 146<300.285 346 572.63 636.413> 236 143<545.065 637.712>
LayerCount: 2
Fore
SplineSet
24 296 m 2
 24 346 l 1
 74 367 l 1
 35 378 17 395 17 443 c 0
 17 465 28 503 63 507 c 1
 27 526 20 573 20 609 c 0
 20 707 82 738 155 738 c 2
 403 738 l 1
 403 660 l 1
 372 643 l 1
 384 628 379 597 379 574 c 3
 379 518 348 471 251 471 c 2
 174 471 l 2
 163 471 143 474 143 458 c 0
 143 440 160 443 175 442 c 2
 275 434 l 2
 362 427 390 398 390 309 c 2
 390 301 l 2
 390 261 383 192 262 192 c 2
 158 192 l 2
 89 192 24 217 24 296 c 2
170 327 m 2
 170 311 171 300 198 300 c 2
 222 300 l 2
 233 300 244 299 244 320 c 2
 244 325 l 2
 244 341 239 344 217 346 c 2
 194 348 l 26
 170 350 l 1
 170 327 l 2
166 608 m 0
 166 575 178 572 195 572 c 2
 210 572 l 2
 235 572 236 583 236 609 c 0
 236 638 219 638 209 638 c 1
 192 638 l 1
 180 638 166 636 166 608 c 0
EndSplineSet
Validated: 33
Ligature2: "'ordn' Ordinals lookup 21-1" g
EndChar

StartChar: h.superior
Encoding: 383 -1 312
Width: 405
VWidth: -100
Flags: W
HStem: 634 109<194.589 323>
VStem: 21 146<378 630.136 697 899> 238 146<378 632.272>
LayerCount: 2
Fore
SplineSet
21 378 m 1
 21 899 l 1
 166 899 l 1
 166 697 l 1
 186 717 214 743 273 743 c 3
 373 743 384 684 384 608 c 2
 384 378 l 9
 238 378 l 17
 238 600 l 2
 238 627 231 634 216 634 c 3
 192 634 175 628 167 611 c 1
 167 378 l 1
 21 378 l 1
EndSplineSet
Validated: 1
Ligature2: "'ordn' Ordinals lookup 21-1" h
EndChar

StartChar: i.superior
Encoding: 384 -1 313
Width: 187
VWidth: -100
Flags: W
HStem: 751 124<19 167>
VStem: 20 146<378 734 751 875>
LayerCount: 2
Fore
SplineSet
19 768 m 2
 19 856 l 2
 19 867 25 875 37 875 c 2
 150 875 l 2
 161 875 167 867 167 856 c 2
 167 768 l 2
 167 757 161 751 150 751 c 2
 37 751 l 2
 26 751 19 757 19 768 c 2
20 378 m 1
 20 734 l 1
 166 734 l 1
 166 378 l 1
 20 378 l 1
EndSplineSet
Validated: 1
Ligature2: "'ordn' Ordinals lookup 21-1" i
EndChar

StartChar: j.superior
Encoding: 385 -1 314
Width: 188
VWidth: -100
Flags: W
HStem: 712 20G<22 168> 753 124<20 167.996>
VStem: 22 146<217.868 732 753 877>
LayerCount: 2
Fore
SplineSet
20 770 m 2
 20 858 l 2
 20 869 26 877 38 877 c 2
 151 877 l 2
 162 877 168 869 168 858 c 2
 168 770 l 2
 168 759 162 753 151 753 c 2
 38 753 l 2
 27 753 20 759 20 770 c 2
22 195 m 1
 22 732 l 1
 168 732 l 1
 168 374 l 2
 169 316 168 247 134 195 c 1
 22 195 l 1
EndSplineSet
Validated: 33
Ligature2: "'ordn' Ordinals lookup 21-1" j
EndChar

StartChar: k.superior
Encoding: 386 -1 315
Width: 426
VWidth: -100
Flags: W
VStem: 21 146<378 532 618 899>
LayerCount: 2
Fore
SplineSet
21 378 m 1
 21 899 l 1
 167 899 l 1
 167 618 l 1
 180 618 l 1
 252 730 l 1
 411 730 l 1
 295 575 l 1
 411 378 l 1
 259 378 l 1
 180 532 l 1
 167 532 l 1
 167 378 l 1
 21 378 l 1
EndSplineSet
Validated: 1
Ligature2: "'ordn' Ordinals lookup 21-1" k
EndChar

StartChar: l.superior
Encoding: 387 -1 316
Width: 239
VWidth: -100
Flags: W
HStem: 378 85<179.834 224>
VStem: 21 146<479.173 900>
LayerCount: 2
Fore
SplineSet
21 504 m 2
 21 900 l 1
 167 900 l 1
 167 539 l 2
 167 494 176 485 191 477 c 2
 191 477 219 463 224 463 c 1
 224 378 l 1
 124 378 l 2
 55 378 21 410 21 504 c 2
EndSplineSet
Validated: 1
Ligature2: "'ordn' Ordinals lookup 21-1" l
EndChar

StartChar: m.superior
Encoding: 388 -1 317
Width: 622
VWidth: -100
Flags: W
HStem: 630 108<189.301 295 401.365 540> 711 20G<21 152.256>
VStem: 21 145<378 626.136> 237 146<378 626.292> 455 146<378 628.946>
LayerCount: 2
Fore
SplineSet
21 378 m 1xb8
 21 731 l 1
 142 731 l 1x78
 162 692 l 1
 186 716 209 738 269 738 c 0
 321 738 350 720 365 692 c 1
 395 716 434 738 490 738 c 0
 590 738 601 680 601 605 c 2
 601 378 l 1
 455 378 l 1
 455 597 l 2
 455 624 448 630 433 630 c 0
 411 630 392 625 383 611 c 1
 383 606 383 601 383 595 c 2
 383 378 l 1
 237 378 l 1
 237 597 l 2
 237 624 230 630 215 630 c 0
 191 630 174 624 166 607 c 1
 166 378 l 1
 21 378 l 1xb8
EndSplineSet
Validated: 1
Ligature2: "'ordn' Ordinals lookup 21-1" m
EndChar

StartChar: n.superior
Encoding: 389 -1 318
Width: 405
VWidth: -100
Flags: W
HStem: 630 108<191.093 322> 711 20G<21 153.256>
VStem: 21 146<378 626.136> 238 146<378 628.946>
LayerCount: 2
Fore
SplineSet
21 378 m 1xb0
 21 731 l 1
 143 731 l 1x70
 163 692 l 1
 188 716 211 738 271 738 c 3
 373 738 384 680 384 605 c 2
 384 378 l 9
 238 378 l 17
 238 597 l 2
 238 624 231 630 216 630 c 3
 192 630 175 624 167 607 c 1
 167 378 l 1
 21 378 l 1xb0
EndSplineSet
Validated: 1
Ligature2: "'ordn' Ordinals lookup 21-1" n
EndChar

StartChar: o.superior
Encoding: 390 -1 319
Width: 403
VWidth: -100
Flags: W
HStem: 375 108<167.108 231.931> 627 108<167.182 231.53>
VStem: 17 146<485.497 625.683> 236 146<484.541 624.89>
LayerCount: 2
Fore
SplineSet
17 550 m 7
 17 694 64 735 199 735 c 7
 335 735 382 690 382 550 c 7
 382 419 339 375 199 375 c 7
 62 375 17 424 17 550 c 7
163 551 m 7
 163 491 167 483 199 483 c 7
 233 483 236 488 236 551 c 7
 236 616 236 627 199 627 c 7
 163 627 163 613 163 551 c 7
EndSplineSet
Validated: 1
EndChar

StartChar: p.superior
Encoding: 391 -1 320
Width: 406
VWidth: -100
Flags: W
HStem: 366 103<169.262 314> 623 119<193.44 291.417>
VStem: 21 146<191 389 471.061 620.818> 240 146<471.633 622.124>
LayerCount: 2
Fore
SplineSet
21 191 m 1
 21 738 l 1
 146 738 l 1
 168 700 l 17
 196 725 220 742 262 742 c 3
 347 742 386 687 386 556 c 0
 386 440 366 366 262 366 c 3
 230 366 193 375 167 389 c 1
 167 191 l 1
 21 191 l 1
168 480 m 1
 175 473 193 469 209 469 c 1
 229 469 240 480 240 549 c 0
 240 616 230 623 211 623 c 3
 190 623 175 619 168 608 c 1
 168 480 l 1
EndSplineSet
Validated: 1
Ligature2: "'ordn' Ordinals lookup 21-1" p
EndChar

StartChar: q.superior
Encoding: 392 -1 321
Width: 403
VWidth: -100
Flags: W
HStem: 364 106<108.5 227.115> 639 102<169.379 230.735>
VStem: 17 146<473.646 634.42> 234 146<191 394 470.66 639>
LayerCount: 2
Fore
SplineSet
17 556 m 3
 17 694 74 741 166 741 c 3
 244 741 341 731 380 714 c 1
 380 191 l 17
 234 191 l 9
 234 394 l 1
 218 372 197 364 164 364 c 3
 53 364 17 424 17 556 c 3
163 560 m 3
 163 491 166 470 201 470 c 3
 214 470 226 472 234 481 c 1
 234 639 l 2
 202 639 l 2
 163 639 163 597 163 560 c 3
EndSplineSet
Validated: 1
Ligature2: "'ordn' Ordinals lookup 21-1" q
EndChar

StartChar: r.superior
Encoding: 393 -1 322
Width: 295
VWidth: -100
Flags: W
HStem: 591 140<182.83 275>
VStem: 21 146<378 587.651>
LayerCount: 2
Fore
SplineSet
21 378 m 1
 21 731 l 1
 151 731 l 1
 162 681 l 1
 174 708 205 735 242 735 c 27
 255 735 264 735 275 731 c 1
 275 591 l 1
 264 591 244 591 223 591 c 27
 196 591 167 591 167 555 c 1
 167 378 l 1
 21 378 l 1
EndSplineSet
Validated: 1
Ligature2: "'ordn' Ordinals lookup 21-1" r
EndChar

StartChar: s.superior
Encoding: 394 -1 323
Width: 358
VWidth: -100
Flags: W
HStem: 375 113<40.6351 203.594> 513 86<155.63 203.171> 622 113<155.761 303.719> 622 85<232.679 321>
VStem: 17 322<545.279 573.601>
LayerCount: 2
Fore
SplineSet
17 610 m 10xe8
 17 639 l 18
 17 691 41 735 113 735 c 3xe8
 196 735 271 729 321 707 c 9
 321 622 l 17xd8
 166 622 l 2
 157 622 151 622 151 612 c 10
 151 608 l 18
 151 599 158 599 166 599 c 2
 238 599 l 2
 314 599 339 562 339 518 c 1
 339 478 l 2
 339 402 293 375 249 375 c 3
 185 375 54 375 34 403 c 9
 34 488 l 17
 191 488 l 18
 204 488 206 493 206 499 c 2
 206 502 l 2
 206 510 203 513 191 513 c 10
 127 513 l 2
 61 513 17 545 17 610 c 10xe8
EndSplineSet
Validated: 1
Ligature2: "'ordn' Ordinals lookup 21-1" s
EndChar

StartChar: t.superior
Encoding: 395 -1 324
Width: 288
VWidth: -100
Flags: W
HStem: 378 85<221.78 267> 634 101<211 270>
VStem: 65 146<477.171 634>
LayerCount: 2
Fore
SplineSet
15 634 m 1
 15 706 l 1
 65 725 l 1
 86 830 l 1
 211 830 l 1
 211 735 l 1
 270 735 l 1
 270 634 l 1
 211 634 l 1
 211 534 l 2
 211 491 220 483 235 476 c 2
 235 476 262 463 267 463 c 1
 267 378 l 1
 159 378 l 2
 101 378 65 411 65 501 c 2
 65 634 l 1
 15 634 l 1
EndSplineSet
Validated: 1
Ligature2: "'ordn' Ordinals lookup 21-1" t
EndChar

StartChar: u.superior
Encoding: 396 -1 325
Width: 406
VWidth: -100
Flags: W
HStem: 371 108<81 211.286> 711 20G<20 166 237 383>
VStem: 20 146<480.054 731> 237 146<482.78 731>
LayerCount: 2
Fore
SplineSet
20 504 m 2
 20 731 l 9
 166 731 l 17
 166 512 l 2
 166 485 173 479 188 479 c 3
 212 479 229 485 237 501 c 1
 237 731 l 1
 383 731 l 1
 383 378 l 1
 261 378 l 1
 237 421 l 5
 211 386 190 371 131 371 c 3
 31 371 20 429 20 504 c 2
EndSplineSet
Validated: 1
Ligature2: "'ordn' Ordinals lookup 21-1" u
EndChar

StartChar: v.superior
Encoding: 397 -1 326
Width: 406
VWidth: -100
Flags: W
HStem: 711 20G<14 155.762 248.952 391>
LayerCount: 2
Fore
SplineSet
14 731 m 29
 151 731 l 21
 201 521 l 13
 254 731 l 29
 391 731 l 29
 274 378 l 29
 125 378 l 29
 14 731 l 29
EndSplineSet
Validated: 1
Ligature2: "'ordn' Ordinals lookup 21-1" v
EndChar

StartChar: w.superior
Encoding: 398 -1 327
Width: 593
VWidth: -100
Flags: W
HStem: 711 20G<14 155.762 237.19 367 435.714 578>
LayerCount: 2
Fore
SplineSet
14 731 m 1
 151 731 l 1
 201 521 l 1
 241 731 l 1
 367 731 l 1
 351 651 l 1
 395 521 l 1
 440 731 l 1
 578 731 l 1
 467 378 l 1
 325 378 l 1
 293 474 l 1
 267 378 l 1
 125 378 l 1
 14 731 l 1
EndSplineSet
Validated: 1
Ligature2: "'ordn' Ordinals lookup 21-1" w
EndChar

StartChar: x.superior
Encoding: 399 -1 328
Width: 419
VWidth: -100
Flags: W
HStem: 711 20G<15 178.877 239.877 405>
LayerCount: 2
Fore
SplineSet
15 378 m 1
 132 557 l 1
 15 731 l 1
 169 731 l 1
 209 650 l 1
 250 731 l 1
 405 731 l 1
 285 555 l 1
 399 378 l 1
 250 378 l 1
 209 464 l 1
 169 378 l 1
 15 378 l 1
EndSplineSet
Validated: 1
Ligature2: "'ordn' Ordinals lookup 21-1" x
EndChar

StartChar: y.superior
Encoding: 400 -1 329
Width: 433
VWidth: -100
Flags: W
HStem: 712 20G<14 151.628 270.494 418>
DStem2: 148 732 14 732 0.213234 -0.977001<0 260.004> 194 375 312 263 0.221543 0.975151<-83.0749 0 106.733 366.074>
LayerCount: 2
Fore
SplineSet
14 732 m 1
 148 732 l 1
 189 506 l 2
 193 485 207 480 218 479 c 9
 275 732 l 1
 418 732 l 9
 312 263 l 17
 258 195 l 1
 153 195 l 1
 194 375 l 0
 117 375 82 420 69 480 c 2
 14 732 l 1
EndSplineSet
Validated: 1
Ligature2: "'ordn' Ordinals lookup 21-1" y
EndChar

StartChar: z.superior
Encoding: 401 -1 330
Width: 355
VWidth: -100
Flags: W
HStem: 379 108<215 334> 623 108<17 160>
VStem: 17 317
LayerCount: 2
Fore
SplineSet
17 623 m 17
 17 731 l 25
 334 731 l 25
 334 623 l 25
 215 487 l 17
 334 487 l 17
 335 486 334 379 334 379 c 25
 27 379 l 25
 27 486 l 25
 160 623 l 17
 17 623 l 17
EndSplineSet
Validated: 33
Ligature2: "'ordn' Ordinals lookup 21-1" z
EndChar

StartChar: zero.tnum
Encoding: 402 -1 331
Width: 609
VWidth: 0
Flags: W
HStem: 0 174<235.21 377.259> 558 174<233.703 376.165>
VStem: 33 194<186.41 547.897> 383 194<180.979 549.701>
LayerCount: 2
Fore
SplineSet
33 192 m 14
 33 530 l 6
 33 660 102 732 227 732 c 6
 391 732 l 6
 536 732 577 644 577 540 c 30
 577 192 l 22
 577 73 511 0 391 0 c 6
 227 0 l 6
 97 0 33 72 33 192 c 14
227 233 m 6
 227 177 263 174 285 174 c 14
 327 174 l 22
 360 174 383 178 383 232 c 6
 383 500 l 6
 383 546 362 558 335 558 c 6
 277 558 l 6
 225 558 227 513 227 500 c 6
 227 233 l 6
EndSplineSet
Substitution2: "'onum' Oldstyle Figures in Latin lookup 5-1" zero.tosf
Substitution2: "'lnum' Lining Figures lookup 19-1" zero
EndChar

StartChar: one.tnum
Encoding: 403 -1 332
Width: 609
VWidth: 0
Flags: W
HStem: 0 154<104 232 426 554> 712 20G<204.37 426>
VStem: 232 194<154 548>
LayerCount: 2
Fore
SplineSet
114 528 m 1
 114 651 l 1
 234 732 l 1
 426 732 l 1
 426 154 l 1
 554 154 l 1
 554 0 l 1
 404 0 254 0 104 0 c 1
 104 154 l 1
 232 154 l 1
 232 548 l 1
 114 528 l 1
EndSplineSet
Substitution2: "'onum' Oldstyle Figures in Latin lookup 5-1" one.tosf
Substitution2: "'lnum' Lining Figures lookup 19-1" one
EndChar

StartChar: two.tnum
Encoding: 404 -1 333
Width: 609
VWidth: 0
Flags: W
HStem: 0 174<354 564> 567 175<74.2822 350.379> 567 145<32 160.75>
VStem: 370 194<450.526 552.249>
LayerCount: 2
Fore
SplineSet
32 567 m 6xb0
 32 712 l 5xb0
 114 730 192 742 336 742 c 7
 492 742 564 642 564 502 c 7
 564 364 416 230 354 174 c 13
 564 174 l 29
 564 0 l 29
 38 0 l 29
 38 168 l 21
 119 222 370 424 370 499 c 5
 370 560 335 567 254 567 c 6xd0
 32 567 l 6xb0
EndSplineSet
Substitution2: "'onum' Oldstyle Figures in Latin lookup 5-1" two.tosf
Substitution2: "'lnum' Lining Figures lookup 19-1" two
EndChar

StartChar: three.tnum
Encoding: 405 -1 334
Width: 609
VWidth: 0
Flags: W
HStem: -7 175<64.0713 356.215> 21 147<44 146.447> 276 175<153.9 353.177> 560 174<58.2463 354.625> 560 146<37 138.492>
VStem: 360 194<175.368 265.988 459.484 551.659>
LayerCount: 2
Fore
SplineSet
37 560 m 5x2c
 37 706 l 5x2c
 125 737 248 736 365 734 c 4
 475 732 554 668 554 549 c 6
 554 510 l 6
 554 437 531 386 470 364 c 5
 533 344 554 286 554 210 c 6
 554 181 l 6
 554 60 480 -7 358 -7 c 4xb4
 244 -7 131 -10 43 21 c 5
 44 168 l 5x64
 262 168 l 6
 340 168 360 169 360 216 c 6
 360 225 l 6
 360 271 332 273 268 276 c 6
 105 283 l 6
 105 441 l 5
 268 451 l 6
 337 454 362 454 362 500 c 6
 362 509 l 6
 362 560 320 560 268 560 c 6xb4
 37 560 l 5x2c
EndSplineSet
Substitution2: "'onum' Oldstyle Figures in Latin lookup 5-1" three.tosf
Substitution2: "'lnum' Lining Figures lookup 19-1" three
EndChar

StartChar: four.tnum
Encoding: 406 -1 335
Width: 609
VWidth: 0
Flags: W
HStem: 2 21G<375 569> 137 178<278 375> 712 20G<218.693 435>
VStem: 375 194<2 137 315 449>
LayerCount: 2
Fore
SplineSet
16 224 m 5
 227 732 l 5
 435 732 l 5
 278 315 l 5
 375 315 l 5
 375 449 l 5
 402 527 l 5
 569 527 l 5
 569 315 l 5
 629 315 l 5
 629 166 l 5
 569 137 l 5
 569 2 l 5
 375 2 l 5
 375 137 l 5
 50 137 l 5
 16 224 l 5
EndSplineSet
Substitution2: "'onum' Oldstyle Figures in Latin lookup 5-1" four.tosf
Substitution2: "'lnum' Lining Figures lookup 19-1" four
EndChar

StartChar: five.tnum
Encoding: 407 -1 336
Width: 609
VWidth: 0
Flags: W
HStem: -4 179<55.3384 360.974> 20 155<43 225.408> 312 164<252.219 360.832> 558 174<255 529>
VStem: 366 194<181.808 304.347>
LayerCount: 2
Fore
SplineSet
43 20 m 5x78
 43 175 l 5x78
 307 175 l 6
 369 175 366 208 366 228 c 6
 366 259 l 6
 366 292 356 312 318 312 c 6
 274 312 l 6
 242 312 230 298 230 267 c 5
 44 267 l 5
 66 732 l 21
 529 732 l 5
 529 558 l 5
 255 558 l 29
 251 456 l 5
 277 472 303 475 316 476 c 4
 342 478 379 477 392 476 c 4
 508 466 560 386 560 280 c 6
 560 186 l 6
 560 49 455 -4 357 -4 c 7xb8
 233 -4 177 -3 43 20 c 5x78
EndSplineSet
Substitution2: "'onum' Oldstyle Figures in Latin lookup 5-1" five.tosf
Substitution2: "'lnum' Lining Figures lookup 19-1" five
EndChar

StartChar: six.tnum
Encoding: 408 -1 337
Width: 609
VWidth: 0
Flags: W
HStem: -1 174<243.625 365.338> 294 164<229.731 366.224> 564 148<402.118 538>
VStem: 34 194<190.953 294 437 539.983> 368 194<175.261 289.085>
LayerCount: 2
Fore
SplineSet
34 384 m 4
 34 649 117 719 206 733 c 4
 306 749 445 732 538 712 c 5
 538 564 l 5
 319 564 l 6
 228 564 228 510 228 437 c 5
 265 456 297 458 381 458 c 5
 527 458 562 378 562 269 c 6
 562 178 l 6
 562 48 487 -1 371 -1 c 6
 233 -1 l 6
 111 -1 34 69 34 384 c 4
228 294 m 5
 228 188 243 173 308 173 c 6
 325 173 l 6
 358 173 368 182 368 219 c 6
 368 239 l 6
 368 282 367 294 330 294 c 6
 228 294 l 5
EndSplineSet
Substitution2: "'onum' Oldstyle Figures in Latin lookup 5-1" six.tosf
Substitution2: "'lnum' Lining Figures lookup 19-1" six
EndChar

StartChar: seven.tnum
Encoding: 409 -1 338
Width: 609
VWidth: 0
Flags: W
HStem: 0 21G<131 344.003> 558 174<38 329>
DStem2: 131 0 337 0 0.330479 0.943813<68.0787 592.083>
LayerCount: 2
Fore
SplineSet
38 558 m 1
 38 732 l 1
 519 732 l 5
 566 654 l 5
 337 0 l 5
 131 0 l 5
 329 558 l 5
 38 558 l 1
EndSplineSet
Substitution2: "'onum' Oldstyle Figures in Latin lookup 5-1" seven.tosf
Substitution2: "'lnum' Lining Figures lookup 19-1" seven
EndChar

StartChar: eight.tnum
Encoding: 410 -1 339
Width: 609
VWidth: 0
Flags: W
HStem: 0 164<235.092 375.689> 297 153<235.422 374.362> 573 164<235.125 374.031>
VStem: 38 194<169.681 293.077 452.408 570.484> 378 194<170.128 291.553 454.25 568.94>
LayerCount: 2
Fore
SplineSet
38 179 m 6
 38 232 l 6
 38 282 56 340 112 349 c 5
 38 386 38 438 38 499 c 6
 38 564 l 6
 38 704 131 737 234 737 c 6
 390 737 l 6
 508 737 572 691 572 563 c 6
 572 519 l 6
 572 492 562 412 497 403 c 5
 566 390 572 304 572 261 c 6
 572 185 l 6
 572 22 486 0 389 0 c 6
 234 0 l 6
 44 0 38 115 38 179 c 6
232 210 m 6
 232 175 244 164 279 164 c 6
 331 164 l 6
 375 164 378 182 378 210 c 6
 378 250 l 6
 378 276 372 297 333 297 c 6
 279 297 l 6
 237 297 232 277 232 250 c 6
 232 210 l 6
232 494 m 6
 232 455 245 450 279 450 c 6
 331 450 l 6
 375 450 378 464 378 494 c 6
 378 524 l 6
 378 572 355 573 331 573 c 6
 279 573 l 6
 249 573 232 570 232 524 c 6
 232 494 l 6
EndSplineSet
Substitution2: "'onum' Oldstyle Figures in Latin lookup 5-1" eight.tosf
Substitution2: "'lnum' Lining Figures lookup 19-1" eight
EndChar

StartChar: nine.tnum
Encoding: 411 -1 340
Width: 609
VWidth: 0
Flags: W
HStem: 20 148<58 193.882> 274 164<229.776 366.269> 559 174<230.662 352.375>
VStem: 34 194<442.915 556.739> 368 194<192.017 295 438 541.047>
LayerCount: 2
Fore
SplineSet
34 463 m 6
 34 554 l 6
 34 684 109 733 225 733 c 6
 363 733 l 6
 485 733 562 663 562 348 c 4
 562 83 479 13 390 -1 c 4
 290 -17 151 0 58 20 c 5
 58 168 l 5
 277 168 l 6
 368 168 368 222 368 295 c 5
 331 276 299 274 215 274 c 5
 69 274 34 354 34 463 c 6
228 493 m 6
 228 450 229 438 266 438 c 6
 368 438 l 5
 368 544 353 559 288 559 c 6
 271 559 l 6
 238 559 228 550 228 513 c 6
 228 493 l 6
EndSplineSet
Substitution2: "'onum' Oldstyle Figures in Latin lookup 5-1" nine.tosf
Substitution2: "'lnum' Lining Figures lookup 19-1" nine
EndChar

StartChar: zero.tosf
Encoding: 412 -1 341
Width: 609
VWidth: 0
Flags: W
HStem: 0 174<235.21 377.259> 459 174<233.703 376.165>
VStem: 33 194<186.41 448.897> 383 194<180.979 450.701>
LayerCount: 2
Fore
SplineSet
33 192 m 10
 33 431 l 2
 33 561 102 633 227 633 c 2
 391 633 l 2
 536 633 577 545 577 441 c 26
 577 192 l 18
 577 73 511 0 391 0 c 2
 227 0 l 2
 97 0 33 72 33 192 c 10
227 233 m 2
 227 177 263 174 285 174 c 10
 327 174 l 18
 360 174 383 178 383 232 c 2
 383 401 l 2
 383 447 362 459 335 459 c 2
 277 459 l 2
 225 459 227 414 227 401 c 2
 227 233 l 2
EndSplineSet
Substitution2: "'lnum' Lining Figures lookup 19-1" zero
EndChar

StartChar: one.tosf
Encoding: 413 -1 342
Width: 609
VWidth: 0
Flags: W
HStem: 0 154<89 217 411 539>
VStem: 217 194<154 447>
LayerCount: 2
Fore
SplineSet
99 427 m 5
 99 550 l 5
 219 632 l 5
 411 632 l 5
 411 154 l 5
 539 154 l 5
 539 0 l 5
 89 0 l 5
 89 154 l 5
 217 154 l 5
 217 447 l 5
 99 427 l 5
EndSplineSet
Substitution2: "'lnum' Lining Figures lookup 19-1" one
EndChar

StartChar: two.tosf
Encoding: 414 -1 343
Width: 609
VWidth: 0
Flags: W
HStem: 0 174<366 564> 467 175<74.2822 357.385> 467 145<32 160.75>
VStem: 370 194<375.487 456.466>
LayerCount: 2
Fore
SplineSet
32 467 m 6xb0
 32 612 l 5xb0
 114 630 192 642 336 642 c 7
 492 642 564 582 564 442 c 7
 564 304 422 208 366 174 c 13
 564 174 l 29
 564 0 l 29
 38 0 l 29
 38 168 l 21
 125 216 370 344 370 419 c 5
 370 466 335 467 254 467 c 6xd0
 32 467 l 6xb0
EndSplineSet
Substitution2: "'lnum' Lining Figures lookup 19-1" two
EndChar

StartChar: three.tosf
Encoding: 415 -1 344
Width: 609
VWidth: 0
Flags: W
HStem: -102 175<64.0713 356.215> -74 147<44 146.447> 181 175<153.9 353.177> 465 174<58.2463 354.625> 465 146<37 138.492>
VStem: 360 194<80.3677 170.988 364.484 456.659>
LayerCount: 2
Fore
SplineSet
37 465 m 1x2c
 37 611 l 1x2c
 125 642 248 641 365 639 c 0
 475 637 554 573 554 454 c 2
 554 415 l 2
 554 342 531 291 470 269 c 1
 533 249 554 191 554 115 c 2
 554 86 l 2
 554 -35 480 -102 358 -102 c 0xb4
 244 -102 131 -105 43 -74 c 1
 44 73 l 1x64
 262 73 l 2
 340 73 360 74 360 121 c 2
 360 130 l 2
 360 176 332 178 268 181 c 2
 105 188 l 2
 105 346 l 1
 268 356 l 2
 337 359 362 359 362 405 c 2
 362 414 l 2
 362 465 320 465 268 465 c 2xb4
 37 465 l 1x2c
EndSplineSet
Substitution2: "'lnum' Lining Figures lookup 19-1" three
EndChar

StartChar: four.tosf
Encoding: 416 -1 345
Width: 609
VWidth: 0
Flags: W
HStem: 37 178<261 358>
VStem: 358 194<-98 37 215 349>
LayerCount: 2
Fore
SplineSet
-1 124 m 5
 210 632 l 5
 418 632 l 5
 261 215 l 5
 358 215 l 5
 358 349 l 5
 385 427 l 5
 552 427 l 5
 552 215 l 5
 612 215 l 5
 612 66 l 5
 552 37 l 5
 552 -98 l 5
 358 -98 l 5
 358 37 l 5
 33 37 l 5
 -1 124 l 5
EndSplineSet
Substitution2: "'lnum' Lining Figures lookup 19-1" four
EndChar

StartChar: five.tosf
Encoding: 417 -1 346
Width: 609
VWidth: 0
Flags: W
HStem: -104 179<55.3384 360.974> -80 155<43 225.408> 212 164<252.219 360.832> 458 174<255 529>
VStem: 366 194<81.8077 204.347>
LayerCount: 2
Fore
SplineSet
43 75 m 1x78
 307 75 l 2
 369 75 366 108 366 128 c 2
 366 159 l 2
 366 192 356 212 318 212 c 2
 274 212 l 2
 242 212 230 198 230 167 c 1
 44 167 l 1
 66 632 l 17
 529 632 l 1
 529 458 l 1
 255 458 l 25
 251 356 l 1
 277 372 303 375 316 376 c 0
 342 378 379 377 392 376 c 0
 508 366 560 286 560 180 c 2
 560 86 l 2
 560 -51 455 -104 357 -104 c 3xb8
 233 -104 177 -103 43 -80 c 1
 43 75 l 1x78
EndSplineSet
Substitution2: "'lnum' Lining Figures lookup 19-1" five
EndChar

StartChar: six.tosf
Encoding: 418 -1 347
Width: 609
VWidth: 0
Flags: W
HStem: -1 174<243.625 365.338> 294 164<229.731 366.224> 564 148<402.118 538>
VStem: 34 194<190.953 294 437 539.983> 368 194<175.261 289.085>
LayerCount: 2
Fore
SplineSet
34 384 m 0
 34 649 117 719 206 733 c 0
 306 749 445 732 538 712 c 1
 538 564 l 1
 319 564 l 2
 228 564 228 510 228 437 c 1
 265 456 297 458 381 458 c 1
 527 458 562 378 562 269 c 2
 562 178 l 2
 562 48 487 -1 371 -1 c 2
 233 -1 l 2
 111 -1 34 69 34 384 c 0
228 294 m 1
 228 188 243 173 308 173 c 2
 325 173 l 2
 358 173 368 182 368 219 c 2
 368 239 l 2
 368 282 367 294 330 294 c 2
 228 294 l 1
EndSplineSet
Substitution2: "'lnum' Lining Figures lookup 19-1" six
EndChar

StartChar: seven.tosf
Encoding: 419 -1 348
Width: 609
VWidth: 0
Flags: W
HStem: 458 174<38 329>
DStem2: 131 -100 337 -100 0.330479 0.943813<68.0787 592.083>
LayerCount: 2
Fore
SplineSet
38 458 m 1
 38 632 l 1
 519 632 l 1
 566 554 l 1
 337 -100 l 1
 131 -100 l 1
 329 458 l 1
 38 458 l 1
EndSplineSet
Substitution2: "'lnum' Lining Figures lookup 19-1" seven
EndChar

StartChar: eight.tosf
Encoding: 420 -1 349
Width: 609
VWidth: 0
Flags: W
HStem: 0 164<235.092 375.689> 297 153<235.422 374.362> 573 164<235.125 374.031>
VStem: 38 194<169.681 293.077 452.408 570.484> 378 194<170.128 291.553 454.25 568.94>
LayerCount: 2
Fore
SplineSet
38 179 m 2
 38 232 l 2
 38 282 56 340 112 349 c 1
 38 386 38 438 38 499 c 2
 38 564 l 2
 38 704 131 737 234 737 c 2
 390 737 l 2
 508 737 572 691 572 563 c 2
 572 519 l 2
 572 492 562 412 497 403 c 1
 566 390 572 304 572 261 c 2
 572 185 l 2
 572 22 486 0 389 0 c 2
 234 0 l 2
 44 0 38 115 38 179 c 2
232 210 m 2
 232 175 244 164 279 164 c 2
 331 164 l 2
 375 164 378 182 378 210 c 2
 378 250 l 2
 378 276 372 297 333 297 c 2
 279 297 l 2
 237 297 232 277 232 250 c 2
 232 210 l 2
232 494 m 2
 232 455 245 450 279 450 c 2
 331 450 l 2
 375 450 378 464 378 494 c 2
 378 524 l 2
 378 572 355 573 331 573 c 2
 279 573 l 2
 249 573 232 570 232 524 c 2
 232 494 l 2
EndSplineSet
Substitution2: "'lnum' Lining Figures lookup 19-1" eight
EndChar

StartChar: nine.tosf
Encoding: 421 -1 350
Width: 609
VWidth: 0
Flags: W
HStem: -80 148<58 193.882> 174 164<229.776 366.269> 459 174<230.662 352.375>
VStem: 34 194<342.915 456.739> 368 194<92.0173 195 338 441.047>
LayerCount: 2
Fore
SplineSet
34 363 m 2
 34 454 l 2
 34 584 109 633 225 633 c 2
 363 633 l 2
 485 633 562 563 562 248 c 0
 562 -17 479 -87 390 -101 c 0
 290 -117 151 -100 58 -80 c 1
 58 68 l 1
 277 68 l 2
 368 68 368 122 368 195 c 1
 331 176 299 174 215 174 c 1
 69 174 34 254 34 363 c 2
228 393 m 2
 228 350 229 338 266 338 c 2
 368 338 l 1
 368 444 353 459 288 459 c 2
 271 459 l 2
 238 459 228 450 228 413 c 2
 228 393 l 2
EndSplineSet
Substitution2: "'lnum' Lining Figures lookup 19-1" nine
EndChar

StartChar: partialdiff
Encoding: 422 8706 351
Width: 625
VWidth: 0
Flags: W
HStem: -5 171<240.927 335.631> 294 171<237.536 350.909> 566 174<181.117 347.464>
VStem: 32 192<183.322 277.07> 384 195<408 525.109>
LayerCount: 2
Fore
SplineSet
32 227 m 1
 32 378 122 465 256 465 c 3
 307 465 366 450 384 408 c 1
 384 514 357 566 292 566 c 3
 214 566 136 538 99 515 c 1
 76 662 l 1
 143 706 210 740 295 740 c 3
 490 740 579 603 579 387 c 0
 579 154 500 -5 285 -5 c 3
 154 -5 32 69 32 227 c 1
224 230 m 3
 224 187 257 166 293 166 c 3
 353 166 367 248 367 278 c 1
 353 286 328 294 298 294 c 3
 244 294 224 267 224 230 c 3
EndSplineSet
Validated: 1
EndChar

StartChar: summation
Encoding: 423 8721 352
Width: 559
VWidth: 0
Flags: W
HStem: -200 177<262 548> 558 174<262 548>
LayerCount: 2
Fore
SplineSet
22 -23 m 1
 236 270 l 1
 22 558 l 1
 22 732 l 1
 548 732 l 1
 548 558 l 9
 262 558 l 17
 474 270 l 9
 262 -23 l 25
 548 -23 l 17
 548 -200 l 1
 22 -200 l 1
 22 -23 l 1
EndSplineSet
Validated: 1
EndChar

StartChar: product
Encoding: 424 8719 353
Width: 656
VWidth: 0
Flags: W
HStem: 0 21G<77 271 384 578> 558 174<11 77 271 384 578 645>
VStem: 77 194<0 558> 384 194<0 558>
LayerCount: 2
Fore
SplineSet
11 558 m 1
 11 732 l 1
 645 732 l 1
 645 558 l 1
 578 558 l 1
 578 0 l 1
 384 0 l 1
 384 558 l 1
 271 558 l 1
 271 0 l 1
 77 0 l 1
 77 558 l 1
 11 558 l 1
EndSplineSet
Validated: 1
EndChar

StartChar: pi
Encoding: 425 960 354
Width: 650
VWidth: 0
Flags: W
HStem: -5 145<539.223 623.151> 357 174<11 77 271 338 532 591>
VStem: 77 194<0 357> 338 194<149.465 357>
LayerCount: 2
Fore
SplineSet
11 357 m 1
 11 531 l 1
 591 531 l 1
 591 357 l 1
 532 357 l 1
 532 206 l 2
 532 147 551 140 601 140 c 2
 639 140 l 1
 639 26 l 1
 614 9 573 -5 501 -5 c 3
 394 -5 338 64 338 196 c 2
 338 357 l 1
 271 357 l 1
 271 0 l 1
 77 0 l 1
 77 357 l 1
 11 357 l 1
EndSplineSet
Validated: 1
EndChar

StartChar: integral
Encoding: 426 8747 355
Width: 443
VWidth: 0
Flags: W
HStem: -204 144<16.3979 98.9492> 656 144<342.588 424.633> 656 119<353.952 432>
VStem: 124 194<-29.2629 629.411>
LayerCount: 2
Fore
SplineSet
11 -60 m 5xd0
 51 -60 l 5
 121 -60 124 18 124 88 c 13
 124 506 l 22
 124 674 176 800 293 800 c 7xd0
 385 800 414 782 432 775 c 5
 432 656 l 5xb0
 394 656 l 5
 325 656 318 593 318 506 c 5
 318 88 l 6
 318 -98 272 -204 152 -204 c 7
 79 -204 32 -193 11 -179 c 5
 11 -60 l 5xd0
EndSplineSet
Validated: 1
EndChar

StartChar: Omega
Encoding: 427 937 356
Width: 751
VWidth: 0
Flags: W
HStem: 0 157<42 101.182 653.4 715> 565 174<295.598 451.809>
VStem: 36 194<268.135 492.853> 516 194<264.466 492.442>
LayerCount: 2
Fore
SplineSet
36 398 m 0
 36 552 114 739 376 739 c 3
 624 739 710 575 710 393 c 3
 710 276 675 226 627 167 c 1
 715 157 l 1
 715 0 l 1
 447 0 l 1
 447 168 l 1
 503 224 516 296 516 385 c 3
 516 450 496 565 376 565 c 3
 246 565 230 450 230 380 c 3
 230 293 240 230 302 168 c 1
 302 0 l 1
 42 0 l 1
 42 158 l 1
 135 168 l 1
 71 212 36 286 36 398 c 0
EndSplineSet
Validated: 1
EndChar

StartChar: radical
Encoding: 428 8730 357
Width: 685
VWidth: 0
Flags: W
HStem: 0 21G<155.902 366.875>
DStem2: 248 263 359 0 0.366372 0.930468<0 577.699>
LayerCount: 2
Fore
SplineSet
11 204 m 1
 11 378 l 1
 201 378 l 1
 248 263 l 1
 461 800 l 1
 674 800 l 1
 359 0 l 1
 166 0 l 1
 63 204 l 1
 11 204 l 1
EndSplineSet
Validated: 1
EndChar

StartChar: florin
Encoding: 429 402 358
Width: 594
VWidth: 0
Flags: W
HStem: -204 144<30 121.3> 357 134<156 209 424 498> 656 144<472.287 565> 656 119<508.924 565>
DStem2: 167 88 361 88 0.155963 0.987763<-123.989 272.259 438.151 583.02>
LayerCount: 2
Fore
SplineSet
11 -179 m 1xe0
 30 -60 l 1
 70 -60 l 2
 140 -60 156 18 167 88 c 2
 209 357 l 1
 135 357 l 1
 156 491 l 1
 230 491 l 1
 233 506 l 2
 260 674 331 800 448 800 c 0xe0
 540 800 566 782 583 775 c 1xd0
 565 656 l 1
 527 656 l 2
 458 656 441 593 427 506 c 2
 424 491 l 1
 519 491 l 1
 498 357 l 1
 403 357 l 1
 361 88 l 2
 332 -98 268 -204 148 -204 c 0
 75 -204 30 -193 11 -179 c 1xe0
EndSplineSet
Validated: 1
EndChar

StartChar: approxequal
Encoding: 430 8776 359
Width: 492
VWidth: 0
Flags: W
HStem: 187 115<246.851 400.917> 225 114<94.3252 257.743> 371 115<246.851 400.917> 409 114<94.3252 257.743>
LayerCount: 2
Fore
SplineSet
28 268 m 17x80
 61 300 111 339 175 339 c 27x40
 235 339 264 302 324 302 c 27
 371 302 397 314 437 341 c 9
 464 262 l 17
 429 223 384 187 322 187 c 3x80
 277 187 233 225 173 225 c 27x40
 122 225 97 202 49 187 c 25
 28 268 l 17x80
28 452 m 17
 61 484 111 523 175 523 c 27x10
 235 523 264 486 324 486 c 27
 371 486 397 498 437 525 c 9
 464 446 l 17
 429 407 384 371 322 371 c 3x20
 277 371 233 409 173 409 c 27x10
 122 409 97 386 49 371 c 25x20
 28 452 l 17
EndSplineSet
Validated: 1
EndChar

StartChar: uni2206
Encoding: 431 8710 360
Width: 706
VWidth: 0
Flags: W
HStem: 0 164<267 489> 712 20G<313.503 404.169>
DStem2: 11 0 267 164 0.391034 0.920376<251.046 539.41> 396 732 376 431 0.37814 -0.925748<271.087 560.992>
LayerCount: 2
Fore
SplineSet
11 0 m 1
 322 732 l 1
 396 732 l 1
 695 0 l 1
 11 0 l 1
267 164 m 1
 489 164 l 5
 376 431 l 1
 267 164 l 1
EndSplineSet
Validated: 1
EndChar

StartChar: lozenge
Encoding: 432 9674 361
Width: 504
VWidth: 0
Flags: W
HStem: 0 21G<206.901 302.777> 712 20G<206.468 303.198>
LayerCount: 2
Fore
SplineSet
11 373 m 1
 218 732 l 1
 292 732 l 1
 493 373 l 1
 292 0 l 1
 218 0 l 1
 11 373 l 1
190 373 m 1
 255 248 l 1
 315 373 l 1
 255 489 l 1
 190 373 l 1
EndSplineSet
Validated: 1
EndChar

StartChar: onequarter
Encoding: 188 188 362
Width: 954
VWidth: 0
Flags: W
HStem: 0 21G<139 282.104 757 903> 80 134<697 757>
VStem: 88 146<255 620> 757 146<2 80 214 301>
DStem2: 139 0 270 0 0.51776 0.855526<67.8265 900.031> 512 146 697 214 0.382112 0.924116<133.531 369.001>
LayerCount: 2
Fore
SplineSet
9 607 m 5
 9 687 l 5
 90 742 l 5
 234 742 l 5
 234 255 l 5
 88 255 l 5
 88 620 l 5
 9 607 l 5
139 0 m 1
 605 770 l 1
 736 770 l 1
 270 0 l 1
 139 0 l 1
512 146 m 1
 653 487 l 1
 802 487 l 1
 697 214 l 1
 757 214 l 1
 757 301 l 1
 778 352 l 1
 903 352 l 1
 903 214 l 1
 943 214 l 1
 943 102 l 1
 903 80 l 1
 903 2 l 1
 757 2 l 1
 757 80 l 1
 535 80 l 1
 512 146 l 1
EndSplineSet
Validated: 1
Ligature2: "'frac' Diagonal Fractions lookup 11 subtable" one fraction four
Ligature2: "'frac' Diagonal Fractions lookup 11 subtable" one slash four
EndChar

StartChar: brokenbar
Encoding: 166 166 363
Width: 250
VWidth: 0
Flags: W
VStem: 48 154<-72 256 429 770>
LayerCount: 2
Fore
SplineSet
48 -72 m 1
 48 256 l 1
 202 256 l 1
 202 -72 l 1
 48 -72 l 1
48 429 m 1
 48 770 l 1
 202 770 l 1
 202 429 l 1
 48 429 l 1
EndSplineSet
Validated: 1
EndChar

StartChar: currency
Encoding: 164 164 364
Width: 437
VWidth: 0
Flags: W
HStem: 151 95<173.313 268.69> 373 95<174.335 267.902>
VStem: 63 95<261.691 357.113> 284 95<261.681 357.233>
DStem2: 84 488 29 429 0.701427 -0.712741<3.4732 72.7311 373.987 441.956> 83 233 138 175 0.711582 0.702603<-68.7743 5.19997 299.062 370.543>
LayerCount: 2
Fore
SplineSet
29 429 m 1
 84 488 l 1
 133 441 l 1
 158 458 189 468 221 468 c 0
 251 468 279 459 303 444 c 1
 348 492 l 1
 409 439 l 1
 359 387 l 1
 372 364 379 337 379 309 c 0
 379 274 368 242 349 216 c 1
 394 173 l 1
 342 112 l 1
 286 165 l 1
 266 156 244 151 221 151 c 0
 191 151 162 160 138 175 c 1
 92 126 l 1
 33 182 l 1
 83 233 l 1
 71 256 63 281 63 309 c 0
 63 335 69 360 80 381 c 1
 29 429 l 1
158 309 m 0
 158 274 186 246 221 246 c 0
 256 246 284 274 284 309 c 0
 284 344 256 373 221 373 c 0
 186 373 158 344 158 309 c 0
EndSplineSet
Validated: 1
EndChar

StartChar: onehalf
Encoding: 189 189 365
Width: 1005
VWidth: 0
Flags: W
HStem: 0 131<826 983> 363 131<608.717 836.215> 363 109<606 816.253>
VStem: 88 146<255 620> 837 146<295.264 358.225>
DStem2: 129 0 260 0 0.51776 0.855526<67.8265 900.031>
LayerCount: 2
Fore
SplineSet
9 607 m 1x98
 9 687 l 1
 90 742 l 1
 234 742 l 1
 234 255 l 1
 88 255 l 1
 88 620 l 1
 9 607 l 1x98
129 0 m 1
 595 770 l 1
 726 770 l 1
 260 0 l 1
 129 0 l 1
606 363 m 2xb8
 606 472 l 1xb8
 664 485 719 494 821 494 c 3
 932 494 983 430 983 341 c 3
 983 253 873 167 826 131 c 9
 983 131 l 25
 983 0 l 25
 610 0 l 25
 610 127 l 17
 665 161 837 288 837 335 c 1
 837 360 814 363 758 363 c 2xd8
 606 363 l 2xb8
EndSplineSet
Validated: 1
Ligature2: "'frac' Diagonal Fractions lookup 11 subtable" one fraction two
Ligature2: "'frac' Diagonal Fractions lookup 11 subtable" one slash two
EndChar

StartChar: threequarters
Encoding: 190 190 366
Width: 1066
VWidth: 0
Flags: W
HStem: 0 21G<244 387.104 852 998> 80 134<792 852> 250 131<23.9655 238> 271 110<22 237.41> 431 131<77 237.778> 436 118<63 161> 614 130<19.9252 239.916> 614 109<17 238.298>
VStem: 240 144<382.652 427.606 564.266 611.528> 852 146<2 80 214 301>
DStem2: 244 0 375 0 0.51776 0.855526<67.8265 900.031> 607 146 792 214 0.382112 0.924116<133.531 369.001>
LayerCount: 2
Fore
SplineSet
17 614 m 1xc1c0
 17 723 l 1xc1c0
 79 746 167 746 250 744 c 0
 328 743 384 699 384 620 c 2
 384 594 l 2
 384 545 367 512 321 497 c 1
 368 484 384 445 384 394 c 2
 384 375 l 2
 384 295 332 250 245 250 c 0xe2c0
 164 250 84 248 21 271 c 1
 22 381 l 1xd0c0
 171 381 l 2
 224 381 238 381 238 403 c 2
 238 407 l 2
 238 428 219 430 175 431 c 2xe8c0
 63 436 l 2
 63 554 l 1xc4c0
 175 562 l 2
 223 563 240 563 240 585 c 2
 240 590 l 2
 240 614 211 614 175 614 c 2xcac0
 17 614 l 1xc1c0
244 0 m 1
 710 770 l 1
 841 770 l 1
 375 0 l 1
 244 0 l 1
607 146 m 1
 748 487 l 1
 897 487 l 1
 792 214 l 1
 852 214 l 1
 852 301 l 1
 873 352 l 1
 998 352 l 1
 998 214 l 1
 1038 214 l 1
 1038 102 l 1
 998 80 l 1
 998 2 l 1
 852 2 l 1
 852 80 l 1
 630 80 l 1
 607 146 l 1
EndSplineSet
Validated: 33
Ligature2: "'frac' Diagonal Fractions lookup 11 subtable" three fraction four
Ligature2: "'frac' Diagonal Fractions lookup 11 subtable" three slash four
EndChar

StartChar: Hbar
Encoding: 435 294 369
Width: 710
VWidth: 0
Flags: W
HStem: 0 21G<76 270 440 634> 267 174<270 440> 516 74<11 76 270 440 634 699> 712 20G<76 270 440 634>
VStem: 76 194<0 267 441 516 590 732> 440 194<0 267 441 516 590 732>
LayerCount: 2
Fore
SplineSet
11 516 m 1
 11 590 l 1
 76 590 l 1
 76 732 l 1
 270 732 l 1
 270 590 l 1
 440 590 l 1
 440 732 l 1
 634 732 l 1
 634 590 l 1
 699 590 l 1
 699 516 l 1
 634 516 l 1
 634 0 l 1
 440 0 l 1
 440 267 l 1
 270 267 l 1
 270 0 l 1
 76 0 l 1
 76 516 l 1
 11 516 l 1
270 441 m 1
 440 441 l 1
 440 516 l 1
 270 516 l 1
 270 441 l 1
EndSplineSet
Validated: 1
Substitution2: "'c2sc' Capitals to Small Capitals in Latin lookup 17 subtable" hbar.smcp
EndChar

StartChar: hbar
Encoding: 440 295 374
Width: 581
VWidth: 0
Flags: W
HStem: 0 21G<60 254 360 554> 396 144<310.057 469> 600 74<0 60 253 348> 762 20G<60 253>
VStem: 60 193<0 383.959 479 600 674 782> 360 194<0 390.498>
LayerCount: 2
Fore
SplineSet
0 600 m 1
 0 674 l 1
 60 674 l 1
 60 782 l 1
 253 782 l 1
 253 674 l 1
 348 674 l 1
 348 600 l 1
 253 600 l 1
 253 479 l 1
 299 508 319 540 400 540 c 0
 538 540 554 452 554 340 c 2
 554 0 l 1
 360 0 l 1
 360 344 l 2
 360 386 349 396 327 396 c 0
 290 396 266 386 254 359 c 1
 254 0 l 1
 60 0 l 1
 60 600 l 1
 0 600 l 1
EndSplineSet
Validated: 1
Substitution2: "'smcp' Lowercase to Small Capitals lookup 16-1" hbar.smcp
EndChar

StartChar: jcircumflex
Encoding: 442 309 376
Width: 264
VWidth: 0
Flags: W
HStem: 511 20G<42 236>
VStem: 42 194<-211.716 531>
LayerCount: 2
Fore
SplineSet
-22 594 m 5
 78 734 l 5
 208 734 l 5
 300 594 l 5
 188 594 l 5
 138 645 l 5
 90 594 l 5
 -22 594 l 5
42 -270 m 1
 42 531 l 1
 236 531 l 1
 236 -4 l 2
 237 -90 235 -192 190 -270 c 1
 42 -270 l 1
78 734 m 5
208 734 m 5
EndSplineSet
Validated: 33
Substitution2: "'smcp' Lowercase to Small Capitals lookup 16-1" jcircumflex.smcp
EndChar

StartChar: f_f
Encoding: 457 64256 391
Width: 807
VWidth: 0
Flags: W
HStem: 0 21G<108 302 483 677> 397 134<304 483 677 775> 641 135<309.088 407.559> 652 134<679.932 790.502>
VStem: 108 194<0 397 531 633.617> 483 194<0 397 531 646.454>
LayerCount: 2
Fore
SplineSet
11 397 m 1xdc
 11 514 l 1
 110 531 l 1
 110 620 l 2
 110 692 153 776 273 776 c 0
 322 776 375 770 413 752 c 1
 413 640 l 1
 412 640 350 641 350 641 c 2xec
 305 642 304 615 304 567 c 2
 304 531 l 1
 483 531 l 1
 483 630 l 2
 483 751 547 786 667 786 c 0
 716 786 757 782 796 762 c 1
 796 651 l 1
 795 651 723 652 723 652 c 2
 673 653 677 632 677 570 c 2
 677 531 l 1
 775 531 l 1
 775 397 l 1
 677 397 l 9
 677 0 l 17
 483 0 l 1
 483 397 l 1
 302 397 l 1
 302 0 l 1
 108 0 l 1
 108 397 l 1
 11 397 l 1xdc
EndSplineSet
Validated: 33
Ligature2: "'dlig' Discretionary Ligatures lookup 14-1" f f
LCarets2: 1 0 
EndChar

StartChar: f_f_i
Encoding: 458 64259 392
Width: 1037
VWidth: 0
Flags: W
HStem: 0 21G<108 303 474 668 810 1004> 397 134<303 474 668 810> 641 135<309.732 407.559> 652 134<701.199 970.608>
VStem: 108 195<0 397 531 633.617> 474 194<0 397 531 620.227> 810 194<0 397>
LayerCount: 2
Fore
SplineSet
11 397 m 1xde
 11 514 l 1
 110 531 l 1
 110 620 l 2
 110 692 153 776 273 776 c 0
 322 776 375 770 413 752 c 1
 413 640 l 1
 412 640 350 641 350 641 c 2xee
 305 642 306 615 303 567 c 2
 303 531 l 1
 474 531 l 1
 474 560 l 2
 474 681 562 782 708 786 c 0
 757 787 938 782 977 762 c 1
 977 651 l 1
 976 651 784 652 784 652 c 2
 734 652 668 642 668 550 c 2
 668 531 l 1
 1004 521 l 1
 1004 0 l 1
 810 0 l 1
 810 397 l 1
 668 397 l 1
 668 0 l 1
 474 0 l 1
 474 397 l 1
 303 397 l 1
 303 0 l 1
 108 0 l 1
 108 397 l 1
 11 397 l 1xde
EndSplineSet
Validated: 33
Ligature2: "'dlig' Discretionary Ligatures lookup 14-1" f f i
LCarets2: 2 0 0 
EndChar

StartChar: ffl
Encoding: 459 64260 393
Width: 1121
VWidth: 0
Flags: W
HStem: 0 113<1060.97 1111> 397 134<303 479 673 771> 641 135<308.938 407.559> 652 134<686.24 831>
VStem: 108 195<0 397 531 636.609> 479 194<0 397 531 639.253> 831 194<146.013 651>
LayerCount: 2
Fore
SplineSet
11 397 m 1xde
 11 514 l 1
 110 531 l 1
 110 620 l 2
 110 692 153 776 273 776 c 0
 322 776 375 770 413 752 c 1
 413 640 l 1
 412 640 350 641 350 641 c 2xee
 305 642 304 615 303 567 c 2
 303 531 l 1
 479 531 l 1
 479 570 l 2
 479 755 583 786 703 786 c 2
 1025 783 l 1
 1025 229 l 2
 1025 160 1040 146 1062 134 c 1
 1062 134 1104 113 1111 113 c 1
 1111 0 l 1
 973 0 l 2
 878 0 831 48 831 189 c 2
 831 651 l 1
 786 651 739 652 739 652 c 2
 689 652 673 632 673 570 c 2
 673 531 l 1
 771 531 l 1
 771 397 l 1
 673 397 l 1
 673 0 l 1
 479 0 l 1
 479 397 l 1
 303 397 l 1
 303 0 l 1
 108 0 l 1
 108 397 l 1
 11 397 l 1xde
EndSplineSet
Validated: 33
Ligature2: "'dlig' Discretionary Ligatures lookup 14-1" f f l
LCarets2: 2 0 0 
EndChar

StartChar: c_t
Encoding: 460 -1 394
Width: 854
VWidth: 0
Flags: W
HStem: -7 144<163.385 420.224> -2 113<789.975 840> 397 134<238.107 561 755 844>
VStem: 22 194<148.74 373.446> 561 194<145.947 397>
LayerCount: 2
Fore
SplineSet
22 261 m 0xb8
 22 493 106 533 208 533 c 4
 561 531 l 1
 589 679 l 1
 755 679 l 1
 755 531 l 1
 844 531 l 1
 844 397 l 1
 755 397 l 1
 755 229 l 2
 755 158 769 144 791 132 c 2
 791 132 833 111 840 111 c 1
 840 -2 l 1
 690 -2 l 2x78
 610 -2 561 48 561 189 c 2
 561 397 l 1
 318 396 l 3
 258 396 216 409 216 257 c 3
 216 129 238 137 310 137 c 3
 402 137 466 145 466 145 c 1
 466 31 l 17
 389 0 330 -7 200 -7 c 0
 98 -7 22 28 22 261 c 0xb8
EndSplineSet
Validated: 33
Ligature2: "'dlig' Discretionary Ligatures lookup 14-1" c t
LCarets2: 1 0 
EndChar

StartChar: s_t
Encoding: 461 64262 395
Width: 890
VWidth: 0
Flags: W
HStem: -5 151<70.8687 294> -2 113<822.975 873> 386 145<216 594> 397 134<788 877>
VStem: 594 194<145.947 386>
LayerCount: 2
Fore
SplineSet
22 338 m 10xa8
 22 384 l 18
 22 466 67 531 170 531 c 9x98
 594 531 l 17x28
 622 679 l 1
 788 679 l 1
 788 531 l 1
 877 531 l 1
 877 397 l 1
 788 397 l 1
 788 229 l 2
 788 158 802 144 824 132 c 2
 824 132 866 111 873 111 c 1
 873 -2 l 1
 723 -2 l 2x58
 643 -2 594 48 594 189 c 2
 594 386 l 9
 238 386 l 17
 225 386 216 386 216 368 c 10
 216 362 l 18
 216 346 226 346 238 346 c 2
 338 346 l 2
 451 346 488 281 488 202 c 1
 488 143 l 2
 488 34 422 -5 358 -5 c 3
 265 -5 80 -9 44 32 c 9
 44 146 l 17
 276 146 l 18
 293 146 294 153 294 163 c 2
 294 168 l 2
 294 180 292 186 276 186 c 10
 180 186 l 2
 86 186 22 235 22 338 c 10xa8
EndSplineSet
Validated: 33
Ligature2: "'dlig' Discretionary Ligatures lookup 14-1" s t
LCarets2: 1 0 
EndChar

StartChar: t_t
Encoding: 462 -1 396
Width: 770
VWidth: 0
Flags: W
HStem: -1 113<314.975 365 705.974 756> 398 134<280 476 670 759>
VStem: 86 194<146.947 398> 476 194<146.947 398>
LayerCount: 2
Fore
SplineSet
11 398 m 1
 11 494 l 1
 86 532 l 1
 114 680 l 1
 280 680 l 1
 280 532 l 1
 476 532 l 1
 504 680 l 1
 670 680 l 1
 670 532 l 1
 759 532 l 1
 759 398 l 1
 670 398 l 1
 670 230 l 2
 670 159 685 145 707 133 c 1
 707 133 749 112 756 112 c 1
 756 -1 l 1
 606 -1 l 2
 526 -1 476 49 476 190 c 2
 476 398 l 1
 280 398 l 1
 280 230 l 2
 280 159 294 145 316 133 c 1
 316 133 358 112 365 112 c 1
 365 -1 l 1
 215 -1 l 2
 135 -1 86 49 86 190 c 2
 86 398 l 1
 11 398 l 1
EndSplineSet
Validated: 1
Ligature2: "'dlig' Discretionary Ligatures lookup 14-1" t t
LCarets2: 1 0 
EndChar

StartChar: f_t
Encoding: 463 -1 397
Width: 756
VWidth: 0
Flags: W
HStem: -1 113<691.975 742> 398 134<277 463 657 746> 652 134<279.932 390.502>
VStem: 83 194<0 397 532 646.454> 463 194<146.947 398>
LayerCount: 2
Fore
SplineSet
11 397 m 1
 11 514 l 1
 83 531 l 1
 83 630 l 2
 83 751 147 786 267 786 c 0
 316 786 357 782 396 762 c 1
 396 651 l 1
 395 651 323 652 323 652 c 2
 273 653 277 632 277 570 c 2
 277 532 l 1
 463 532 l 5
 491 680 l 5
 657 680 l 5
 657 532 l 5
 746 532 l 5
 746 398 l 5
 657 398 l 5
 657 230 l 6
 657 159 671 145 693 133 c 5
 693 133 735 112 742 112 c 5
 742 -1 l 5
 592 -1 l 6
 512 -1 463 49 463 190 c 6
 463 398 l 5
 277 398 l 1
 277 0 l 1
 83 0 l 1
 83 397 l 1
 11 397 l 1
EndSplineSet
Validated: 33
Ligature2: "'dlig' Discretionary Ligatures lookup 14-1" f t
LCarets2: 1 0 
EndChar

StartChar: t_y
Encoding: 464 -1 398
Width: 974
VWidth: 0
Flags: W
HStem: -1 113<314.975 365> 398 134<280 412.884>
VStem: 86 194<146.947 398>
DStem2: 618 391 440 315 0.180652 -0.983547<-28.1589 238.953> 665 0 821 -168 0.197058 0.980392<-133.965 0 159.247 540.688>
LayerCount: 2
Fore
SplineSet
11 398 m 1
 11 494 l 1
 86 532 l 1
 114 680 l 1
 280 680 l 1
 280 532 l 1
 416 532 l 1
 536 532 602 478 618 391 c 2
 654 195 l 2
 660 164 681 157 697 156 c 9
 767 531 l 1
 964 531 l 9
 821 -168 l 17
 750 -270 l 1
 606 -270 l 5
 665 0 l 4
 548 0 495 66 475 156 c 2
 440 315 l 2
 425 383 401 398 341 398 c 1
 280 398 l 1
 280 230 l 2
 280 159 294 145 316 133 c 2
 316 133 358 112 365 112 c 1
 365 -1 l 1
 215 -1 l 2
 135 -1 86 49 86 190 c 2
 86 398 l 1
 11 398 l 1
EndSplineSet
Validated: 1
Ligature2: "'dlig' Discretionary Ligatures lookup 14-1" t y
LCarets2: 1 0 
EndChar

StartChar: f_y
Encoding: 465 -1 399
Width: 989
VWidth: 0
Flags: W
HStem: 0 21G<83 277> 397 134<277 429.108> 652 134<279.932 390.502>
VStem: 83 194<0 397 531 646.454>
DStem2: 633 391 455 315 0.180652 -0.983547<-28.1588 238.961> 680 0 836 -168 0.197058 0.980392<-133.965 0 159.247 540.688>
LayerCount: 2
Fore
SplineSet
11 397 m 1
 11 514 l 1
 83 531 l 1
 83 630 l 2
 83 751 147 786 267 786 c 0
 316 786 357 782 396 762 c 1
 396 651 l 1
 395 651 323 652 323 652 c 2
 273 653 277 632 277 570 c 2
 277 531 l 1
 426 531 l 1
 551 532 617 478 633 391 c 2
 669 195 l 2
 675 164 696 157 712 156 c 9
 782 531 l 1
 979 531 l 9
 836 -168 l 17
 765 -270 l 1
 621 -270 l 1
 680 0 l 0
 564 0 510 66 490 156 c 2
 455 315 l 2
 440 383 416 398 355 397 c 1
 277 397 l 9
 277 0 l 17
 83 0 l 1
 83 397 l 1
 11 397 l 1
EndSplineSet
Validated: 33
Ligature2: "'dlig' Discretionary Ligatures lookup 14-1" f y
LCarets2: 1 0 
EndChar

StartChar: kgreenlandic
Encoding: 466 312 400
Width: 611
VWidth: 0
Flags: W
HStem: 0 21G<34 229 344.184 576> 511 20G<34 229 358.259 600>
VStem: 34 195<0 196 330 531>
LayerCount: 2
Fore
SplineSet
34 0 m 5
 34 531 l 5
 229 531 l 5
 229 330 l 5
 252 330 l 5
 370 531 l 5
 600 531 l 5
 427 264 l 5
 576 0 l 5
 355 0 l 5
 249 196 l 5
 229 196 l 13
 229 0 l 21
 34 0 l 5
EndSplineSet
Validated: 1
EndChar

StartChar: Tbar
Encoding: 472 358 406
Width: 590
VWidth: 0
Flags: W
HStem: 0 21G<195 389> 350 74<115 195 389 469> 558 174<11 195 389 579>
VStem: 195 194<0 350 424 558>
LayerCount: 2
Fore
SplineSet
11 558 m 1
 11 732 l 1
 579 732 l 1
 579 558 l 1
 389 558 l 1
 389 424 l 1
 469 424 l 1
 469 350 l 1
 389 350 l 1
 389 0 l 1
 195 0 l 1
 195 350 l 1
 115 350 l 1
 115 424 l 1
 195 424 l 1
 195 558 l 1
 11 558 l 1
EndSplineSet
Validated: 1
Substitution2: "'c2sc' Capitals to Small Capitals in Latin lookup 17 subtable" tbar.smcp
EndChar

StartChar: gcommaaccent
Encoding: 477 291 411
Width: 566
VWidth: 0
Flags: W
HStem: -270 144<232.47 342.717> 149 134<230.119 325.568> 399 134<228.235 326.78> 765.801 55.8<318.403 345.3>
VStem: 25 169<57 148.498> 30 194<286.68 394.754> 205.8 144<593.008 742.395 765.801 787.32> 331 194<287.939 396.557>
LayerCount: 2
Fore
SplineSet
205.8 617.301 m 6xf2
 205.8 752.301 l 6
 205.8 863.9 345.3 821.601 345.3 821.601 c 5
 345.3 765.801 l 4
 318.3 766.7 317.4 755.9 317.4 746.9 c 6
 317.4 742.4 l 5
 327.3 742.4 l 6
 339.9 742.4 349.8 735.2 349.8 719.9 c 6
 349.8 617.301 l 6
 349.8 601.101 341.7 593 327.3 593 c 6
 227.4 593 l 6
 211.2 593 205.8 603.801 205.8 617.301 c 6xf2
25 92 m 0xf9
 25 147 43 184 89 196 c 1
 45 224 30 291 30 344 c 0xf4
 30 471 93 533 223 533 c 2
 555 533 l 1
 555 427 l 1
 514 409 l 1
 522 386 525 370 525 314 c 0
 525 224 486 149 330 149 c 2
 234 149 l 2
 218 149 194 153 194 131 c 0
 194 110 212 112 234 110 c 2
 364 97 l 2
 469 87 536 66 536 -83 c 2
 536 -116 l 2
 536 -206 487 -270 356 -270 c 2
 206 -270 l 2
 112 -270 36 -222 36 -116 c 2
 36 -52 l 1
 98 -19 l 1
 70 -7 25 22 25 92 c 0xf9
231 -85 m 2
 231 -121 240 -126 275 -126 c 2
 303 -126 l 2
 346 -126 343 -108 343 -90 c 2
 343 -77 l 2
 343 -61 329 -53 304 -51 c 2
 271 -48 l 2
 261 -47 231 -45 231 -45 c 1
 231 -85 l 2
224 344 m 0
 224 295 239 283 266 283 c 2
 288 283 l 2
 319 283 331 297 331 344 c 0xf5
 331 397 312 399 287 399 c 2
 263 399 l 2
 227 399 224 371 224 344 c 0
EndSplineSet
Validated: 33
AlternateSubs2: "'salt' Access All Alternates in Latin lookup 4-1" gcommaaccent.salt
Substitution2: "'smcp' Lowercase to Small Capitals lookup 16-1" gcommaaccent.smcp
EndChar

StartChar: gcommaaccent.salt
Encoding: 478 -1 412
Width: 555
VWidth: 0
Flags: W
HStem: -248 129<45 111.5> 6 140<154.5 311.445> 409 134<236.844 324.101> 765.801 55.8<328.403 355.3>
VStem: 28 194<158.317 393.295> 215.8 144<593.008 742.395 765.801 787.32> 328 194<-90.106 44 149.875 409>
LayerCount: 2
Fore
SplineSet
215.8 617.301 m 2xf4
 215.8 752.301 l 2
 215.8 863.9 355.3 821.601 355.3 821.601 c 1
 355.3 765.801 l 0
 328.3 766.7 327.4 755.9 327.4 746.9 c 2
 327.4 742.4 l 1
 337.3 742.4 l 2
 349.9 742.4 359.8 735.2 359.8 719.9 c 2
 359.8 617.301 l 2
 359.8 601.101 351.7 593 337.3 593 c 2
 237.4 593 l 2
 221.2 593 215.8 603.801 215.8 617.301 c 2xf4
28 284 m 3xfa
 28 473 106 543 231 543 c 3
 337 543 468 529 522 507 c 1
 522 -24 l 2
 522 -170 446 -290 273 -272 c 2
 45 -248 l 1
 45 -119 l 1
 243 -119 l 2
 296 -119 328 -88 328 -24 c 2
 328 44 l 1
 306 16 276 6 231 6 c 3
 78 6 28 92 28 284 c 3xfa
222 291 m 3
 222 179 227 146 279 146 c 3
 299 146 316 150 328 165 c 1
 328 409 l 2
 281 409 l 2
 223 409 222 351 222 291 c 3
EndSplineSet
Validated: 33
EndChar

StartChar: tbar
Encoding: 479 359 413
Width: 380
VWidth: 0
Flags: W
HStem: -1 113<314.975 365> 248 74<24 86 280 344> 398 134<280 369>
VStem: 86 194<146.947 248 322 398>
LayerCount: 2
Fore
SplineSet
11 398 m 1
 11 494 l 1
 86 532 l 1
 114 680 l 1
 280 680 l 1
 280 532 l 1
 369 532 l 1
 369 398 l 1
 280 398 l 1
 280 322 l 1
 344 322 l 1
 344 248 l 1
 280 248 l 1
 280 230 l 2
 280 159 294 145 316 133 c 1
 316 133 358 112 365 112 c 1
 365 -1 l 1
 215 -1 l 2
 135 -1 86 49 86 190 c 2
 86 248 l 1
 24 248 l 1
 24 322 l 1
 86 322 l 1
 86 398 l 1
 11 398 l 1
EndSplineSet
Validated: 1
AlternateSubs2: "'salt' Access All Alternates in Latin lookup 4-1" tbar.salt
Substitution2: "'smcp' Lowercase to Small Capitals lookup 16-1" tbar.smcp
EndChar

StartChar: Eng
Encoding: 480 330 414
Width: 677
VWidth: 0
Flags: W
HStem: -257 137<360 436.828> 0 21G<45 240> 712 20G<45 252.176 450 644>
VStem: 45 195<0 364> 450 194<-106.012 0 358 732>
LayerCount: 2
Fore
SplineSet
45 0 m 1
 45 732 l 1
 241 732 l 1
 450 358 l 1
 450 732 l 1
 644 732 l 1
 644 0 l 0
 644 -64 l 1
 644 -257 480 -270 360 -257 c 1
 360 -120 l 1
 411 -119 450 -118 450 -60 c 1
 450 0 l 1
 240 364 l 1
 240 0 l 1
 45 0 l 1
EndSplineSet
Validated: 33
Substitution2: "'c2sc' Capitals to Small Capitals in Latin lookup 17 subtable" eng.smcp
EndChar

StartChar: eng
Encoding: 481 331 415
Width: 561
VWidth: 0
Flags: W
HStem: 0 21G<34 228> 396 144<284.33 443> 511 20G<34 208.308>
VStem: 34 194<0 384.621> 334 194<-136.016 390.498>
LayerCount: 2
Fore
SplineSet
34 0 m 1xd8
 34 531 l 1
 196 531 l 1xb8
 228 479 l 1
 274 508 293 540 374 540 c 3
 512 540 528 452 528 340 c 2
 528 0 l 1
 527 -50 l 1
 527 -227 369 -270 304 -268 c 1
 264 -160 l 1
 319 -145 332 -138 334 -54 c 1
 334 0 l 1
 334 344 l 2
 334 386 323 396 301 396 c 3
 264 396 240 386 228 359 c 1
 228 0 l 1
 34 0 l 1xd8
EndSplineSet
Validated: 33
Substitution2: "'smcp' Lowercase to Small Capitals lookup 16-1" eng.smcp
EndChar

StartChar: exclam.smcp
Encoding: 502 -1 436
Width: 276
VWidth: 0
Flags: W
HStem: 0 165<53.1465 214.837>
VStem: 53 162<0.104492 164.928>
LayerCount: 2
Back
SplineSet
68 570 m 1
 252 570 l 1
 230 196 l 1
 86 196 l 1
 68 570 l 1
76 23 m 2
 76 140 l 2
 76 155 84 165 100 165 c 2
 214 165 l 2
 232 165 238 156 238 140 c 2
 238 23 l 2
 238 5 228 0 214 0 c 2
 100 0 l 2
 86 0 76 9 76 23 c 2
EndSplineSet
Fore
SplineSet
53 23 m 2
 53 140 l 2
 53 155 61 165 77 165 c 2
 192 165 l 2
 207 165 215 154 215 140 c 2
 215 23 l 2
 215 8 206 0 192 0 c 2
 77 0 l 2
 63 0 53 9 53 23 c 2
46 570 m 1
 229 570 l 1
 207 197 l 1
 62 197 l 1
 46 570 l 1
EndSplineSet
Validated: 1
EndChar

StartChar: quotedbl.smcp
Encoding: 503 -1 437
Width: 497
VWidth: 0
Flags: W
HStem: 370 201<60 222 276 440>
VStem: 48 184<425.833 571> 266 184<410.2 571>
LayerCount: 2
Fore
SplineSet
48 504 m 5
 48 571 l 5
 232 571 l 5
 232 504 l 5
 222 370 l 5
 60 370 l 5
 48 504 l 5
266 504 m 1
 266 571 l 1
 450 571 l 1
 450 504 l 1
 440 370 l 1
 276 370 l 1
 266 504 l 1
EndSplineSet
Validated: 1
EndChar

StartChar: numbersign.smcp
Encoding: 504 -1 438
Width: 647
VWidth: 0
Flags: W
HStem: 0 21G<107 242.182 312 447.206> 132 132<31 128 281 333 486 585> 338 132<63 161 313 366 518 617>
DStem2: 107 0 239 0 0.156561 0.987668<20.6661 133.66 287.986 342.286 496.456 600.404> 312 0 444 0 0.156561 0.987668<20.6661 132.672 287.986 342.286 496.456 600.404>
LayerCount: 2
Fore
SplineSet
11 132 m 1
 31 264 l 1
 149 264 l 1
 161 338 l 1
 43 338 l 1
 63 470 l 1
 181 470 l 1
 201 593 l 1
 333 593 l 1
 313 470 l 1
 386 470 l 9
 406 593 l 17
 538 593 l 9
 518 470 l 17
 637 470 l 1
 617 338 l 1
 498 338 l 1
 486 264 l 1
 603 263 l 1
 585 131 l 1
 465 131 l 9
 444 0 l 17
 312 0 l 9
 333 131 l 17
 260 132 l 1
 239 0 l 1
 107 0 l 1
 128 132 l 1
 11 132 l 1
281 264 m 1
 354 264 l 1
 366 338 l 1
 293 338 l 1
 281 264 l 1
EndSplineSet
Validated: 1
EndChar

StartChar: dollar.smcp
Encoding: 505 -1 439
Width: 535
VWidth: 0
Flags: W
HStem: 198 164<222 312> 420 236<222.094 294.046>
VStem: 191 108<-90 -10 573 656>
DStem2: 299 569 246 420 0.9963 -0.0859391<0 181.139>
LayerCount: 2
Fore
SplineSet
28 364 m 2
 28 401 l 17
 28 489 59 571 191 573 c 1
 191 656 l 1
 299 656 l 1
 299 569 l 1
 358 565 427 558 479 548 c 1
 479 411 l 1
 479 411 360 420 246 420 c 0
 230 420 222 410 222 396 c 2
 222 384 l 17
 222 370 227 362 246 362 c 2
 356 362 l 2
 484 362 506 278 506 188 c 2
 506 158 l 2
 506 1 428 -10 299 -10 c 1
 299 -90 l 1
 191 -90 l 1
 191 -7 l 1
 129 -4 70 3 50 16 c 1
 50 151 l 1
 50 151 182 144 286 144 c 0
 311 144 312 164 312 164 c 1
 312 178 l 2
 312 195 302 198 286 198 c 2
 186 198 l 2
 61 198 28 268 28 364 c 2
EndSplineSet
Validated: 1
EndChar

StartChar: percent.smcp
Encoding: 506 -1 440
Width: 1013
VWidth: 0
Flags: W
HStem: 3 125<748.982 867.285> 187 125<143.985 263.285> 261 125<750.712 869.015> 445 125<145.715 265.015>
VStem: 16 125<314.134 442.866> 268 125<314.134 442.866> 620 125<130.134 258.866> 872 125<130.134 258.866>
DStem2: 314 0 445 0 0.412357 0.911022<54.0188 625.671>
LayerCount: 2
Fore
SplineSet
16 322 m 2xdf
 16 435 l 2
 16 520 54 570 155 570 c 2
 256 570 l 2
 354 570 393 520 393 435 c 2
 393 322 l 18
 393 237 355 187 254 187 c 2
 153 187 l 2
 55 187 16 237 16 322 c 2xdf
141 352 m 2
 141 330 145 312 178 312 c 2
 229 312 l 2
 263 312 268 330 268 352 c 10
 268 405 l 2
 268 438 256 445 231 445 c 2
 180 445 l 2
 158 445 141 439 141 405 c 2
 141 352 l 2
314 0 m 1
 572 570 l 1
 697 570 l 1
 445 0 l 1
 314 0 l 1
620 138 m 2
 620 251 l 2
 620 336 659 386 760 386 c 2
 860 386 l 2xbf
 958 386 997 336 997 251 c 2
 997 138 l 18
 997 53 959 3 858 3 c 2
 758 3 l 2
 660 3 620 53 620 138 c 2
745 168 m 2
 745 146 749 128 782 128 c 2
 834 128 l 2
 868 128 872 146 872 168 c 10
 872 221 l 2
 872 254 861 261 836 261 c 2
 784 261 l 2
 762 261 745 255 745 221 c 2
 745 168 l 2
EndSplineSet
Validated: 1
EndChar

StartChar: ampersand.smcp
Encoding: 507 -1 441
Width: 618
VWidth: 0
Flags: W
HStem: 0 21G<387.333 605> 415 133<314.444 416>
LayerCount: 2
Fore
SplineSet
52 70 m 0
 -15 170 26 257 97 321 c 2
 139 358 l 1
 119 386 l 1
 60 466 116 560 181 571 c 0
 255 584 381 562 416 548 c 1
 416 415 l 1
 336 415 l 2
 312 415 304 407 316 391 c 2
 387 290 l 1
 496 370 l 1
 570 286 l 1
 505 195 l 1
 478 169 l 1
 605 0 l 1
 403 0 l 1
 356 60 l 1
 324 32 l 2
 279 -7 126 -41 52 70 c 0
189 166 m 0
 201 150 211 150 228 163 c 2
 258 188 l 1
 229 229 l 1
 198 204 l 18
 185 194 178 181 189 166 c 0
EndSplineSet
Validated: 33
EndChar

StartChar: quotesingle.smcp
Encoding: 508 -1 442
Width: 279
VWidth: 0
Flags: W
HStem: 370 201<59 222>
VStem: 48 184<418.727 571>
LayerCount: 2
Fore
SplineSet
48 504 m 1
 48 571 l 1
 232 571 l 1
 232 504 l 1
 222 370 l 1
 59 370 l 1
 48 504 l 1
EndSplineSet
Validated: 1
EndChar

StartChar: asterisk.smcp
Encoding: 509 -1 443
Width: 417
VWidth: 0
Flags: W
HStem: 393 70<28 79.2105>
VStem: 28 144<393 463>
LayerCount: 2
Fore
SplineSet
28 393 m 1
 28 463 l 1
 167 482 l 1
 172 388 l 1
 28 393 l 1
76 245 m 1
 101 383 l 1
 192 359 l 1
 143 224 l 1
 76 245 l 1
157 549 m 1
 224 571 l 1
 285 445 l 1
 197 411 l 1
 157 549 l 1
176 286 m 1
 227 365 l 1
 341 276 l 1
 299 220 l 1
 176 286 l 1
230 398 m 1
 349 479 l 1
 390 422 l 1
 289 325 l 1
 230 398 l 1
EndSplineSet
Validated: 1
EndChar

StartChar: zero.smcp
Encoding: 510 -1 444
Width: 561
VWidth: 0
Flags: W
HStem: 0 174<234.702 327.054> 396 174<233.633 327.707>
VStem: 39 194<174.648 395.231> 328 194<174.632 395.198>
LayerCount: 2
Fore
SplineSet
39 162 m 10
 39 408 l 2
 39 520 116 570 211 570 c 2
 355 570 l 2
 509 570 522 456 522 408 c 0
 522 162 l 18
 522 43 454 0 355 0 c 2
 211 0 l 2
 120 0 39 42 39 162 c 10
233 216 m 2
 233 177 245 174 267 174 c 10
 297 174 l 18
 328 174 328 192 328 217 c 2
 328 345 l 2
 328 373 334 396 295 396 c 2
 265 396 l 2
 229 396 233 374 233 346 c 2
 233 216 l 2
EndSplineSet
Validated: 33
EndChar

StartChar: one.smcp
Encoding: 511 -1 445
Width: 379
VWidth: 0
Flags: W
HStem: 0 21G<140 334>
VStem: 140 194<0 386>
LayerCount: 2
Fore
SplineSet
22 366 m 1
 22 489 l 1
 142 570 l 1
 334 570 l 1
 334 0 l 1
 140 0 l 1
 140 386 l 1
 22 366 l 1
EndSplineSet
Validated: 1
EndChar

StartChar: two.smcp
Encoding: 512 -1 446
Width: 522
VWidth: 0
Flags: W
HStem: 0 174<30 93.9491 370 494> 404 175<59.5741 294.269> 404 145<22 120.75>
VStem: 300 194<310.701 394.023>
LayerCount: 2
Fore
SplineSet
22 404 m 2xb0
 22 549 l 1xb0
 104 567 122 579 266 579 c 3
 422 579 494 512 494 372 c 3
 494 261 424 202 370 174 c 13
 494 174 l 25
 494 0 l 25
 30 0 l 25
 30 168 l 17
 107 196 300 284 300 356 c 1
 300 396 287 404 206 404 c 2xd0
 22 404 l 2xb0
EndSplineSet
Validated: 1
EndChar

StartChar: three.smcp
Encoding: 513 -1 447
Width: 504
VWidth: 0
Flags: W
HStem: -5 169<25.275 267> 16 148<22 175.22> 210 150<70 266.953> 404 169<20.2809 268.985> 404 147<17 170.288>
LayerCount: 2
Fore
SplineSet
17 404 m 1x28
 17 551 l 1x28
 86 575 219 576 310 573 c 0
 406 570 463 510 463 429 c 2
 463 405 l 2
 463 348 456 295 403 284 c 1
 456 261 463 216 463 157 c 2
 463 141 l 2
 463 50 424 0 305 -5 c 0xb0
 216 -9 91 -8 22 16 c 1
 22 164 l 1x60
 237 164 l 2
 256 164 267 168 267 181 c 2
 267 186 l 2
 267 203 260 204 235 205 c 2
 70 210 l 2
 70 360 l 1
 235 364 l 2
 264 365 269 365 269 384 c 2
 269 387 l 2
 269 403 260 404 237 404 c 2xb0
 17 404 l 1x28
EndSplineSet
Validated: 33
EndChar

StartChar: four.smcp
Encoding: 514 -1 448
Width: 568
VWidth: 0
Flags: W
HStem: 2 21G<313 507>
VStem: 313 194<2 108 276 361>
LayerCount: 2
Fore
SplineSet
11 205 m 1
 169 570 l 1
 370 570 l 1
 249 276 l 1
 313 276 l 1
 313 361 l 1
 350 456 l 1
 507 456 l 1
 507 276 l 1
 557 276 l 1
 557 127 l 1
 507 108 l 1
 507 2 l 1
 313 2 l 1
 313 108 l 1
 58 108 l 1
 11 205 l 1
EndSplineSet
Validated: 1
EndChar

StartChar: five.smcp
Encoding: 515 -1 449
Width: 522
VWidth: 0
Flags: W
HStem: -1 169<50.8219 295.993> 23 145<43 189.77> 224 143<219.011 295.95> 396 174<222 464>
LayerCount: 2
Fore
SplineSet
43 23 m 1x70
 43 168 l 1x70
 267 168 l 2
 286 168 296 168 296 191 c 2
 296 198 l 2
 296 224 292 224 272 224 c 0
 239 224 l 2
 226 224 204 223 204 199 c 1
 44 199 l 1
 61 570 l 25
 464 570 l 1
 464 396 l 1
 222 396 l 25
 216 343 l 1
 237 364 267 367 290 367 c 2
 290 367 294 367 322 367 c 0
 440 367 490 311 490 195 c 2
 490 152 l 2
 490 30 407 0 322 -1 c 0xb0
 223 -2 126 0 43 23 c 1x70
EndSplineSet
Validated: 33
EndChar

StartChar: six.smcp
Encoding: 516 -1 450
Width: 533
VWidth: 0
Flags: W
HStem: 228 139<233.236 306.988> 402 174<232.766 479.324> 402 159<236.104 483>
LayerCount: 2
Fore
SplineSet
37 300 m 0xc0
 37 520 133 576 221 576 c 0xc0
 300 576 405 577 483 561 c 1
 483 402 l 1xa0
 281 402 l 1
 231 402 231 386 231 355 c 1
 279 366 307 367 365 367 c 0
 471 367 501 295 501 210 c 2
 501 166 l 2
 501 49 418 -1 345 -1 c 6
 227 -1 l 2
 103 -1 37 48 37 300 c 0xc0
231 228 m 1
 231 176 235 173 263 173 c 2
 285 173 l 2
 303 173 307 178 307 200 c 2
 307 205 l 2
 307 226 303 228 285 228 c 2
 231 228 l 1
EndSplineSet
Validated: 33
EndChar

StartChar: seven.smcp
Encoding: 517 -1 451
Width: 478
VWidth: 0
Flags: W
HStem: 0 21G<78 292.195> 396 174<17 221>
DStem2: 78 0 285 0 0.338516 0.940961<70.0729 421.028>
LayerCount: 2
Fore
SplineSet
17 396 m 1
 17 570 l 1
 410 570 l 1
 462 492 l 1
 285 0 l 1
 78 0 l 1
 221 396 l 1
 17 396 l 1
EndSplineSet
Validated: 1
EndChar

StartChar: eight.smcp
Encoding: 518 -1 452
Width: 551
VWidth: 0
Flags: W
HStem: 0 155<236.192 315.982> 221 133<236.006 314.974> 420 155<236.007 314.995>
VStem: 42 194<155.081 219.594 355.513 419.973> 316 194<155.063 220.892 354.464 419.973>
CounterMasks: 1 e0
LayerCount: 2
Fore
SplineSet
42 130 m 2
 42 200 l 2
 42 258 79 268 110 278 c 1
 60 295 42 349 42 390 c 2
 42 433 l 2
 42 560 104 575 194 575 c 2
 360 575 l 2
 446 575 510 558 510 433 c 2
 510 390 l 2
 510 373 508 309 452 297 c 1
 494 289 510 234 510 200 c 2
 510 130 l 2
 510 15 421 0 367 0 c 2
 184 0 l 2
 56 0 42 70 42 130 c 2
236 184 m 2
 236 155 243 155 266 155 c 2
 289 155 l 2
 315 155 316 158 316 181 c 2
 316 196 l 2
 316 216 314 221 291 221 c 2
 261 221 l 2
 245 221 236 219 236 199 c 2
 236 184 l 2
236 379 m 2
 236 367 235 354 260 354 c 2
 294 354 l 2
 317 354 315 366 315 376 c 2
 315 401 l 2
 315 416 308 420 292 420 c 2
 260 420 l 2
 245 420 236 416 236 401 c 2
 236 379 l 2
EndSplineSet
Validated: 33
EndChar

StartChar: nine.smcp
Encoding: 519 -1 453
Width: 533
VWidth: 0
Flags: W
HStem: -1 174<55.6903 302.234> 14 159<52 298.202> 208 139<228.006 301.127>
LayerCount: 2
Fore
SplineSet
34 365 m 2xa0
 34 409 l 2
 34 526 115 576 188 576 c 2
 308 576 l 2
 432 576 498 527 498 275 c 0
 498 55 422 -1 334 -1 c 0xa0
 255 -1 130 -2 52 14 c 1
 52 173 l 1x60
 254 173 l 1
 304 173 304 189 304 220 c 1
 242 208 226 208 168 208 c 0
 62 208 34 280 34 365 c 2xa0
228 370 m 2
 228 349 230 347 248 347 c 2
 304 347 l 1
 304 399 298 402 270 402 c 2
 248 402 l 2
 230 402 228 397 228 375 c 2
 228 370 l 2
EndSplineSet
Validated: 33
EndChar

StartChar: question.smcp
Encoding: 520 -1 454
Width: 474
VWidth: 0
Flags: W
HStem: 0 165<119.146 280.87> 197 150<133 258> 395 179<13.6606 258> 395 158<11 257.974>
VStem: 119 162<0.104492 164.884>
LayerCount: 2
Fore
SplineSet
11 395 m 2xd8
 11 553 l 1xd8
 67 565 172 578 258 574 c 1
 378 574 452 535 452 394 c 2
 452 373 l 1
 452 261 383 199 269 221 c 1
 269 197 l 1
 133 197 l 1
 133 347 l 1
 177 346 208 347 229 347 c 0
 257 347 258 349 258 368 c 2
 258 374 l 2
 258 399 244 395 218 395 c 2xe8
 11 395 l 2xd8
119 23 m 2
 119 140 l 2
 119 155 127 165 143 165 c 2
 256 165 l 2
 274 165 281 156 281 140 c 2
 281 23 l 2
 281 5 270 0 256 0 c 2
 143 0 l 2
 129 0 119 9 119 23 c 2
EndSplineSet
Validated: 33
EndChar

StartChar: at.smcp
Encoding: 521 -1 455
Width: 888
VWidth: 0
Flags: W
HStem: -178 145<218.672 662.542> 31 144<316 448.292> 408 144<207.369 492.699> 611 144<219.096 654.047> 611 117<190 370.473>
VStem: 37 144<4.9719 384.745> 497 144<185.059 252 353.558 403.27> 697 144<0.334473 569.699>
LayerCount: 2
Fore
SplineSet
37 60 m 2xf7
 37 328 l 2
 37 454 99 552 275 552 c 10
 448 552 l 17
 544 552 641 540 641 382 c 1
 641 40 l 9
 523 40 l 25
 499 94 l 17
 497 94 454 31 363 31 c 1
 269 31 235 110 235 178 c 10
 235 211 l 2
 235 309 294 354 394 354 c 0
 431 354 497 353 497 354 c 0
 497 354 498 369 497 370 c 2
 497 403 484 408 453 408 c 2
 275 408 l 2
 227 408 181 398 181 318 c 2
 181 80 l 2
 181 -10 235 -33 275 -33 c 10
 594 -33 l 2
 676 -33 697 12 697 80 c 2
 697 492 l 2
 697 569 655 611 594 611 c 2xf7
 190 611 l 9
 190 728 l 17xef
 238 738 382 756 508 755 c 0
 594 755 l 2
 709 755 841 696 841 492 c 10
 841 80 l 2
 841 -108 751 -178 604 -178 c 2
 275 -178 l 2
 153 -178 37 -121 37 60 c 2xf7
389 205 m 2
 389 184 397 175 424 175 c 1
 453 175 484 179 497 209 c 9
 497 252 l 17
 419 246 l 2
 398 244 389 241 389 217 c 2
 388 216 388 206 389 205 c 2
EndSplineSet
Validated: 33
EndChar

StartChar: a.smcp
Encoding: 522 -1 456
Width: 620
VWidth: 0
Flags: W
HStem: 0 21G<20 226.517 394.943 601>
LayerCount: 2
Fore
SplineSet
20 0 m 5
 193 570 l 5
 437 570 l 5
 601 0 l 5
 400 0 l 5
 378 87 l 5
 245 87 l 5
 221 0 l 5
 20 0 l 5
283 231 m 5
 342 231 l 5
 314 344 l 5
 283 231 l 5
EndSplineSet
Validated: 1
EndChar

StartChar: b.smcp
Encoding: 523 -1 457
Width: 550
VWidth: 0
Flags: W
HStem: 0 155<239 324.873> 233 124<239 327.35> 417 154<239 324.78>
VStem: 45 194<155 233 357 417> 329 197<155.578 231.185 358.043 478.5>
LayerCount: 2
Fore
SplineSet
45 0 m 1
 45 571 l 1
 319 571 l 2
 443 571 523 539 523 418 c 3
 523 331 480 291 431 291 c 1
 480 285 526 245 526 162 c 3
 526 25 445 0 319 0 c 2
 45 0 l 1
239 155 m 1
 299 155 l 2
 315 155 329 159 329 195 c 3
 329 223 319 233 299 233 c 2
 239 233 l 1
 239 155 l 1
239 357 m 1
 299 357 l 2
 322 357 329 367 329 388 c 3
 329 405 324 417 299 417 c 2
 239 417 l 1
 239 357 l 1
EndSplineSet
Validated: 1
EndChar

StartChar: c.smcp
Encoding: 524 -1 458
Width: 510
VWidth: 0
Flags: HW
HStem: 1 144<253.116 459.969> 439 144<246.606 455.568>
VStem: 31 194<170.723 417.233>
LayerCount: 2
Fore
SplineSet
31 295 m 0
 31 479 81 578 265 578 c 0
 367 578 417 575 491 543 c 1
 491 414 l 1
 476 417 390 434 325 434 c 3
 223 434 225 393 225 295 c 3
 225 213 210 142 325 140 c 1
 409 140 491 159 491 159 c 2
 491 32 l 1
 419 -5 381 -4 265 -4 c 3
 57 -4 31 119 31 295 c 0
EndSplineSet
EndChar

StartChar: d.smcp
Encoding: 525 -1 459
Width: 581
VWidth: 0
Flags: W
HStem: 0 164<239 340.899> 408 164<239 340.507>
VStem: 45 194<164 408> 357 194<176.433 394.096>
LayerCount: 2
Fore
SplineSet
45 0 m 5
 45 572 l 5
 332 572 l 4
 516 570 551 439 551 283 c 4
 551 -10 426 0 332 0 c 4
 311 0 102 0 45 0 c 5
239 164 m 5
 304 164 l 6
 354 164 357 221 357 283 c 4
 357 377 340 408 304 408 c 6
 239 408 l 5
 239 164 l 5
EndSplineSet
Validated: 33
EndChar

StartChar: e.smcp
Encoding: 526 -1 460
Width: 510
VWidth: 0
Flags: W
HStem: -2 164<239.865 480.592> 16 146<244.521 486> 206 156<239 419.25> 213 141<264.75 445> 408 163<239.309 481.561> 408 146<243.763 486>
LayerCount: 2
Fore
SplineSet
45 123 m 2x80
 45 441 l 2
 45 538 110 569 189 571 c 0x88
 189 571 393 571 486 554 c 1
 486 408 l 1x04
 271 408 l 2
 241 408 239 399 239 375 c 1
 239 362 l 1x28
 445 354 l 1
 445 213 l 1x10
 239 206 l 1
 239 194 l 2
 239 165 254 162 275 162 c 2xa0
 486 162 l 1
 486 16 l 1x40
 372 -10 169 -2 169 -2 c 0
 94 0 45 36 45 123 c 2x80
EndSplineSet
EndChar

StartChar: f.smcp
Encoding: 527 -1 461
Width: 510
VWidth: 0
Flags: W
HStem: 0 21G<45 239> 186 156<239 419.25> 193 141<264.75 445> 408 163<239.309 481.561> 408 146<243.763 486>
VStem: 45 194<0 186 342 407.449>
LayerCount: 2
Fore
SplineSet
45 0 m 1xc4
 45 441 l 2
 45 538 105 569 189 571 c 0xd4
 189 571 393 571 486 554 c 1
 486 408 l 1x8c
 271 408 l 2
 241 408 239 399 239 375 c 1
 239 342 l 1xd4
 445 334 l 1
 445 193 l 1xa4
 239 186 l 1
 239 0 l 1
 45 0 l 1xc4
EndSplineSet
EndChar

StartChar: g.smcp
Encoding: 528 -1 462
Width: 559
VWidth: 0
Flags: W
HStem: -7 173<115.5 313.464> 0 21G<362.545 529> 232 99<297 334.546>
VStem: 31 194<177.057 416.323>
LayerCount: 2
Fore
SplineSet
31 286 m 4xb0
 31 470 74 570 224 579 c 4
 323 585 448 580 515 554 c 5
 515 422 l 5
 424 434 380 435 324 435 c 7
 246 435 225 434 225 288 c 7
 225 234 212 167 284 166 c 4xb0
 315 166 335 180 335 208 c 13
 335 232 l 29
 297 232 l 29
 297 331 l 21
 337 342 381 346 462 346 c 4
 483 346 505 345 529 343 c 13
 529 0 l 21
 383 0 l 4x70
 338 44 l 5
 317 8 293 -7 214 -7 c 4
 17 -7 31 236 31 286 c 4xb0
EndSplineSet
Validated: 33
EndChar

StartChar: h.smcp
Encoding: 529 -1 463
Width: 577
VWidth: 0
Flags: W
HStem: -1 21G<45 239 350 544> 188 174<239 350>
VStem: 45 194<-1 188 362 570> 350 194<-1 188 362 570>
LayerCount: 2
Fore
SplineSet
45 -1 m 5
 45 570 l 5
 239 570 l 5
 239 362 l 5
 350 362 l 5
 350 570 l 5
 544 570 l 5
 544 -1 l 5
 350 -1 l 5
 350 188 l 5
 239 188 l 5
 239 -1 l 5
 45 -1 l 5
EndSplineSet
Validated: 1
EndChar

StartChar: i.smcp
Encoding: 530 -1 464
Width: 272
VWidth: 0
Flags: W
HStem: 0 21G<45 239>
VStem: 45 194<0 570>
LayerCount: 2
Fore
SplineSet
45 0 m 1
 45 570 l 1
 239 570 l 1
 239 0 l 1
 45 0 l 1
EndSplineSet
Validated: 1
EndChar

StartChar: j.smcp
Encoding: 531 -1 465
Width: 339
VWidth: 0
Flags: W
VStem: 112 194<185.811 570>
LayerCount: 2
Fore
SplineSet
20 21 m 1
 20 175 l 1
 115 175 112 202 112 245 c 1
 112 570 l 1
 306 570 l 1
 306 165 l 2
 306 119 299 40 243 15 c 4
 169 -18 69 -8 20 21 c 1
EndSplineSet
Validated: 33
EndChar

StartChar: k.smcp
Encoding: 532 -1 466
Width: 597
VWidth: 0
Flags: W
HStem: -1 21G<45 229 355.64 578>
VStem: 45 184<-1 202 356 570>
LayerCount: 2
Fore
SplineSet
45 -1 m 1
 45 570 l 1
 229 570 l 1
 229 356 l 1
 272 356 l 5
 365 570 l 5
 578 570 l 5
 442 280 l 5
 578 -1 l 5
 365 -1 l 5
 270 202 l 5
 229 202 l 1
 229 -1 l 1
 45 -1 l 1
EndSplineSet
Validated: 1
EndChar

StartChar: l.smcp
Encoding: 533 -1 467
Width: 506
VWidth: 0
Flags: W
HStem: 0 174<247.624 487>
VStem: 45 194<182 570>
LayerCount: 2
Fore
SplineSet
45 146 m 2
 45 570 l 1
 239 570 l 1
 239 241 l 2
 239 173 270 174 317 174 c 2
 487 174 l 1
 487 0 l 1
 191 0 l 2
 112 0 45 42 45 146 c 2
EndSplineSet
Validated: 33
EndChar

